<svg width="16" height="16" viewBox="0 0 16 16" fill="none" xmlns="http://www.w3.org/2000/svg">
<path fill-rule="evenodd" clip-rule="evenodd" d="M8 1.5C4.41015 1.5 1.5 4.41015 1.5 8C1.5 9.72391 2.18482 11.3772 3.40381 12.5962C4.62279 13.8152 6.27609 14.5 8 14.5C9.72391 14.5 11.3772 13.8152 12.5962 12.5962C13.8152 11.3772 14.5 9.72391 14.5 8C14.5 6.27609 13.8152 4.62279 12.5962 3.40381C11.3772 2.18482 9.72391 1.5 8 1.5ZM2.80008 7.99998C2.80008 10.8665 5.13358 13.2 8.00008 13.2C10.8666 13.2 13.2001 10.8665 13.2001 7.99998C13.2001 5.13348 10.8666 2.79998 8.00008 2.79998C5.13358 2.79998 2.80008 5.13348 2.80008 7.99998ZM8.65016 6.05H7.35016V4.75H8.65016V6.05ZM8.65016 11.25H7.35016V7.34996H8.65016V11.25Z" fill="#FF875B"/>
</svg>
