<svg width="64" height="63" viewBox="0 0 64 63" fill="none" xmlns="http://www.w3.org/2000/svg">
<path d="M37.8731 19.7824C37.8635 19.7728 37.8603 19.7589 37.8507 19.7493C37.8411 19.7397 37.8272 19.7365 37.8176 19.7269C35.5019 17.4251 32.3147 16 28.8 16C25.2853 16 22.0981 17.4251 19.7824 19.7269C19.7728 19.7365 19.7589 19.7397 19.7493 19.7493C19.7397 19.7589 19.7365 19.7728 19.7269 19.7824C17.4251 22.0981 16 25.2853 16 28.8C16 32.3147 17.4251 35.5019 19.7269 37.8176C19.7365 37.8272 19.7397 37.8411 19.7493 37.8507C19.7589 37.8603 19.7728 37.8635 19.7824 37.8731C22.0981 40.1749 25.2853 41.6 28.8 41.6C32.3147 41.6 35.5019 40.1749 37.8176 37.8731C37.8272 37.8635 37.8411 37.8603 37.8507 37.8507C37.8603 37.8411 37.8635 37.8272 37.8731 37.8176C40.1749 35.5019 41.6 32.3147 41.6 28.8C41.6 25.2853 40.1749 22.0981 37.8731 19.7824ZM37.3333 29.8667H39.4123C39.1989 32.0085 38.3477 33.9648 37.0539 35.5456L35.5883 34.08C35.1712 33.6629 34.4971 33.6629 34.08 34.08C33.6629 34.496 33.6629 35.1712 34.08 35.5883L35.5456 37.0539C33.9648 38.3477 32.0085 39.1989 29.8667 39.4123V37.3333C29.8667 36.7445 29.3899 36.2667 28.8 36.2667C28.2101 36.2667 27.7333 36.7445 27.7333 37.3333V39.4123C25.5915 39.1989 23.6341 38.3477 22.0544 37.0539L23.52 35.5883C23.9371 35.1712 23.9371 34.496 23.52 34.08C23.1029 33.6629 22.4288 33.6629 22.0117 34.08L20.5461 35.5456C19.2523 33.9648 18.4011 32.0085 18.1877 29.8667H20.2667C20.8565 29.8667 21.3333 29.3888 21.3333 28.8C21.3333 28.2112 20.8565 27.7333 20.2667 27.7333H18.1877C18.4011 25.5915 19.2523 23.6352 20.5461 22.0544L22.0117 23.52C22.2197 23.728 22.4928 23.8325 22.7659 23.8325C23.0389 23.8325 23.312 23.728 23.52 23.52C23.9371 23.104 23.9371 22.4288 23.52 22.0117L22.0544 20.5461C23.6352 19.2523 25.5915 18.4011 27.7333 18.1877V20.2667C27.7333 20.8555 28.2101 21.3333 28.8 21.3333C29.3899 21.3333 29.8667 20.8555 29.8667 20.2667V18.1877C32.0085 18.4011 33.9659 19.2523 35.5456 20.5461L34.08 22.0117C33.6629 22.4288 33.6629 23.104 34.08 23.52C34.288 23.728 34.5611 23.8325 34.8341 23.8325C35.1072 23.8325 35.3803 23.728 35.5883 23.52L37.0539 22.0544C38.3477 23.6352 39.1989 25.5915 39.4123 27.7333H37.3333C36.7435 27.7333 36.2667 28.2112 36.2667 28.8C36.2667 29.3888 36.7435 29.8667 37.3333 29.8667Z" fill="white"/>
<path d="M28.8 23.4667C25.8592 23.4667 23.4667 25.8592 23.4667 28.8C23.4667 31.7408 25.8592 34.1333 28.8 34.1333C31.7408 34.1333 34.1333 31.7408 34.1333 28.8C34.1333 25.8592 31.7408 23.4667 28.8 23.4667ZM28.8 32C27.0357 32 25.6 30.5643 25.6 28.8C25.6 27.0357 27.0357 25.6 28.8 25.6C30.5643 25.6 32 27.0357 32 28.8C32 30.5643 30.5643 32 28.8 32Z" fill="white"/>
<path d="M54.4 16C54.4 15.4112 53.9232 14.9333 53.3333 14.9333H50.6667C48.608 14.9333 46.9333 16.608 46.9333 18.6667V38.9333C46.9333 40.992 48.608 42.6667 50.6667 42.6667H53.3333C53.9232 42.6667 54.4 42.1888 54.4 41.6C54.4 41.0112 53.9232 40.5333 53.3333 40.5333H50.6667C49.7845 40.5333 49.0667 39.8155 49.0667 38.9333V18.6667C49.0667 17.7845 49.7845 17.0667 50.6667 17.0667H53.3333C53.9232 17.0667 54.4 16.5888 54.4 16Z" fill="white"/>
<path d="M51.2 19.2V38.4C51.2 38.9888 51.6768 39.4667 52.2667 39.4667C52.8565 39.4667 53.3333 38.9888 53.3333 38.4V19.2C53.3333 18.6112 52.8565 18.1333 52.2667 18.1333C51.6768 18.1333 51.2 18.6112 51.2 19.2Z" fill="white"/>
<path fill-rule="evenodd" clip-rule="evenodd" d="M59.6736 0H6.45973C4.0736 0 2.13333 1.94027 2.13333 4.3264V11.7856C0.9184 12.0277 0 13.1008 0 14.3861V24.0139C0 25.2992 0.9184 26.3723 2.13333 26.6144V30.9856C0.9184 31.2277 0 32.3008 0 33.5861V43.2139C0 44.4992 0.9184 45.5723 2.13333 45.8144V53.2736C2.13333 55.6597 4.0736 57.6 6.45973 57.6H10.6667V58.6667C10.6667 60.7253 12.3413 62.4 14.4 62.4H20.8C22.8587 62.4 24.5333 60.7253 24.5333 58.6667V57.6H41.6V58.6666C41.6 60.7252 43.2747 62.3999 45.3333 62.3999H51.7333C53.792 62.3999 55.4667 60.7252 55.4667 58.6666V57.6H59.6747C62.0597 57.6 64 55.6597 64 53.2736V4.3264C64 1.94027 62.0597 0 59.6736 0ZM22.4 57.6H12.8V58.6667C12.8 59.5488 13.5179 60.2667 14.4 60.2667H20.8C21.6821 60.2667 22.4 59.5488 22.4 58.6667V57.6ZM43.7333 58.6666V57.6H53.3333V58.6666C53.3333 59.5487 52.6155 60.2666 51.7333 60.2666H45.3333C44.4512 60.2666 43.7333 59.5487 43.7333 58.6666ZM2.13333 14.3861C2.13333 14.0992 2.36587 13.8667 2.65173 13.8667H8.53333C9.12213 13.8667 9.6 14.3456 9.6 14.9333V23.4667C9.6 24.0544 9.12213 24.5333 8.53333 24.5333H2.65173C2.36587 24.5333 2.13333 24.3008 2.13333 24.0139V14.3861ZM4.26667 26.6667H7.46667V30.9333H4.26667V26.6667ZM9.6 45.8144C10.8149 45.5723 11.7333 44.4992 11.7333 43.2139V33.5861C11.7333 32.3008 10.8149 31.2277 9.6 30.9856V26.6144C10.8149 26.3723 11.7333 25.2992 11.7333 24.0139V14.3861C11.7333 13.1008 10.8149 12.0277 9.6 11.7856V7.46667H56.5333V50.1333H9.6V45.8144ZM2.13333 33.5861C2.13333 33.2992 2.36587 33.0667 2.65173 33.0667H8.53333C9.12213 33.0667 9.6 33.5456 9.6 34.1333V42.6667C9.6 43.2544 9.12213 43.7333 8.53333 43.7333H2.65173C2.36587 43.7333 2.13333 43.5008 2.13333 43.2139V33.5861ZM61.8667 53.2736C61.8667 54.4832 60.8832 55.4667 59.6736 55.4667H6.45973C5.25013 55.4667 4.26667 54.4832 4.26667 53.2736V45.8667H7.46667V52.2667H58.6667V5.33333H7.46667V11.7333H4.26667V4.3264C4.26667 3.1168 5.25013 2.13333 6.45973 2.13333H59.6747C60.8832 2.13333 61.8667 3.1168 61.8667 4.3264V53.2736Z" fill="white"/>
</svg>
