<svg width="60" height="62" viewBox="0 0 60 62" fill="none" xmlns="http://www.w3.org/2000/svg">
<path d="M1.05099 29.4858C0.68516 31.0773 0.499354 32.7048 0.49707 34.3377C0.49707 40.5846 1.93154 46.7948 3.50075 51.7283L15.0691 41.849L1.05099 29.4858Z" fill="white"/>
<path d="M26.0972 38.29V60.1378C26.0972 60.5771 26.2717 60.9984 26.5823 61.309C26.8929 61.6196 27.3142 61.7941 27.7535 61.7941H35.5464C35.9769 61.7928 36.398 61.6681 36.7598 61.4348C37.1216 61.2016 37.409 60.8696 37.5879 60.4781C38.7461 57.9589 41.2326 52.0781 42.7338 45.0677L26.0972 38.29Z" fill="white"/>
<path d="M15.7061 38.9V13.6035C12.5595 14.5983 9.68006 16.2948 7.28495 18.5649C4.88983 20.8351 3.04165 23.6196 1.87988 26.7084L15.7061 38.9Z" fill="white"/>
<path d="M4.40845 54.4106C5.37066 57.0972 6.29204 59.2176 6.87454 60.4847C7.05393 60.8753 7.34162 61.2063 7.70347 61.4384C8.06532 61.6704 8.48614 61.7938 8.91601 61.7939H16.7103C16.9278 61.7939 17.1431 61.7511 17.344 61.6678C17.5448 61.5846 17.7273 61.4626 17.881 61.3087C18.0347 61.1549 18.1566 60.9723 18.2397 60.7714C18.3228 60.5704 18.3655 60.3551 18.3653 60.1376V55.7185C19.6407 55.9503 20.9342 56.0678 22.2305 56.0697C22.6469 56.0697 23.0579 56.0533 23.4676 56.0288V38.1401L4.40845 54.4106Z" fill="white"/>
<path d="M57.8854 11.6573C55.3934 19.7388 48.7382 23.77 48.7382 23.77C51.3078 18.9916 49.7318 13.1748 49.7318 13.1748C47.3296 16.9134 43.7435 19.5714 43.7435 19.5714C40.4417 16.7936 38.0927 14.5467 34.5541 11.1891C35.3875 10.4592 36.0233 9.53075 36.4026 8.48981C36.7819 7.44887 36.8925 6.32906 36.7241 5.23403C36.5557 4.13901 36.1138 3.10416 35.4393 2.22528C34.7647 1.3464 33.8794 0.651899 32.8651 0.206055L29.3266 8.22357C26.3991 7.47095 23.4635 7.95138 21.3608 8.99117L17.4875 0.206055C16.2468 0.752778 15.2048 1.66866 14.5034 2.82894C13.802 3.98923 13.4753 5.33752 13.5679 6.69016C13.6604 8.0428 14.1677 9.33404 15.0205 10.388C15.8734 11.442 17.0304 12.2074 18.334 12.5801V39.0688L23.7044 34.485L46.4327 43.7478C46.9018 43.9395 47.4143 43.9993 47.9149 43.9209C48.4155 43.8425 48.8852 43.6287 49.2731 43.3028C54.3918 39.0266 62.0609 24.475 57.8854 11.6573ZM32.1493 31.7045C31.0743 31.7045 30.0234 31.3857 29.1297 30.7884C28.2359 30.1911 27.5394 29.3421 27.1282 28.3488C26.717 27.3556 26.6096 26.2627 26.8196 25.2084C27.0296 24.1542 27.5476 23.1859 28.308 22.426C29.0684 21.6662 30.0371 21.1489 31.0916 20.9397C32.146 20.7305 33.2388 20.8387 34.2318 21.2506C35.2247 21.6625 36.0731 22.3597 36.6698 23.2539C37.2664 24.1481 37.5845 25.1992 37.5837 26.2742C37.5837 27.7155 37.0111 29.0978 35.992 30.1169C34.9728 31.1361 33.5906 31.7086 32.1493 31.7086V31.7045ZM46.8478 39.0007C46.0489 39.7302 45.0486 39.9357 44.6118 39.458C44.1749 38.9803 44.4757 38.0018 45.2705 37.2723C46.0653 36.5428 47.071 36.3373 47.5066 36.815C47.9421 37.2927 47.6467 38.2753 46.8465 39.0048L46.8478 39.0007Z" fill="white"/>
<path d="M35.5518 24.1658C35.5908 24.2773 35.6142 24.3936 35.6212 24.5115C35.6282 24.8035 35.541 25.0901 35.3726 25.3287C35.2042 25.5674 34.9634 25.7455 34.6859 25.8368C34.4084 25.9281 34.1089 25.9277 33.8317 25.8357C33.5545 25.7436 33.3142 25.5648 33.1465 25.3256C32.9787 25.0865 32.8923 24.7997 32.9001 24.5077C32.9079 24.2157 33.0094 23.934 33.1897 23.7041C33.37 23.4743 33.6195 23.3085 33.9012 23.2314C34.1829 23.1542 34.482 23.1698 34.7543 23.2757C34.1076 22.7773 33.298 22.5384 32.4842 22.606C31.6705 22.6735 30.9114 23.0427 30.3558 23.641C29.8002 24.2393 29.4881 25.0236 29.4808 25.8401C29.4736 26.6566 29.7716 27.4463 30.3165 28.0544C30.8614 28.6625 31.6138 29.0451 32.4262 29.1272C33.2385 29.2092 34.0523 28.9848 34.7078 28.498C35.3632 28.0111 35.8132 27.2969 35.9693 26.4954C36.1255 25.694 35.9766 24.8631 35.5518 24.1658Z" fill="white"/>
</svg>
