<svg width="56" height="64" viewBox="0 0 56 64" fill="none" xmlns="http://www.w3.org/2000/svg">
<path d="M45.5463 47.7812L34.9564 43.4488C33.7879 42.9708 33.0323 41.8457 33.0323 40.5822V39.841C36.2085 37.6465 38.6343 34.5497 40.0093 30.9677H40.2581C43.104 30.9677 45.4194 28.6524 45.4194 25.8064V17.5484C45.4194 7.872 37.5474 0 27.871 0H10.3226V1.03226C10.3226 2.09961 10.4609 3.1329 10.6973 4.12903H7.03897L7.23922 5.33161C7.73677 8.31484 9.04155 10.9729 10.8986 13.1169C10.5239 14.5579 10.3226 16.0434 10.3226 17.5484V25.8064C10.3226 28.6524 12.6379 30.9677 15.4839 30.9677H15.7326C17.1076 34.5507 19.5334 37.6465 22.7097 39.841V40.5822C22.7097 41.8457 21.9541 42.9698 20.7855 43.4477L10.1956 47.7801C4.00206 50.3154 0 56.2766 0 62.9677V64H55.7419V62.9677C55.7419 56.2766 51.7399 50.3153 45.5463 47.7812ZM39.9969 52.0279L31.4519 55.232L33.6661 58.5528L28.5904 61.9355H28.0237L28.801 60.3179C29.024 59.8555 33.7858 49.9334 35.3724 45.8498L38.3412 47.0648L39.9969 52.0279ZM15.745 52.0279L17.3997 47.0648L20.3695 45.8498C21.953 49.9169 26.7179 59.8545 26.9399 60.3179L27.7172 61.9355H27.1515L22.0769 58.5528L24.2911 55.232L15.745 52.0279ZM23.7378 48.5161H32.0052C30.6643 51.5427 28.9239 55.2495 27.871 57.471C26.8191 55.2485 25.0787 51.5406 23.7378 48.5161ZM40.6854 28.8599C41.0766 27.3301 41.2903 25.7373 41.2903 24.1043V22.8996C42.4888 23.327 43.3548 24.4625 43.3548 25.8064C43.3548 27.3672 42.1894 28.6493 40.6854 28.8599ZM11.3579 6.19355C13.3843 11.0379 18.1708 14.4516 23.7419 14.4516H30.9677V12.3871H23.7419C17.8281 12.3871 12.9569 7.84413 12.4335 2.06452H27.871C36.4088 2.06452 43.3548 9.01058 43.3548 17.5484V21.7043C42.7272 21.2294 41.9985 20.8888 41.1954 20.7401C40.7525 18.3412 38.6539 16.5161 36.129 16.5161H22.881C16.5244 16.5161 11.0926 12.2436 9.53084 6.19355H11.3579ZM12.6369 14.8212C13.2129 15.3084 13.8106 15.7708 14.4516 16.1714V20.7494C13.6846 20.9063 12.9899 21.247 12.3871 21.7032V17.5484C12.3871 16.6286 12.4769 15.7182 12.6369 14.8212ZM12.3871 25.8064C12.3871 24.4625 13.2532 23.327 14.4516 22.8996V24.1043C14.4516 25.7373 14.6653 27.3301 15.0565 28.8599C13.5525 28.6493 12.3871 27.3672 12.3871 25.8064ZM16.5161 24.1043V17.2604C18.4702 18.112 20.6245 18.5806 22.881 18.5806H36.129C37.8364 18.5806 39.2258 19.9701 39.2258 21.6774V24.1043C39.2258 31.3538 34.6777 37.7786 27.871 40.1982C21.0643 37.7786 16.5161 31.3548 16.5161 24.1043ZM24.737 41.0797C25.6289 41.5443 26.5662 41.9437 27.5437 42.2689L27.871 42.3783L28.1972 42.2699C29.1747 41.9437 30.112 41.5453 31.0039 41.0808C31.1608 42.7221 32.0743 44.1786 33.4813 45.0157C33.3234 45.4286 33.1272 45.9107 32.8991 46.4526H22.8418C22.6126 45.9107 22.4165 45.4276 22.2586 45.0157C23.6666 44.1775 24.5801 42.721 24.737 41.0797ZM10.977 49.6929L14.88 48.096L13.1582 53.2625L21.1293 56.2519L19.2145 59.1246L23.4292 61.9355H12.3871V55.7419H10.3226V61.9355H2.10064C2.48568 56.511 5.88387 51.776 10.977 49.6929ZM45.4194 61.9355V55.7419H43.3548V61.9355H32.3128L36.5285 59.1246L34.6137 56.2519L42.5848 53.2625L40.863 48.096L44.7659 49.6929C49.8591 51.777 53.2573 56.511 53.6423 61.9355H45.4194Z" fill="rgb(65, 63, 84)"/>
<path d="M34.0645 23.7423C34.6346 23.7423 35.0967 23.2801 35.0967 22.71C35.0967 22.1399 34.6346 21.6777 34.0645 21.6777C33.4944 21.6777 33.0322 22.1399 33.0322 22.71C33.0322 23.2801 33.4944 23.7423 34.0645 23.7423Z" fill="rgb(65, 63, 84)"/>
<path d="M21.6773 23.7423C22.2474 23.7423 22.7095 23.2801 22.7095 22.71C22.7095 22.1399 22.2474 21.6777 21.6773 21.6777C21.1072 21.6777 20.645 22.1399 20.645 22.71C20.645 23.2801 21.1072 23.7423 21.6773 23.7423Z" fill="rgb(65, 63, 84)"/>
<path d="M31.9998 32H29.9352C29.9352 33.1386 29.0093 34.0645 27.8707 34.0645C26.7322 34.0645 25.8062 33.1386 25.8062 32H23.7417C23.7417 34.2772 25.5936 36.129 27.8707 36.129C30.1479 36.129 31.9998 34.2772 31.9998 32Z" fill="rgb(65, 63, 84)"/>
</svg>
