<svg width="32" height="32" viewBox="0 0 32 32" fill="none" xmlns="http://www.w3.org/2000/svg">
<path d="M22.668 4.66675H9.33464C5.33464 4.66675 2.66797 6.66675 2.66797 11.3334V20.6667C2.66797 25.3334 5.33464 27.3334 9.33464 27.3334H22.668C26.668 27.3334 29.3346 25.3334 29.3346 20.6667V11.3334C29.3346 6.66675 26.668 4.66675 22.668 4.66675ZM8.33464 19.3334C8.33464 19.8801 7.8813 20.3334 7.33464 20.3334C6.78797 20.3334 6.33464 19.8801 6.33464 19.3334V12.6667C6.33464 12.1201 6.78797 11.6667 7.33464 11.6667C7.8813 11.6667 8.33464 12.1201 8.33464 12.6667V19.3334ZM16.0013 20.0001C13.788 20.0001 12.0013 18.2134 12.0013 16.0001C12.0013 13.7867 13.788 12.0001 16.0013 12.0001C18.2146 12.0001 20.0013 13.7867 20.0013 16.0001C20.0013 18.2134 18.2146 20.0001 16.0013 20.0001ZM25.668 19.3334C25.668 19.8801 25.2146 20.3334 24.668 20.3334C24.1213 20.3334 23.668 19.8801 23.668 19.3334V12.6667C23.668 12.1201 24.1213 11.6667 24.668 11.6667C25.2146 11.6667 25.668 12.1201 25.668 12.6667V19.3334Z" fill="#FF9D00"/>
</svg>
