<svg width="20" height="20" viewBox="0 0 20 20" fill="none" xmlns="http://www.w3.org/2000/svg">
<path d="M6.66797 18.5998C6.43464 18.5998 6.19295 18.5415 5.97629 18.4249C5.50129 18.1749 5.20964 17.6748 5.20964 17.1415V15.9582C2.69297 15.6999 1.04297 13.8498 1.04297 11.1998V6.19987C1.04297 3.3332 2.96797 1.4082 5.83464 1.4082H14.168C17.0346 1.4082 18.9596 3.3332 18.9596 6.19987V11.1998C18.9596 14.0665 17.0346 15.9915 14.168 15.9915H11.0263L7.47628 18.3582C7.23461 18.5166 6.9513 18.5998 6.66797 18.5998ZM5.83464 2.64986C3.68464 2.64986 2.29297 4.04153 2.29297 6.19153V11.1916C2.29297 13.3416 3.68464 14.7332 5.83464 14.7332C6.1763 14.7332 6.45964 15.0166 6.45964 15.3582V17.1332C6.45964 17.2416 6.52631 17.2916 6.56797 17.3166C6.60964 17.3416 6.69298 17.3666 6.78465 17.3082L10.493 14.8416C10.593 14.7749 10.718 14.7332 10.843 14.7332H14.1763C16.3263 14.7332 17.718 13.3416 17.718 11.1916V6.19153C17.718 4.04153 16.3263 2.64986 14.1763 2.64986H5.83464V2.64986Z" fill="#FF9D00"/>
<path d="M10.0005 10.0916C9.65883 10.0916 9.3755 9.80822 9.3755 9.46655V9.29159C9.3755 8.32492 10.0838 7.84991 10.3505 7.66658C10.6588 7.45824 10.7588 7.31658 10.7588 7.09991C10.7588 6.68325 10.4172 6.34155 10.0005 6.34155C9.58383 6.34155 9.24219 6.68325 9.24219 7.09991C9.24219 7.44158 8.95885 7.72491 8.61719 7.72491C8.27552 7.72491 7.99219 7.44158 7.99219 7.09991C7.99219 5.99158 8.89217 5.09155 10.0005 5.09155C11.1088 5.09155 12.0088 5.99158 12.0088 7.09991C12.0088 8.04991 11.3088 8.5249 11.0505 8.6999C10.7255 8.91657 10.6255 9.05825 10.6255 9.29159V9.46655C10.6255 9.81655 10.3422 10.0916 10.0005 10.0916Z" fill="#FF9D00"/>
<path d="M10 12.1667C9.65 12.1667 9.375 11.8834 9.375 11.5417C9.375 11.2001 9.65833 10.9167 10 10.9167C10.3417 10.9167 10.625 11.2001 10.625 11.5417C10.625 11.8834 10.35 12.1667 10 12.1667Z" fill="#FF9D00"/>
</svg>
