<svg id="Layer_1" data-name="Layer 1" xmlns="http://www.w3.org/2000/svg" viewBox="0 0 452.5 470.25"><defs><style>.cls-1{fill:#fff;}.cls-2{fill:#ff9d00;}.cls-3{fill:#f94421;}.cls-4{fill:#ffbc00;}.cls-5{fill:#ff7900;}.cls-6{fill:#2c2f35;}</style></defs><circle class="cls-1" cx="243.57" cy="198.75" r="45.51"/><path class="cls-2" d="M15.07,224A160.13,160.13,0,0,0,11,259.65c0,45.9,10.54,91.53,22.07,127.78l85-72.59Z"/><path class="cls-3" d="M199.1,288.69V449.22a12.17,12.17,0,0,0,12.17,12.17h57.26a16.55,16.55,0,0,0,15-9.67c8.51-18.51,26.78-61.72,37.81-113.23Z"/><path class="cls-4" d="M122.75,293.17V107.3A160.1,160.1,0,0,0,21.16,203.59Z"/><path class="cls-5" d="M39.74,407.14c7.07,19.74,13.84,35.32,18.12,44.63a16.51,16.51,0,0,0,15,9.62h57.27a12.16,12.16,0,0,0,12.16-12.17V416.75a160.16,160.16,0,0,0,28.4,2.58c3.06,0,6.08-.12,9.09-.3V287.59Z"/><path class="cls-2" d="M432.67,93C414.36,152.38,365.46,182,365.46,182c18.88-35.11,7.3-77.85,7.3-77.85-17.65,27.47-44,47-44,47-24.26-20.41-41.52-36.92-67.52-61.59a48.39,48.39,0,0,0-12.41-80.7l-26,58.91c-21.51-5.53-43.08-2-58.53,5.64L135.84,8.86a48.45,48.45,0,0,0,6.22,90.92h0V294.41l39.46-33.68,167,68.06a20.43,20.43,0,0,0,20.87-3.27C407,294.1,463.35,187.18,432.67,93Zm-189.1,147.3A39.93,39.93,0,1,1,283.5,200.4,39.93,39.93,0,0,1,243.57,240.33Zm108,53.61c-5.87,5.36-13.22,6.87-16.43,3.36s-1-10.7,4.84-16.06,13.23-6.87,16.43-3.36S357.44,288.58,351.56,293.94Z"/><path class="cls-6" d="M268.57,184.91a9.39,9.39,0,0,1,.51,2.54,10,10,0,1,1-6.37-9.08,24.06,24.06,0,1,0,5.86,6.54Z"/></svg>