<svg width="122" height="49" viewBox="0 0 122 49" fill="none" xmlns="http://www.w3.org/2000/svg">
<path d="M62.8207 29.368H57.6033V11.1569H62.5881V13.5164C63.7623 11.6111 65.4128 10.6584 67.5396 10.6584C68.2486 10.6584 69.0019 10.8024 69.7994 11.0904L69.3674 16.0752C68.6141 15.8094 67.8498 15.6764 67.0744 15.6764C65.7451 15.6764 64.7038 16.1306 63.9506 17.039C63.1973 17.9251 62.8207 19.2655 62.8207 21.06V29.368Z" fill="#413F54"/>
<path d="M74.7058 9.2959C73.8196 9.2959 73.0774 9.00789 72.4793 8.43187C71.8811 7.83369 71.582 7.09151 71.582 6.20532C71.582 5.31914 71.8811 4.58803 72.4793 4.01201C73.0774 3.41383 73.8196 3.11475 74.7058 3.11475C75.5699 3.11475 76.301 3.41383 76.8991 4.01201C77.4973 4.58803 77.7964 5.31914 77.7964 6.20532C77.7964 7.09151 77.4973 7.83369 76.8991 8.43187C76.301 9.00789 75.5699 9.2959 74.7058 9.2959ZM77.2647 11.1569V29.368H72.0473V11.1569H77.2647Z" fill="#413F54"/>
<path d="M86.4141 29.368H81.1967V11.1569H86.2812V13.6825C86.7686 12.7963 87.5219 12.0763 88.541 11.5224C89.5823 10.9464 90.7454 10.6584 92.0303 10.6584C94.0021 10.6584 95.6748 11.312 97.0484 12.6191C98.422 13.9262 99.1088 15.7983 99.1088 18.2353V29.368H93.8913V19.5978C93.8913 18.2907 93.5701 17.2716 92.9276 16.5405C92.2851 15.8094 91.4211 15.4438 90.3355 15.4438C89.1613 15.4438 88.2087 15.8426 87.4776 16.6402C86.7686 17.4156 86.4141 18.4458 86.4141 19.7308V29.368Z" fill="#413F54"/>
<path d="M111.782 29.8665C108.901 29.8665 106.542 28.9471 104.703 27.1083C102.886 25.2694 101.978 22.9875 101.978 20.2625C101.978 17.5374 102.886 15.2666 104.703 13.4499C106.542 11.5889 108.901 10.6584 111.782 10.6584C114.684 10.6584 117.054 11.5889 118.893 13.4499C120.732 15.2887 121.651 17.5596 121.651 20.2625C121.651 22.9432 120.732 25.2251 118.893 27.1083C117.054 28.9471 114.684 29.8665 111.782 29.8665ZM116.434 20.2292C116.434 18.9221 115.98 17.8144 115.072 16.906C114.163 15.9755 113.067 15.5103 111.782 15.5103C110.497 15.5103 109.4 15.9755 108.492 16.906C107.605 17.7922 107.162 18.9 107.162 20.2292C107.162 21.6028 107.605 22.7438 108.492 23.6521C109.4 24.5605 110.497 25.0146 111.782 25.0146C113.067 25.0146 114.163 24.5605 115.072 23.6521C115.98 22.6995 116.434 21.5585 116.434 20.2292Z" fill="#413F54"/>
<path d="M1.32366 23.5684C1.03625 24.8145 0.889922 26.0889 0.887451 27.3678C0.891813 32.2533 2.01724 37.1214 3.24299 40.9776L12.3075 33.2523L1.32366 23.5684Z" fill="#FF9D00"/>
<path d="M20.9357 30.4648V47.5687C20.9357 47.9158 21.0735 48.2486 21.319 48.494C21.5644 48.7395 21.8972 48.8773 22.2443 48.8773H28.3513C28.6896 48.8788 29.0211 48.7818 29.3053 48.5983C29.5895 48.4147 29.8143 48.1525 29.9522 47.8435C31.7185 43.9754 33.0696 39.931 33.9827 35.7779L20.9357 30.4648Z" fill="#F94421"/>
<path d="M12.8003 30.9446V11.1362C10.3361 11.9139 8.08088 13.2417 6.20524 15.0191C4.32959 16.7965 2.88255 18.9771 1.97351 21.3959L12.8003 30.9446Z" fill="#FFBC00"/>
<path d="M3.95398 43.0845C4.70863 45.1914 5.42837 46.849 5.88203 47.8436C6.0212 48.151 6.24649 48.4114 6.53062 48.5933C6.81476 48.7753 7.14555 48.8709 7.48293 48.8687H13.5899C13.937 48.8687 14.2698 48.7308 14.5152 48.4854C14.7606 48.24 14.8985 47.9071 14.8985 47.5601V44.1009C15.8973 44.2832 16.9105 44.3752 17.9258 44.3757C18.253 44.3757 18.5758 44.3757 18.8942 44.3452V30.3472L3.95398 43.0845Z" fill="#FF7900"/>
<path d="M45.8258 9.61401C44.5641 13.485 42.0425 16.822 38.6633 19.0929C40.6742 15.3502 39.4397 10.8049 39.4397 10.8049C38.1525 12.7099 36.5712 14.3987 34.7548 15.8082C32.1681 13.6272 30.3273 11.8823 27.5573 9.26504C28.1195 8.77213 28.5662 8.16153 28.866 7.47658C29.4201 6.22633 29.4557 4.80735 28.9651 3.53085C28.4744 2.25435 27.4975 1.22456 26.2487 0.667318L23.47 6.92259C21.3845 6.38592 19.1766 6.59898 17.2322 7.52456L14.1787 0.645508C13.2083 1.07441 12.3935 1.79179 11.8451 2.7001C11.2967 3.6084 11.0414 4.66355 11.1139 5.72207C11.1863 6.7806 11.583 7.79113 12.25 8.61625C12.917 9.44138 13.8219 10.0411 14.8418 10.3338V10.3338V31.0712L19.0468 27.4856L36.8617 34.7354C37.2288 34.8857 37.6299 34.9331 38.0219 34.8723C38.4139 34.8116 38.782 34.6451 39.0864 34.3908C43.0995 31.0407 49.0931 19.6469 45.8258 9.61401ZM25.6729 25.3176C24.8319 25.3168 24.01 25.0666 23.3112 24.5987C22.6124 24.1309 22.0679 23.4663 21.7467 22.6891C21.4254 21.9119 21.3418 21.0569 21.5064 20.2322C21.671 19.4074 22.0764 18.65 22.6714 18.0557C23.2664 17.4613 24.0242 17.0567 24.8491 16.8929C25.674 16.7292 26.5289 16.8136 27.3058 17.1357C28.0827 17.4577 28.7467 18.0028 29.2138 18.7021C29.681 19.4015 29.9303 20.2236 29.9303 21.0646C29.928 22.1918 29.4783 23.272 28.68 24.0678C27.8817 24.8637 26.8001 25.3101 25.6729 25.3089V25.3176ZM37.1801 31.032C36.5564 31.6034 35.7712 31.7648 35.4353 31.3897C35.0994 31.0145 35.3262 30.2512 35.95 29.6797C36.5738 29.1083 37.359 28.9469 37.6949 29.322C38.0307 29.6972 37.8083 30.4518 37.1801 31.0233V31.032Z" fill="#FF9D00"/>
<path d="M25.6731 25.3176C24.8321 25.3168 24.0103 25.0666 23.3115 24.5988C22.6126 24.1309 22.0682 23.4664 21.7469 22.6891C21.4257 21.9119 21.3421 21.0569 21.5067 20.2322C21.6713 19.4075 22.0767 18.65 22.6717 18.0557C23.2666 17.4613 24.0245 17.0567 24.8494 16.8929C25.6743 16.7292 26.5292 16.8137 27.3061 17.1357C28.083 17.4577 28.747 18.0028 29.2141 18.7022C29.6812 19.4015 29.9306 20.2236 29.9306 21.0646C29.9282 22.1918 29.4785 23.272 28.6802 24.0679C27.8819 24.8637 26.8004 25.3101 25.6731 25.3089V25.3176Z" fill="white"/>
<path d="M28.3381 19.4066C28.3669 19.4942 28.3844 19.585 28.3905 19.677C28.3905 19.8834 28.3292 20.0852 28.2145 20.2567C28.0997 20.4282 27.9366 20.5619 27.7459 20.6406C27.5551 20.7194 27.3453 20.7398 27.1429 20.6992C26.9406 20.6586 26.7548 20.5589 26.6092 20.4127C26.4636 20.2664 26.3646 20.0803 26.3249 19.8777C26.2852 19.6752 26.3064 19.4655 26.386 19.275C26.4656 19.0846 26.5999 18.9221 26.7719 18.8081C26.9439 18.694 27.1459 18.6336 27.3523 18.6345C27.4765 18.6368 27.5992 18.6619 27.7144 18.7086C27.2067 18.3158 26.5706 18.1269 25.9308 18.1789C25.291 18.2309 24.6938 18.5201 24.2562 18.9897C23.8187 19.4594 23.5724 20.0756 23.5658 20.7175C23.5592 21.3593 23.7926 21.9805 24.2204 22.4591C24.6481 22.9377 25.2393 23.2392 25.8779 23.3044C26.5164 23.3696 27.1563 23.1938 27.672 22.8116C28.1876 22.4293 28.5418 21.8682 28.6651 21.2382C28.7883 20.6083 28.6717 19.955 28.3381 19.4066V19.4066Z" fill="#413F54"/>
<path d="M57.6233 38.5396C57.6233 36.8827 58.9664 35.5396 60.6233 35.5396H118.958C120.615 35.5396 121.958 36.8827 121.958 38.5396V45.5302C121.958 47.1871 120.615 48.5302 118.958 48.5302H60.6233C58.9664 48.5302 57.6233 47.1871 57.6233 45.5302V38.5396Z" fill="#1271E1"/>
<path d="M66.7725 42.7871V42.2675C66.7725 41.6699 66.6686 41.12 66.4607 40.6177C66.2615 40.1154 65.9497 39.717 65.5254 39.4225C65.101 39.1194 64.5597 38.9679 63.9015 38.9679C63.252 38.9679 62.6891 39.1064 62.2128 39.3836C61.7364 39.652 61.3684 40.0374 61.1085 40.5397C60.8574 41.0334 60.7318 41.618 60.7318 42.2935C60.7318 42.9603 60.866 43.5449 61.1345 44.0472C61.403 44.5409 61.8057 44.9219 62.3427 45.1904C62.8883 45.4589 63.5681 45.5931 64.3822 45.5931C64.7459 45.5931 65.0664 45.5585 65.3435 45.4892C65.6293 45.4286 65.8848 45.342 66.11 45.2294C66.3438 45.1081 66.556 44.9696 66.7465 44.8137L66.2529 43.5926C65.9757 43.7571 65.6943 43.8913 65.4085 43.9953C65.1227 44.0992 64.7936 44.1512 64.4212 44.1512C64.0055 44.1512 63.6677 44.0949 63.4079 43.9823C63.1481 43.8697 62.9489 43.7138 62.8103 43.5146C62.6718 43.3068 62.5765 43.0643 62.5245 42.7871H66.7725ZM62.5375 41.6569C62.5895 41.3798 62.6761 41.1503 62.7973 40.9684C62.9186 40.7866 63.0701 40.648 63.252 40.5527C63.4339 40.4575 63.6374 40.4098 63.8626 40.4098C64.0877 40.4098 64.2869 40.4575 64.4601 40.5527C64.642 40.6393 64.7936 40.7736 64.9148 40.9554C65.0361 41.1373 65.1227 41.3712 65.1746 41.6569H62.5375Z" fill="white"/>
<path d="M69.496 45.4372V41.0854C69.6432 40.9814 69.8034 40.8688 69.9766 40.7476C70.1585 40.6263 70.3534 40.5268 70.5612 40.4488C70.7691 40.3709 70.9769 40.3319 71.1848 40.3319C71.4619 40.3319 71.6827 40.4358 71.8473 40.6437C72.0118 40.8515 72.0941 41.159 72.0941 41.566V45.4372H73.7829V41.4881C73.7829 41.0031 73.7179 40.5701 73.588 40.189C73.4668 39.7993 73.2503 39.4918 72.9385 39.2667C72.6354 39.0415 72.198 38.9289 71.6264 38.9289C71.4013 38.9289 71.1501 38.9635 70.873 39.0328C70.6045 39.0934 70.323 39.193 70.0286 39.3316C69.7428 39.4615 69.4657 39.6174 69.1972 39.7993L68.9114 39.1367H67.8072V45.4372H69.496Z" fill="white"/>
<path d="M78.2567 39.1627H77.1135V37.357L75.4377 37.6558V39.1627H74.5933L74.5803 40.4358H75.4377V43.4237C75.4377 43.9087 75.5416 44.32 75.7495 44.6578C75.9573 44.9956 76.2431 45.2554 76.6069 45.4372C76.9793 45.6104 77.4253 45.6971 77.9449 45.6971C78.0835 45.6971 78.235 45.6754 78.3996 45.6321C78.5641 45.5975 78.72 45.5498 78.8672 45.4892C79.0145 45.4372 79.1314 45.3766 79.218 45.3073L78.7243 44.0862C78.6031 44.1382 78.4862 44.1771 78.3736 44.2031C78.261 44.2291 78.1484 44.2421 78.0358 44.2421C77.7327 44.2421 77.5032 44.1382 77.3473 43.9303C77.1914 43.7225 77.1135 43.454 77.1135 43.1249V40.4358H78.7763L78.2567 39.1627Z" fill="white"/>
<path d="M85.7765 42.7871V42.2675C85.7765 41.6699 85.6725 41.12 85.4647 40.6177C85.2655 40.1154 84.9537 39.717 84.5293 39.4225C84.105 39.1194 83.5637 38.9679 82.9055 38.9679C82.256 38.9679 81.693 39.1064 81.2167 39.3836C80.7404 39.652 80.3723 40.0374 80.1125 40.5397C79.8614 41.0334 79.7358 41.618 79.7358 42.2935C79.7358 42.9603 79.87 43.5449 80.1385 44.0472C80.407 44.5409 80.8097 44.9219 81.3466 45.1904C81.8922 45.4589 82.5721 45.5931 83.3862 45.5931C83.7499 45.5931 84.0703 45.5585 84.3475 45.4892C84.6333 45.4286 84.8888 45.342 85.1139 45.2294C85.3478 45.1081 85.5599 44.9696 85.7505 44.8137L85.2568 43.5926C84.9797 43.7571 84.6982 43.8913 84.4124 43.9953C84.1266 44.0992 83.7975 44.1512 83.4251 44.1512C83.0094 44.1512 82.6717 44.0949 82.4119 43.9823C82.1521 43.8697 81.9529 43.7138 81.8143 43.5146C81.6757 43.3068 81.5805 43.0643 81.5285 42.7871H85.7765ZM81.5415 41.6569C81.5935 41.3798 81.6801 41.1503 81.8013 40.9684C81.9225 40.7866 82.0741 40.648 82.256 40.5527C82.4378 40.4575 82.6414 40.4098 82.8665 40.4098C83.0917 40.4098 83.2909 40.4575 83.4641 40.5527C83.646 40.6393 83.7975 40.7736 83.9188 40.9554C84.04 41.1373 84.1266 41.3712 84.1786 41.6569H81.5415Z" fill="white"/>
<path d="M88.4999 45.4372V41.592C88.7424 41.3755 88.9979 41.1849 89.2664 41.0204C89.5435 40.8559 89.8077 40.7259 90.0588 40.6307C90.31 40.5354 90.5351 40.4878 90.7343 40.4878L90.3966 39.1367C90.1714 39.1367 89.9246 39.193 89.6561 39.3056C89.3963 39.4182 89.1408 39.5568 88.8897 39.7213C88.6385 39.8772 88.4263 40.0331 88.2531 40.189L87.6945 39.1367H86.8111V45.4372H88.4999Z" fill="white"/>
<path d="M93.3349 48.1523V40.163L92.5165 39.1367H91.6591V48.2822L93.3349 48.1523ZM92.7633 41.2412C93.0664 40.9641 93.3479 40.7563 93.6077 40.6177C93.8675 40.4791 94.149 40.4098 94.4521 40.4098C94.7812 40.4098 95.054 40.4921 95.2705 40.6567C95.487 40.8125 95.6516 41.0291 95.7642 41.3062C95.8768 41.5747 95.933 41.8908 95.933 42.2545C95.933 42.6096 95.8768 42.9344 95.7642 43.2288C95.6602 43.5146 95.4957 43.7398 95.2705 43.9043C95.0454 44.0689 94.7725 44.1512 94.4521 44.1512C94.1577 44.1512 93.8762 44.0905 93.6077 43.9693C93.3392 43.8394 93.0578 43.6055 92.7633 43.2678L92.2827 44.411C92.4126 44.6102 92.5988 44.8007 92.8413 44.9826C93.0838 45.1644 93.3479 45.3117 93.6337 45.4242C93.9282 45.5368 94.201 45.5931 94.4521 45.5931C95.1449 45.5931 95.7295 45.4546 96.2059 45.1774C96.6822 44.8916 97.0459 44.5019 97.2971 44.0083C97.5569 43.506 97.6868 42.9214 97.6868 42.2545C97.6868 41.5877 97.5569 41.0074 97.2971 40.5138C97.0459 40.0201 96.6822 39.6391 96.2059 39.3706C95.7382 39.1021 95.1753 38.9679 94.5171 38.9679C94.2226 38.9679 93.9411 39.0155 93.6727 39.1108C93.4042 39.206 93.153 39.3403 92.9192 39.5135C92.694 39.6867 92.4819 39.8945 92.2827 40.137L92.7633 41.2412Z" fill="white"/>
<path d="M100.412 45.4372V41.592C100.655 41.3755 100.91 41.1849 101.179 41.0204C101.456 40.8559 101.72 40.7259 101.971 40.6307C102.222 40.5354 102.448 40.4878 102.647 40.4878L102.309 39.1367C102.084 39.1367 101.837 39.193 101.568 39.3056C101.309 39.4182 101.053 39.5568 100.802 39.7213C100.551 39.8772 100.339 40.0331 100.165 40.189L99.6069 39.1367H98.7235V45.4372H100.412Z" fill="white"/>
<path d="M105.195 45.4372V39.1367H103.494V45.4372H105.195ZM104.338 38.2534C104.598 38.2534 104.819 38.1624 105 37.9806C105.182 37.79 105.273 37.5605 105.273 37.2921C105.273 37.0236 105.178 36.7984 104.987 36.6166C104.806 36.4347 104.585 36.3438 104.325 36.3438C104.065 36.3438 103.844 36.4347 103.662 36.6166C103.481 36.7984 103.39 37.0236 103.39 37.2921C103.39 37.5605 103.481 37.79 103.662 37.9806C103.844 38.1624 104.069 38.2534 104.338 38.2534Z" fill="white"/>
<path d="M106.251 44.9436C106.45 45.0908 106.684 45.2164 106.952 45.3203C107.229 45.4156 107.502 45.4849 107.771 45.5282C108.039 45.5715 108.26 45.5931 108.433 45.5931C109.29 45.5931 109.94 45.4199 110.382 45.0735C110.832 44.7271 111.057 44.2464 111.057 43.6315C111.057 43.2591 110.949 42.9387 110.732 42.6702C110.525 42.3931 110.256 42.1549 109.927 41.9557C109.607 41.7565 109.269 41.6007 108.914 41.4881C108.697 41.4101 108.476 41.3235 108.251 41.2283C108.035 41.1243 107.931 41.0074 107.939 40.8775C107.939 40.7303 108.009 40.6047 108.147 40.5008C108.294 40.3882 108.476 40.3319 108.693 40.3319C108.979 40.3319 109.251 40.3709 109.511 40.4488C109.771 40.5268 110.053 40.6307 110.356 40.7606L110.862 39.6304C110.654 39.4832 110.416 39.3619 110.148 39.2667C109.879 39.1714 109.615 39.0978 109.355 39.0458C109.104 38.9939 108.888 38.9679 108.706 38.9679C107.944 38.9679 107.342 39.1411 106.9 39.4875C106.467 39.8253 106.251 40.2929 106.251 40.8905C106.251 41.2369 106.355 41.5357 106.562 41.7869C106.779 42.038 107.047 42.2502 107.368 42.4234C107.697 42.5879 108.022 42.7265 108.342 42.8391C108.585 42.9084 108.784 42.9863 108.94 43.0729C109.104 43.1595 109.23 43.2548 109.316 43.3587C109.403 43.454 109.446 43.5622 109.446 43.6835C109.446 43.8047 109.386 43.9087 109.264 43.9953C109.152 44.0732 109.018 44.1338 108.862 44.1771C108.706 44.2118 108.554 44.2291 108.407 44.2291C108.251 44.2291 108.082 44.2118 107.9 44.1771C107.727 44.1425 107.545 44.0949 107.355 44.0342C107.164 43.965 106.965 43.8913 106.757 43.8134L106.251 44.9436Z" fill="white"/>
<path d="M117.746 42.7871V42.2675C117.746 41.6699 117.642 41.12 117.434 40.6177C117.235 40.1154 116.923 39.717 116.499 39.4225C116.074 39.1194 115.533 38.9679 114.875 38.9679C114.225 38.9679 113.662 39.1064 113.186 39.3836C112.71 39.652 112.342 40.0374 112.082 40.5397C111.831 41.0334 111.705 41.618 111.705 42.2935C111.705 42.9603 111.839 43.5449 112.108 44.0472C112.376 44.5409 112.779 44.9219 113.316 45.1904C113.862 45.4589 114.541 45.5931 115.355 45.5931C115.719 45.5931 116.04 45.5585 116.317 45.4892C116.603 45.4286 116.858 45.342 117.083 45.2294C117.317 45.1081 117.529 44.9696 117.72 44.8137L117.226 43.5926C116.949 43.7571 116.668 43.8913 116.382 43.9953C116.096 44.0992 115.767 44.1512 115.394 44.1512C114.979 44.1512 114.641 44.0949 114.381 43.9823C114.121 43.8697 113.922 43.7138 113.784 43.5146C113.645 43.3068 113.55 43.0643 113.498 42.7871H117.746ZM113.511 41.6569C113.563 41.3798 113.649 41.1503 113.771 40.9684C113.892 40.7866 114.043 40.648 114.225 40.5527C114.407 40.4575 114.611 40.4098 114.836 40.4098C115.061 40.4098 115.26 40.4575 115.433 40.5527C115.615 40.6393 115.767 40.7736 115.888 40.9554C116.009 41.1373 116.096 41.3712 116.148 41.6569H113.511Z" fill="white"/>
</svg>
