<svg width="125" height="50" viewBox="0 0 125 50" fill="none" xmlns="http://www.w3.org/2000/svg">
<path d="M64.8104 29.9445H59.5145V11.4595H64.5743V13.8544C65.7661 11.9205 67.4415 10.9535 69.6003 10.9535C70.3199 10.9535 71.0845 11.0997 71.8941 11.392L71.4556 16.4518C70.691 16.1819 69.9151 16.047 69.1281 16.047C67.7788 16.047 66.7219 16.508 65.9573 17.43C65.1927 18.3295 64.8104 19.69 64.8104 21.5115V29.9445Z" fill="white"/>
<path d="M76.8743 9.57049C75.9747 9.57049 75.2214 9.27815 74.6142 8.69346C74.0071 8.08629 73.7035 7.33295 73.7035 6.43344C73.7035 5.53392 74.0071 4.79183 74.6142 4.20714C75.2214 3.59997 75.9747 3.29639 76.8743 3.29639C77.7513 3.29639 78.4934 3.59997 79.1005 4.20714C79.7077 4.79183 80.0113 5.53392 80.0113 6.43344C80.0113 7.33295 79.7077 8.08629 79.1005 8.69346C78.4934 9.27815 77.7513 9.57049 76.8743 9.57049ZM79.4716 11.4595V29.9445H74.1757V11.4595H79.4716Z" fill="white"/>
<path d="M88.7586 29.9445H83.4627V11.4595H88.6237V14.0231C89.1184 13.1236 89.883 12.3927 90.9175 11.8305C91.9744 11.2458 93.155 10.9535 94.4593 10.9535C96.4607 10.9535 98.1585 11.6169 99.5528 12.9437C100.947 14.2704 101.644 16.1707 101.644 18.6443V29.9445H96.3483V20.0273C96.3483 18.7006 96.0222 17.6661 95.37 16.924C94.7179 16.1819 93.8409 15.8109 92.739 15.8109C91.5471 15.8109 90.5801 16.2156 89.838 17.0252C89.1184 17.8123 88.7586 18.858 88.7586 20.1623V29.9445Z" fill="white"/>
<path d="M114.508 30.4504C111.584 30.4504 109.189 29.5172 107.323 27.6507C105.479 25.7842 104.557 23.468 104.557 20.702C104.557 17.936 105.479 15.631 107.323 13.787C109.189 11.898 111.584 10.9535 114.508 10.9535C117.453 10.9535 119.86 11.898 121.726 13.787C123.593 15.6534 124.526 17.9585 124.526 20.702C124.526 23.423 123.593 25.7392 121.726 27.6507C119.86 29.5172 117.453 30.4504 114.508 30.4504ZM119.23 20.6682C119.23 19.3415 118.769 18.2171 117.847 17.2951C116.925 16.3506 115.812 15.8783 114.508 15.8783C113.203 15.8783 112.09 16.3506 111.168 17.2951C110.269 18.1946 109.819 19.319 109.819 20.6682C109.819 22.0625 110.269 23.2206 111.168 24.1426C112.09 25.0646 113.203 25.5256 114.508 25.5256C115.812 25.5256 116.925 25.0646 117.847 24.1426C118.769 23.1756 119.23 22.0175 119.23 20.6682Z" fill="white"/>
<path d="M2.38857 24.0576C2.09683 25.3225 1.94831 26.6161 1.9458 27.9142C1.95023 32.8732 3.09258 37.8145 4.33676 41.7286L13.5375 33.8871L2.38857 24.0576Z" fill="#FF9D00"/>
<path d="M22.2955 31.0581V48.4192C22.2955 48.7714 22.4355 49.1093 22.6846 49.3584C22.9337 49.6075 23.2716 49.7475 23.6238 49.7475H29.8226C30.1661 49.7489 30.5025 49.6505 30.791 49.4642C31.0795 49.2779 31.3077 49.0117 31.4476 48.6981C33.2405 44.7719 34.6119 40.6666 35.5388 36.4511L22.2955 31.0581Z" fill="#F94421"/>
<path d="M14.0379 31.5447V11.4385C11.5366 12.2279 9.24755 13.5756 7.3437 15.3797C5.43985 17.1839 3.97105 19.3972 3.04834 21.8524L14.0379 31.5447Z" fill="#FFBC00"/>
<path d="M5.05847 43.8674C5.82447 46.006 6.55504 47.6885 7.01552 48.698C7.15678 49.01 7.38546 49.2743 7.67386 49.459C7.96227 49.6437 8.29803 49.7408 8.64049 49.7385H14.8393C15.1916 49.7385 15.5294 49.5986 15.7785 49.3495C16.0276 49.1004 16.1676 48.7625 16.1676 48.4102V44.899C17.1814 45.0841 18.2098 45.1774 19.2404 45.178C19.5725 45.178 19.9002 45.178 20.2234 45.147V30.9385L5.05847 43.8674Z" fill="#FF7900"/>
<path d="M47.56 9.89341C46.2793 13.8226 43.7198 17.2098 40.2897 19.5148C42.3309 15.7158 41.0779 11.1022 41.0779 11.1022C39.7713 13.0359 38.1663 14.75 36.3225 16.1808C33.6969 13.9669 31.8284 12.1958 29.0168 9.53919C29.5874 9.03886 30.0409 8.41908 30.3451 7.72383C30.9076 6.45478 30.9437 5.01446 30.4457 3.71877C29.9477 2.42308 28.9561 1.37779 27.6885 0.812178L24.868 7.16151C22.7511 6.61677 20.5101 6.83304 18.5364 7.77254L15.437 0.790039C14.452 1.2254 13.6249 1.95356 13.0683 2.87552C12.5117 3.79749 12.2525 4.8685 12.3261 5.94295C12.3996 7.01739 12.8023 8.04311 13.4793 8.88065C14.1563 9.71818 15.0749 10.3269 16.11 10.624V31.6733L20.3783 28.0337L38.4611 35.3926C38.8337 35.5451 39.2409 35.5932 39.6388 35.5316C40.0367 35.4699 40.4102 35.3009 40.7192 35.0428C44.7927 31.6423 50.8764 20.0771 47.56 9.89341ZM27.104 25.8332C26.2504 25.8323 25.4162 25.5784 24.7068 25.1035C23.9975 24.6286 23.4449 23.954 23.1188 23.1651C22.7927 22.3762 22.7079 21.5084 22.8749 20.6712C23.042 19.8341 23.4535 19.0653 24.0574 18.462C24.6614 17.8587 25.4306 17.448 26.2679 17.2818C27.1052 17.1155 27.973 17.2013 28.7615 17.5282C29.5501 17.855 30.2241 18.4084 30.6982 19.1182C31.1724 19.828 31.4255 20.6625 31.4255 21.5161C31.4231 22.6603 30.9667 23.7568 30.1564 24.5646C29.3461 25.3724 28.2482 25.8255 27.104 25.8243V25.8332ZM38.7843 31.6335C38.1512 32.2135 37.3542 32.3773 37.0132 31.9965C36.6723 31.6157 36.9025 30.8409 37.5357 30.2609C38.1689 29.6808 38.9659 29.517 39.3068 29.8978C39.6477 30.2786 39.4219 31.0446 38.7843 31.6246V31.6335Z" fill="#FF9D00"/>
<path d="M27.1042 25.8333C26.2506 25.8324 25.4164 25.5784 24.707 25.1036C23.9977 24.6287 23.445 23.9541 23.119 23.1652C22.7929 22.3763 22.708 21.5084 22.8751 20.6713C23.0422 19.8342 23.4537 19.0654 24.0576 18.4621C24.6615 17.8588 25.4308 17.4481 26.2681 17.2818C27.1054 17.1156 27.9731 17.2014 28.7617 17.5283C29.5503 17.8551 30.2242 18.4085 30.6984 19.1183C31.1726 19.8281 31.4257 20.6626 31.4257 21.5162C31.4233 22.6604 30.9668 23.7569 30.1565 24.5647C29.3462 25.3725 28.2484 25.8256 27.1042 25.8244V25.8333Z" fill="white"/>
<path d="M29.8094 19.8339C29.8386 19.9228 29.8564 20.015 29.8626 20.1084C29.8626 20.3179 29.8004 20.5226 29.6839 20.6968C29.5674 20.8709 29.4019 21.0065 29.2083 21.0865C29.0147 21.1664 28.8017 21.1871 28.5963 21.1459C28.3909 21.1047 28.2023 21.0035 28.0545 20.8551C27.9067 20.7066 27.8063 20.5177 27.7659 20.3121C27.7256 20.1065 27.7472 19.8936 27.828 19.7003C27.9087 19.5071 28.0451 19.3421 28.2197 19.2263C28.3943 19.1106 28.5993 19.0493 28.8088 19.0502C28.9349 19.0525 29.0594 19.078 29.1763 19.1254C28.661 18.7267 28.0153 18.5349 27.3659 18.5877C26.7165 18.6405 26.1103 18.934 25.6661 19.4108C25.222 19.8875 24.9721 20.513 24.9653 21.1645C24.9586 21.816 25.1956 22.4465 25.6298 22.9323C26.064 23.4181 26.664 23.7241 27.3122 23.7903C27.9603 23.8565 28.6099 23.6781 29.1333 23.2901C29.6567 22.902 30.0162 22.3324 30.1413 21.693C30.2664 21.0536 30.148 20.3905 29.8094 19.8339Z" fill="#413F54"/>
<path d="M58.907 37.1293C58.907 35.4075 60.2769 34.0117 61.9667 34.0117H121.463C123.153 34.0117 124.523 35.4075 124.523 37.1293V44.3941C124.523 46.1159 123.153 47.5117 121.463 47.5117H61.9667C60.2769 47.5117 58.907 46.1159 58.907 44.3941V37.1293Z" fill="#1271E1"/>
<path d="M68.2002 41.5615V41.0286C68.2002 40.4157 68.0943 39.8517 67.8825 39.3365C67.6796 38.8213 67.362 38.4128 66.9297 38.1108C66.4974 37.7999 65.946 37.6444 65.2755 37.6444C64.6138 37.6444 64.0403 37.7866 63.5551 38.0708C63.0698 38.3461 62.6948 38.7414 62.4302 39.2566C62.1743 39.7629 62.0464 40.3624 62.0464 41.0552C62.0464 41.7392 62.1831 42.3387 62.4566 42.8539C62.7301 43.3602 63.1404 43.751 63.6874 44.0263C64.2432 44.3017 64.9358 44.4394 65.7651 44.4394C66.1357 44.4394 66.4621 44.4038 66.7444 44.3328C67.0356 44.2706 67.2958 44.1818 67.5252 44.0663C67.7634 43.942 67.9796 43.7998 68.1737 43.64L67.6708 42.3876C67.3885 42.5563 67.1017 42.694 66.8106 42.8006C66.5194 42.9072 66.1842 42.9605 65.8048 42.9605C65.3813 42.9605 65.0373 42.9027 64.7726 42.7873C64.5079 42.6718 64.305 42.5119 64.1638 42.3076C64.0227 42.0945 63.9256 41.8458 63.8727 41.5615H68.2002ZM63.8859 40.4024C63.9388 40.1182 64.0271 39.8828 64.1506 39.6962C64.2741 39.5097 64.4285 39.3676 64.6138 39.2699C64.799 39.1722 65.0064 39.1233 65.2358 39.1233C65.4651 39.1233 65.6681 39.1722 65.8445 39.2699C66.0298 39.3587 66.1842 39.4964 66.3077 39.6829C66.4312 39.8695 66.5194 40.1093 66.5724 40.4024H63.8859Z" fill="white"/>
<path d="M70.9746 44.2795V39.8162C71.1246 39.7096 71.2878 39.5941 71.4643 39.4698C71.6496 39.3454 71.8481 39.2433 72.0598 39.1633C72.2716 39.0834 72.4833 39.0434 72.695 39.0434C72.9774 39.0434 73.2023 39.15 73.37 39.3632C73.5376 39.5763 73.6214 39.8917 73.6214 40.3091V44.2795H75.3418V40.2292C75.3418 39.7318 75.2756 39.2877 75.1433 38.8968C75.0198 38.4971 74.7992 38.1818 74.4816 37.9509C74.1728 37.7199 73.7273 37.6045 73.145 37.6045C72.9156 37.6045 72.6597 37.64 72.3774 37.7111C72.1039 37.7732 71.8172 37.8754 71.5172 38.0175C71.2261 38.1507 70.9437 38.3106 70.6702 38.4971L70.3791 37.8177H69.2542V44.2795H70.9746Z" fill="white"/>
<path d="M79.8994 37.8443H78.7348V35.9923L77.0276 36.2988V37.8443H76.1674L76.1542 39.15H77.0276V42.2144C77.0276 42.7118 77.1335 43.1337 77.3452 43.4801C77.5569 43.8265 77.8481 44.093 78.2186 44.2795C78.598 44.4571 79.0524 44.546 79.5817 44.546C79.7229 44.546 79.8773 44.5238 80.0449 44.4793C80.2126 44.4438 80.3714 44.395 80.5213 44.3328C80.6713 44.2795 80.7904 44.2173 80.8787 44.1463L80.3758 42.8939C80.2523 42.9472 80.1332 42.9871 80.0185 43.0138C79.9038 43.0404 79.7891 43.0537 79.6744 43.0537C79.3656 43.0537 79.1318 42.9472 78.973 42.734C78.8142 42.5208 78.7348 42.2455 78.7348 41.9079V39.15H80.4287L79.8994 37.8443Z" fill="white"/>
<path d="M87.5599 41.5615V41.0286C87.5599 40.4157 87.4541 39.8517 87.2423 39.3365C87.0394 38.8213 86.7218 38.4128 86.2895 38.1108C85.8572 37.7999 85.3057 37.6444 84.6352 37.6444C83.9735 37.6444 83.4001 37.7866 82.9148 38.0708C82.4296 38.3461 82.0546 38.7414 81.7899 39.2566C81.5341 39.7629 81.4062 40.3624 81.4062 41.0552C81.4062 41.7392 81.5429 42.3387 81.8164 42.8539C82.0899 43.3602 82.5002 43.751 83.0472 44.0263C83.603 44.3017 84.2956 44.4394 85.1249 44.4394C85.4954 44.4394 85.8219 44.4038 86.1042 44.3328C86.3953 44.2706 86.6556 44.1818 86.885 44.0663C87.1232 43.942 87.3394 43.7998 87.5335 43.64L87.0306 42.3876C86.7482 42.5563 86.4615 42.694 86.1704 42.8006C85.8792 42.9072 85.544 42.9605 85.1646 42.9605C84.7411 42.9605 84.397 42.9027 84.1323 42.7873C83.8677 42.6718 83.6647 42.5119 83.5236 42.3076C83.3824 42.0945 83.2854 41.8458 83.2324 41.5615H87.5599ZM83.2457 40.4024C83.2986 40.1182 83.3868 39.8828 83.5103 39.6962C83.6339 39.5097 83.7883 39.3676 83.9735 39.2699C84.1588 39.1722 84.3661 39.1233 84.5955 39.1233C84.8249 39.1233 85.0278 39.1722 85.2043 39.2699C85.3896 39.3587 85.544 39.4964 85.6675 39.6829C85.791 39.8695 85.8792 40.1093 85.9322 40.4024H83.2457Z" fill="white"/>
<path d="M90.3344 44.2795V40.3358C90.5814 40.1137 90.8417 39.9183 91.1152 39.7495C91.3975 39.5808 91.6666 39.4475 91.9225 39.3498C92.1783 39.2521 92.4077 39.2033 92.6106 39.2033L92.2665 37.8177C92.0372 37.8177 91.7857 37.8754 91.5122 37.9909C91.2475 38.1063 90.9873 38.2484 90.7314 38.4172C90.4756 38.5771 90.2594 38.737 90.0829 38.8968L89.5139 37.8177H88.614V44.2795H90.3344Z" fill="white"/>
<path d="M95.2599 47.0641V38.8702L94.4262 37.8177H93.5527V47.1973L95.2599 47.0641ZM94.6776 39.976C94.9864 39.6918 95.2731 39.4786 95.5378 39.3365C95.8025 39.1944 96.0892 39.1233 96.398 39.1233C96.7333 39.1233 97.0112 39.2077 97.2317 39.3765C97.4523 39.5364 97.6199 39.7584 97.7346 40.0427C97.8493 40.318 97.9067 40.6422 97.9067 41.0153C97.9067 41.3794 97.8493 41.7125 97.7346 42.0145C97.6288 42.3076 97.4611 42.5386 97.2317 42.7073C97.0024 42.8761 96.7244 42.9605 96.398 42.9605C96.098 42.9605 95.8113 42.8983 95.5378 42.7739C95.2643 42.6407 94.9776 42.4009 94.6776 42.0545L94.1879 43.2269C94.3203 43.4312 94.51 43.6266 94.757 43.8132C95.004 43.9997 95.2731 44.1507 95.5643 44.2662C95.8642 44.3816 96.1422 44.4394 96.398 44.4394C97.1038 44.4394 97.6993 44.2973 98.1846 44.013C98.6698 43.7199 99.0404 43.3202 99.2962 42.8139C99.5609 42.2987 99.6933 41.6992 99.6933 41.0153C99.6933 40.3313 99.5609 39.7362 99.2962 39.2299C99.0404 38.7236 98.6698 38.3328 98.1846 38.0575C97.7082 37.7821 97.1347 37.6444 96.4642 37.6444C96.1642 37.6444 95.8775 37.6933 95.604 37.791C95.3305 37.8887 95.0746 38.0264 94.8364 38.204C94.607 38.3817 94.3909 38.5948 94.1879 38.8436L94.6776 39.976Z" fill="white"/>
<path d="M102.47 44.2795V40.3358C102.717 40.1137 102.977 39.9183 103.251 39.7495C103.533 39.5808 103.802 39.4475 104.058 39.3498C104.314 39.2521 104.543 39.2033 104.746 39.2033L104.402 37.8177C104.173 37.8177 103.921 37.8754 103.648 37.9909C103.383 38.1063 103.123 38.2484 102.867 38.4172C102.611 38.5771 102.395 38.737 102.218 38.8968L101.649 37.8177H100.749V44.2795H102.47Z" fill="white"/>
<path d="M107.342 44.2795V37.8177H105.609V44.2795H107.342ZM106.469 36.9117C106.734 36.9117 106.959 36.8184 107.144 36.6319C107.329 36.4365 107.422 36.2011 107.422 35.9257C107.422 35.6504 107.325 35.4194 107.131 35.2329C106.945 35.0464 106.72 34.9531 106.456 34.9531C106.191 34.9531 105.966 35.0464 105.781 35.2329C105.595 35.4194 105.503 35.6504 105.503 35.9257C105.503 36.2011 105.595 36.4365 105.781 36.6319C105.966 36.8184 106.195 36.9117 106.469 36.9117Z" fill="white"/>
<path d="M108.417 43.7732C108.62 43.9242 108.859 44.053 109.132 44.1596C109.414 44.2573 109.692 44.3283 109.966 44.3728C110.239 44.4172 110.464 44.4394 110.641 44.4394C111.514 44.4394 112.176 44.2617 112.626 43.9064C113.085 43.5511 113.314 43.0582 113.314 42.4275C113.314 42.0456 113.204 41.717 112.983 41.4416C112.771 41.1574 112.498 40.9131 112.163 40.7088C111.836 40.5045 111.492 40.3447 111.13 40.2292C110.91 40.1492 110.685 40.0604 110.455 39.9627C110.235 39.8561 110.129 39.7362 110.138 39.603C110.138 39.452 110.208 39.3232 110.35 39.2166C110.5 39.1011 110.685 39.0434 110.905 39.0434C111.197 39.0434 111.474 39.0834 111.739 39.1633C112.004 39.2433 112.291 39.3498 112.599 39.4831L113.115 38.3239C112.904 38.1729 112.661 38.0486 112.388 37.9509C112.114 37.8532 111.845 37.7777 111.58 37.7244C111.324 37.6711 111.104 37.6444 110.919 37.6444C110.142 37.6444 109.529 37.8221 109.079 38.1774C108.638 38.5238 108.417 39.0034 108.417 39.6163C108.417 39.9716 108.523 40.278 108.735 40.5356C108.956 40.7932 109.229 41.0108 109.556 41.1885C109.891 41.3572 110.222 41.4993 110.548 41.6148C110.795 41.6859 110.998 41.7658 111.157 41.8546C111.324 41.9435 111.452 42.0412 111.541 42.1477C111.629 42.2455 111.673 42.3565 111.673 42.4808C111.673 42.6052 111.611 42.7118 111.488 42.8006C111.373 42.8805 111.236 42.9427 111.077 42.9871C110.919 43.0227 110.764 43.0404 110.614 43.0404C110.455 43.0404 110.283 43.0227 110.098 42.9871C109.922 42.9516 109.736 42.9027 109.542 42.8406C109.348 42.7695 109.145 42.694 108.934 42.6141L108.417 43.7732Z" fill="white"/>
<path d="M120.128 41.5615V41.0286C120.128 40.4157 120.022 39.8517 119.81 39.3365C119.607 38.8213 119.29 38.4128 118.857 38.1108C118.425 37.7999 117.874 37.6444 117.203 37.6444C116.541 37.6444 115.968 37.7866 115.483 38.0708C114.997 38.3461 114.622 38.7414 114.358 39.2566C114.102 39.7629 113.974 40.3624 113.974 41.0552C113.974 41.7392 114.111 42.3387 114.384 42.8539C114.658 43.3602 115.068 43.751 115.615 44.0263C116.171 44.3017 116.863 44.4394 117.693 44.4394C118.063 44.4394 118.39 44.4038 118.672 44.3328C118.963 44.2706 119.223 44.1818 119.453 44.0663C119.691 43.942 119.907 43.7998 120.101 43.64L119.598 42.3876C119.316 42.5563 119.029 42.694 118.738 42.8006C118.447 42.9072 118.112 42.9605 117.732 42.9605C117.309 42.9605 116.965 42.9027 116.7 42.7873C116.435 42.6718 116.233 42.5119 116.091 42.3076C115.95 42.0945 115.853 41.8458 115.8 41.5615H120.128ZM115.814 40.4024C115.866 40.1182 115.955 39.8828 116.078 39.6962C116.202 39.5097 116.356 39.3676 116.541 39.2699C116.727 39.1722 116.934 39.1233 117.163 39.1233C117.393 39.1233 117.596 39.1722 117.772 39.2699C117.957 39.3587 118.112 39.4964 118.235 39.6829C118.359 39.8695 118.447 40.1093 118.5 40.4024H115.814Z" fill="white"/>
<path d="M3.356 21.0869L36.1138 34.4362C36.1138 34.4362 35.2222 37.9359 34.7418 39.6626C34.2615 41.3893 33.9869 42.1988 33.9869 42.1988L1.97142 29.1452C1.97142 29.1452 1.80735 27.4271 2.16611 25.1742C2.52486 22.9213 3.356 21.0869 3.356 21.0869Z" fill="#A31D03"/>
<path d="M4.80523 28.5052C4.48172 28.3719 4.20996 28.1816 3.98997 27.9343C3.76998 27.687 3.62689 27.4062 3.56072 27.0918L4.27162 26.7127C4.38892 27.2091 4.67441 27.5508 5.12806 27.7378C5.29911 27.8083 5.45727 27.8256 5.60255 27.7898C5.74782 27.754 5.84728 27.671 5.90092 27.5408C5.97142 27.3698 5.90586 27.1753 5.70424 26.9573C5.68062 26.9302 5.56712 26.8203 5.36373 26.6277C5.20474 26.4752 5.07364 26.3342 4.97043 26.2046C4.63805 25.7762 4.56152 25.3444 4.74084 24.9093C4.88338 24.5635 5.13154 24.3308 5.48533 24.2113C5.84436 24.0896 6.23026 24.1138 6.64301 24.2839C7.17848 24.5046 7.55364 24.8767 7.76851 25.4003L7.07958 25.8211C7.01707 25.6561 6.91594 25.5057 6.77619 25.3698C6.6417 25.2317 6.49451 25.1297 6.33461 25.0638C6.171 24.9963 6.02552 24.9799 5.89819 25.0144C5.77611 25.0467 5.69054 25.1224 5.6415 25.2414C5.57559 25.4013 5.63121 25.583 5.80834 25.7865L6.14194 26.1328C6.33264 26.3245 6.47009 26.466 6.55428 26.5573C6.92932 26.9772 7.02258 27.4159 6.83406 27.8732C6.68233 28.2414 6.41874 28.4851 6.0433 28.6044C5.66785 28.7237 5.25516 28.6907 4.80523 28.5052Z" fill="white"/>
<path d="M7.74274 29.6377L9.11293 26.3133L7.93603 25.8282L8.26478 25.0306L11.4553 26.3456L11.1265 27.1433L9.94959 26.6582L8.5794 29.9825L7.74274 29.6377Z" fill="white"/>
<path d="M13.283 31.9212L12.4128 31.5625L12.4739 30.5437L11.0348 29.9505L10.3491 30.7119L9.48452 30.3556L12.7564 26.8819L13.4313 27.1601L13.283 31.9212ZM12.5431 29.7108L12.629 28.141L11.5726 29.3108L12.5431 29.7108Z" fill="white"/>
<path d="M15.5165 32.9136C14.8955 32.6576 14.4625 32.2464 14.2174 31.6799C13.9814 31.1128 13.9898 30.5225 14.2427 29.9089C14.4986 29.2879 14.9176 28.8624 15.4996 28.6325C16.0816 28.4026 16.6831 28.4156 17.3041 28.6715C17.6313 28.8064 17.9165 28.9957 18.1597 29.2395C18.4081 29.4811 18.585 29.7433 18.6904 30.0259L17.9056 30.3942C17.7242 29.9583 17.4141 29.65 16.9753 29.4691C16.5923 29.3113 16.2223 29.3067 15.8652 29.4553C15.5081 29.6039 15.2506 29.8698 15.0928 30.2528C14.938 30.6283 14.9304 30.995 15.0701 31.3527C15.2172 31.7135 15.4822 31.9728 15.8653 32.1307C16.0735 32.2165 16.2922 32.261 16.5215 32.2642C16.7523 32.2636 16.9622 32.224 17.1513 32.1453L17.3835 31.5819L16.2456 31.1129L16.5422 30.3934L18.433 31.1727L17.7341 32.8684C16.9845 33.1989 16.2453 33.214 15.5165 32.9136Z" fill="white"/>
<path d="M20.9386 35.0766L18.1442 33.9248L19.8431 29.8029L22.6376 30.9547L22.3203 31.7244L20.357 30.9152L19.9914 31.802L21.8098 32.5515L21.4925 33.3212L19.6742 32.5717L19.2925 33.4977L21.2559 34.3069L20.9386 35.0766Z" fill="white"/>
<path d="M25.0436 34.9284L26.0942 32.3794L26.9086 32.715L25.2096 36.837L24.6463 36.6048L23.5514 33.1976L22.51 35.7243L21.6956 35.3886L23.3946 31.2667L23.9189 31.4828L25.0436 34.9284Z" fill="white"/>
<path d="M28.9185 38.3657L26.1241 37.2139L27.823 33.0919L30.6175 34.2437L30.3002 35.0135L28.3368 34.2042L27.9713 35.0911L29.7896 35.8406L29.4724 36.6103L27.654 35.8608L27.2724 36.7867L29.2358 37.596L28.9185 38.3657Z" fill="white"/>
<path d="M30.4731 39.0065L31.8433 35.6821L30.6664 35.197L30.9952 34.3994L34.1856 35.7144L33.8569 36.5121L32.68 36.027L31.3098 39.3513L30.4731 39.0065Z" fill="white"/>
</svg>
