<svg width="129" height="48" viewBox="0 0 129 48" fill="none" xmlns="http://www.w3.org/2000/svg">
<path d="M1.22223 22.8196C0.936818 24.057 0.791516 25.3226 0.789062 26.5925C0.793394 31.4439 1.91096 36.278 3.12816 40.1072L12.1293 32.4359L1.22223 22.8196Z" fill="#FF9D00"/>
<path d="M20.6973 29.6681V46.6525C20.6973 46.9972 20.8342 47.3277 21.0779 47.5714C21.3216 47.8151 21.6521 47.952 21.9968 47.952H28.0611C28.3971 47.9535 28.7262 47.8572 29.0085 47.6749C29.2907 47.4926 29.5139 47.2322 29.6508 46.9254C31.4048 43.0844 32.7465 39.0681 33.6532 34.9441L20.6973 29.6681Z" fill="#F94421"/>
<path d="M12.6184 30.1444V10.4744C10.1713 11.2467 7.93192 12.5651 6.06937 14.3301C4.20681 16.0951 2.76988 18.2605 1.86719 20.6624L12.6184 30.1444Z" fill="#FFBC00"/>
<path d="M3.83398 42.1996C4.58336 44.2918 5.29808 45.9378 5.74858 46.9254C5.88677 47.2306 6.11049 47.4892 6.39264 47.6699C6.67479 47.8506 7.00327 47.9456 7.3383 47.9434H13.4026C13.7473 47.9434 14.0778 47.8065 14.3215 47.5628C14.5652 47.3191 14.7021 46.9885 14.7021 46.6439V43.2089C15.694 43.3899 16.7001 43.4812 17.7083 43.4818C18.0332 43.4818 18.3537 43.4818 18.6699 43.4514V29.5511L3.83398 42.1996Z" fill="#FF7900"/>
<path d="M45.4137 8.96265C44.1608 12.8066 41.6568 16.1203 38.3011 18.3753C40.298 14.6588 39.0722 10.1452 39.0722 10.1452C37.794 12.037 36.2237 13.7139 34.42 15.1136C31.8513 12.9478 30.0234 11.2151 27.2728 8.61612C27.831 8.12664 28.2746 7.52031 28.5722 6.84014C29.1225 5.59862 29.1579 4.18954 28.6707 2.92196C28.1835 1.65438 27.2134 0.631768 25.9733 0.078421L23.214 6.29002C21.143 5.75709 18.9506 5.96867 17.0197 6.88779L13.9876 0.0567627C13.0239 0.482675 12.2148 1.19504 11.6702 2.09701C11.1257 2.99897 10.8722 4.04675 10.9441 5.09789C11.016 6.14902 11.41 7.15249 12.0723 7.97186C12.7346 8.79123 13.6333 9.38672 14.646 9.67737V30.2701L18.8217 26.7095L36.5122 33.9087C36.8767 34.0579 37.275 34.1049 37.6643 34.0446C38.0536 33.9843 38.419 33.819 38.7213 33.5665C42.7064 30.2398 48.6581 18.9255 45.4137 8.96265ZM25.4015 24.5566C24.5664 24.5558 23.7502 24.3073 23.0563 23.8428C22.3623 23.3782 21.8217 22.7183 21.5027 21.9465C21.1837 21.1747 21.1007 20.3256 21.2641 19.5067C21.4276 18.6877 21.8301 17.9356 22.421 17.3454C23.0118 16.7551 23.7643 16.3533 24.5835 16.1907C25.4026 16.0281 26.2515 16.112 27.023 16.4318C27.7945 16.7516 28.4538 17.2929 28.9177 17.9873C29.3816 18.6818 29.6292 19.4981 29.6292 20.3333C29.6269 21.4526 29.1803 22.5253 28.3876 23.3156C27.5949 24.1058 26.5208 24.5491 25.4015 24.548V24.5566ZM36.8284 30.2311C36.209 30.7985 35.4293 30.9588 35.0957 30.5863C34.7622 30.2138 34.9874 29.4557 35.6069 28.8883C36.2263 28.3208 37.006 28.1606 37.3395 28.5331C37.6731 28.9056 37.4521 29.655 36.8284 30.2224V30.2311Z" fill="#FF9D00"/>
<path d="M25.4017 24.5566C24.5665 24.5557 23.7504 24.3073 23.0565 23.8427C22.3625 23.3781 21.8219 22.7182 21.5029 21.9464C21.1839 21.1746 21.1009 20.3256 21.2643 19.5066C21.4277 18.6877 21.8303 17.9355 22.4211 17.3453C23.012 16.7551 23.7645 16.3533 24.5836 16.1907C25.4028 16.0281 26.2517 16.112 27.0232 16.4318C27.7947 16.7515 28.454 17.2929 28.9179 17.9873C29.3818 18.6817 29.6293 19.4981 29.6293 20.3332C29.6271 21.4526 29.1805 22.5252 28.3878 23.3155C27.595 24.1058 26.521 24.5491 25.4017 24.5479V24.5566Z" fill="white"/>
<path d="M28.0477 18.6873C28.0763 18.7742 28.0937 18.8645 28.0997 18.9558C28.0997 19.1608 28.0389 19.3611 27.9249 19.5314C27.811 19.7018 27.649 19.8345 27.4596 19.9127C27.2702 19.9909 27.0618 20.0112 26.8609 19.9709C26.6599 19.9306 26.4755 19.8315 26.3309 19.6863C26.1863 19.5411 26.088 19.3562 26.0486 19.1551C26.0091 18.954 26.0302 18.7457 26.1092 18.5566C26.1883 18.3675 26.3216 18.2062 26.4924 18.0929C26.6633 17.9797 26.8638 17.9197 27.0688 17.9206C27.1921 17.9228 27.314 17.9478 27.4283 17.9942C26.9242 17.6041 26.2925 17.4165 25.6572 17.4681C25.0219 17.5198 24.4288 17.807 23.9943 18.2733C23.5598 18.7397 23.3153 19.3516 23.3087 19.989C23.3021 20.6264 23.534 21.2432 23.9587 21.7185C24.3835 22.1937 24.9705 22.4931 25.6046 22.5578C26.2388 22.6226 26.8742 22.4481 27.3862 22.0685C27.8983 21.6889 28.25 21.1316 28.3724 20.5061C28.4948 19.8805 28.379 19.2318 28.0477 18.6873Z" fill="#413F54"/>
<path d="M65.181 28.07H60V9.986H64.95V12.329C66.116 10.437 67.755 9.491 69.867 9.491C70.571 9.491 71.319 9.634 72.111 9.92L71.682 14.87C70.934 14.606 70.175 14.474 69.405 14.474C68.085 14.474 67.051 14.925 66.303 15.827C65.555 16.707 65.181 18.038 65.181 19.82V28.07Z" fill="white"/>
<path d="M76.9831 8.138C76.1031 8.138 75.3661 7.852 74.7721 7.28C74.1781 6.686 73.8811 5.949 73.8811 5.069C73.8811 4.189 74.1781 3.463 74.7721 2.891C75.3661 2.297 76.1031 2 76.9831 2C77.8411 2 78.5671 2.297 79.1611 2.891C79.7551 3.463 80.0521 4.189 80.0521 5.069C80.0521 5.949 79.7551 6.686 79.1611 7.28C78.5671 7.852 77.8411 8.138 76.9831 8.138ZM79.5241 9.986V28.07H74.3431V9.986H79.5241Z" fill="white"/>
<path d="M88.6097 28.07H83.4287V9.986H88.4777V12.494C88.9617 11.614 89.7097 10.899 90.7217 10.349C91.7557 9.777 92.9107 9.491 94.1867 9.491C96.1447 9.491 97.8057 10.14 99.1697 11.438C100.534 12.736 101.216 14.595 101.216 17.015V28.07H96.0347V18.368C96.0347 17.07 95.7157 16.058 95.0777 15.332C94.4397 14.606 93.5817 14.243 92.5037 14.243C91.3377 14.243 90.3917 14.639 89.6657 15.431C88.9617 16.201 88.6097 17.224 88.6097 18.5V28.07Z" fill="white"/>
<path d="M113.8 28.565C110.94 28.565 108.597 27.652 106.771 25.826C104.967 24 104.065 21.734 104.065 19.028C104.065 16.322 104.967 14.067 106.771 12.263C108.597 10.415 110.94 9.491 113.8 9.491C116.682 9.491 119.036 10.415 120.862 12.263C122.688 14.089 123.601 16.344 123.601 19.028C123.601 21.69 122.688 23.956 120.862 25.826C119.036 27.652 116.682 28.565 113.8 28.565ZM118.42 18.995C118.42 17.697 117.969 16.597 117.067 15.695C116.165 14.771 115.076 14.309 113.8 14.309C112.524 14.309 111.435 14.771 110.533 15.695C109.653 16.575 109.213 17.675 109.213 18.995C109.213 20.359 109.653 21.492 110.533 22.394C111.435 23.296 112.524 23.747 113.8 23.747C115.076 23.747 116.165 23.296 117.067 22.394C117.969 21.448 118.42 20.315 118.42 18.995Z" fill="white"/>
<path d="M62.4439 44.7959C61.1186 44.7959 60.0686 44.3059 59.2939 43.3259L60.3439 42.0799C60.6146 42.4066 60.9366 42.6679 61.3099 42.8639C61.6926 43.0506 62.0753 43.1439 62.4579 43.1439C62.7566 43.1439 63.0039 43.0739 63.1999 42.9339C63.4053 42.7939 63.5079 42.6166 63.5079 42.4019C63.5079 42.1313 63.3259 41.9119 62.9619 41.7439C62.8499 41.6973 62.5466 41.5806 62.0519 41.3939C61.6133 41.2353 61.2866 41.0999 61.0719 40.9879C60.1946 40.5679 59.7559 39.9099 59.7559 39.0139C59.7559 38.3513 60.0173 37.8006 60.5399 37.3619C61.0533 36.9326 61.7439 36.7179 62.6119 36.7179C63.6946 36.7179 64.5859 37.0819 65.2859 37.8099L64.3059 39.0839C63.7739 38.5799 63.1906 38.3279 62.5559 38.3279C62.3039 38.3279 62.0939 38.3933 61.9259 38.5239C61.7673 38.6453 61.6879 38.7946 61.6879 38.9719C61.6879 39.2893 61.9119 39.5226 62.3599 39.6719C63.3586 40.0453 63.9699 40.2926 64.1939 40.4139C65.0526 40.8619 65.4819 41.5059 65.4819 42.3459C65.4819 43.0646 65.2019 43.6526 64.6419 44.1099C64.1006 44.5673 63.3679 44.7959 62.4439 44.7959Z" fill="#F94421"/>
<path d="M71.6462 42.5979L72.2342 44.1519C71.5995 44.5719 70.8482 44.7819 69.9802 44.7819C69.1029 44.7819 68.4402 44.5299 67.9922 44.0259C67.5442 43.5126 67.3202 42.7613 67.3202 41.7719V38.6219H66.0742V36.9699H67.3342V34.2679H69.2942V36.9699H71.8142V38.6219H69.2942V41.6459C69.2942 42.5419 69.6535 42.9899 70.3722 42.9899C70.7642 42.9899 71.1889 42.8593 71.6462 42.5979Z" fill="#F94421"/>
<path d="M78.872 37.8799V36.9699H80.748V44.5999H78.872V43.7179C78.2186 44.4273 77.4066 44.7819 76.436 44.7819C75.3346 44.7819 74.4293 44.3993 73.72 43.6339C73.0106 42.8686 72.656 41.9073 72.656 40.7499C72.656 39.6019 73.0153 38.6546 73.734 37.9079C74.4526 37.1519 75.3533 36.7739 76.436 36.7739C77.388 36.7739 78.2 37.1426 78.872 37.8799ZM78.9 40.7779C78.9 40.1806 78.6946 39.6626 78.284 39.2239C77.8826 38.7946 77.374 38.5799 76.758 38.5799C76.1326 38.5799 75.6193 38.7946 75.218 39.2239C74.826 39.6533 74.63 40.1713 74.63 40.7779C74.63 41.3939 74.8306 41.9166 75.232 42.3459C75.6333 42.7753 76.142 42.9899 76.758 42.9899C77.374 42.9899 77.8826 42.7753 78.284 42.3459C78.6946 41.9073 78.9 41.3846 78.9 40.7779Z" fill="#F94421"/>
<path d="M88.3609 37.8099V36.9699H90.1809V43.8439C90.1809 45.0759 89.7889 46.0466 89.0049 46.7559C88.2116 47.4746 87.1942 47.8339 85.9529 47.8339C84.6369 47.8339 83.4702 47.4653 82.4529 46.7279L83.2229 45.2439C84.1002 45.8413 84.9916 46.1399 85.8969 46.1399C86.6342 46.1399 87.2129 45.9439 87.6329 45.5519C88.0622 45.1599 88.2769 44.6513 88.2769 44.0259V43.6339C87.6889 44.2873 86.9049 44.6139 85.9249 44.6139C84.8049 44.6139 83.8902 44.2453 83.1809 43.5079C82.4716 42.7706 82.1169 41.8373 82.1169 40.7079C82.1169 39.5786 82.4902 38.6406 83.2369 37.8939C83.9836 37.1473 84.9076 36.7739 86.0089 36.7739C86.9422 36.7739 87.7262 37.1193 88.3609 37.8099ZM84.1049 40.7219C84.1049 41.3566 84.3056 41.8746 84.7069 42.2759C85.1176 42.6866 85.6216 42.8919 86.2189 42.8919C86.8162 42.8919 87.3202 42.6866 87.7309 42.2759C88.1322 41.8653 88.3329 41.3473 88.3329 40.7219C88.3329 40.1059 88.1322 39.5973 87.7309 39.1959C87.3202 38.7853 86.8162 38.5799 86.2189 38.5799C85.6216 38.5799 85.1176 38.7853 84.7069 39.1959C84.3056 39.5973 84.1049 40.1059 84.1049 40.7219Z" fill="#F94421"/>
<path d="M99.3762 40.6099C99.3762 40.8433 99.3528 41.1326 99.3062 41.4779H93.5802C93.8602 42.5606 94.6022 43.1019 95.8062 43.1019C96.6928 43.1019 97.5142 42.8453 98.2702 42.3319L99.0542 43.7179C98.0835 44.4179 96.9728 44.7679 95.7222 44.7679C94.3875 44.7679 93.3608 44.3806 92.6422 43.6059C91.9328 42.8406 91.5782 41.8979 91.5782 40.7779C91.5782 39.6113 91.9468 38.6546 92.6842 37.9079C93.4215 37.1519 94.3782 36.7739 95.5542 36.7739C96.6648 36.7739 97.5795 37.1193 98.2982 37.8099C99.0168 38.5006 99.3762 39.4339 99.3762 40.6099ZM95.5542 38.4119C95.0595 38.4119 94.6348 38.5566 94.2802 38.8459C93.9348 39.1259 93.7015 39.5133 93.5802 40.0079H97.4582C97.3648 39.5133 97.1502 39.1259 96.8142 38.8459C96.4782 38.5566 96.0582 38.4119 95.5542 38.4119Z" fill="#F94421"/>
<path d="M102.708 44.5999H100.734V36.9699H102.666V38.0339C102.871 37.6513 103.189 37.3433 103.618 37.1099C104.047 36.8766 104.528 36.7599 105.06 36.7599C105.891 36.7599 106.595 37.0353 107.174 37.5859C107.753 38.1366 108.042 38.9206 108.042 39.9379V44.5999H106.068V40.4699C106.068 39.8726 105.923 39.4106 105.634 39.0839C105.345 38.7479 104.953 38.5799 104.458 38.5799C103.935 38.5799 103.511 38.7619 103.184 39.1259C102.867 39.4806 102.708 39.9426 102.708 40.5119V44.5999Z" fill="#F94421"/>
<path d="M117.136 40.6099C117.136 40.8433 117.113 41.1326 117.066 41.4779H111.34C111.62 42.5606 112.362 43.1019 113.566 43.1019C114.453 43.1019 115.274 42.8453 116.03 42.3319L116.814 43.7179C115.843 44.4179 114.733 44.7679 113.482 44.7679C112.147 44.7679 111.121 44.3806 110.402 43.6059C109.693 42.8406 109.338 41.8979 109.338 40.7779C109.338 39.6113 109.707 38.6546 110.444 37.9079C111.181 37.1519 112.138 36.7739 113.314 36.7739C114.425 36.7739 115.339 37.1193 116.058 37.8099C116.777 38.5006 117.136 39.4339 117.136 40.6099ZM113.314 38.4119C112.819 38.4119 112.395 38.5566 112.04 38.8459C111.695 39.1259 111.461 39.5133 111.34 40.0079H115.218C115.125 39.5133 114.91 39.1259 114.574 38.8459C114.238 38.5566 113.818 38.4119 113.314 38.4119Z" fill="#F94421"/>
<path d="M123.312 42.5979L123.9 44.1519C123.266 44.5719 122.514 44.7819 121.646 44.7819C120.769 44.7819 120.106 44.5299 119.658 44.0259C119.21 43.5126 118.986 42.7613 118.986 41.7719V38.6219H117.74V36.9699H119V34.2679H120.96V36.9699H123.48V38.6219H120.96V41.6459C120.96 42.5419 121.32 42.9899 122.038 42.9899C122.43 42.9899 122.855 42.8593 123.312 42.5979Z" fill="#F94421"/>
</svg>
