<?xml version="1.0" encoding="utf-8"?>
<!-- Generator: Adobe Illustrator 25.4.1, SVG Export Plug-In . SVG Version: 6.00 Build 0)  -->
<svg version="1.1" id="Warstwa_1" xmlns="http://www.w3.org/2000/svg" xmlns:xlink="http://www.w3.org/1999/xlink" x="0px" y="0px"
	 viewBox="0 0 129 48" style="enable-background:new 0 0 129 48;" xml:space="preserve">
<style type="text/css">
	.st0{fill:#FF9D00;}
	.st1{fill:#F94421;}
	.st2{fill:#FFBC00;}
	.st3{fill:#FF7900;}
	.st4{fill:#FFFFFF;}
	.st5{fill:#413F54;}
</style>
<path class="st0" d="M1.2,22.8c-0.3,1.2-0.4,2.5-0.4,3.8c0,4.9,1.1,9.7,2.3,13.5l9-7.7L1.2,22.8z"/>
<path class="st1" d="M20.7,29.7v17c0,0.3,0.1,0.7,0.4,0.9c0.2,0.2,0.6,0.4,0.9,0.4h6.1c0.3,0,0.7-0.1,0.9-0.3
	c0.3-0.2,0.5-0.4,0.6-0.7c1.8-3.8,3.1-7.9,4-12L20.7,29.7z"/>
<path class="st2" d="M12.6,30.1V10.5c-2.4,0.8-4.7,2.1-6.5,3.9s-3.3,3.9-4.2,6.3L12.6,30.1z"/>
<path class="st3" d="M3.8,42.2c0.7,2.1,1.5,3.7,1.9,4.7c0.1,0.3,0.4,0.6,0.6,0.7c0.3,0.2,0.6,0.3,0.9,0.3h6.1c0.3,0,0.7-0.1,0.9-0.4
	c0.2-0.2,0.4-0.6,0.4-0.9v-3.4c1,0.2,2,0.3,3,0.3c0.3,0,0.6,0,1,0V29.6L3.8,42.2z"/>
<path class="st0" d="M45.4,9c-1.3,3.8-3.8,7.2-7.1,9.4c2-3.7,0.8-8.2,0.8-8.2c-1.3,1.9-2.8,3.6-4.7,5c-2.6-2.2-4.4-3.9-7.1-6.5
	c0.6-0.5,1-1.1,1.3-1.8c0.6-1.2,0.6-2.7,0.1-3.9c-0.5-1.3-1.5-2.3-2.7-2.8l-2.8,6.2C21.1,5.8,19,6,17,6.9l-3-6.8
	c-1,0.4-1.8,1.1-2.3,2c-0.5,0.9-0.8,1.9-0.7,3C11,6.1,11.4,7.2,12.1,8c0.7,0.8,1.6,1.4,2.6,1.7v20.6l4.2-3.6l17.7,7.2
	c0.4,0.1,0.8,0.2,1.2,0.1c0.4-0.1,0.8-0.2,1.1-0.5C42.7,30.2,48.7,18.9,45.4,9z M25.4,24.6c-0.8,0-1.7-0.2-2.3-0.7
	c-0.7-0.5-1.2-1.1-1.6-1.9c-0.3-0.8-0.4-1.6-0.2-2.4c0.2-0.8,0.6-1.6,1.2-2.2s1.3-1,2.2-1.2c0.8-0.2,1.7-0.1,2.4,0.2
	c0.8,0.3,1.4,0.9,1.9,1.6c0.5,0.7,0.7,1.5,0.7,2.3c0,1.1-0.4,2.2-1.2,3C27.6,24.1,26.5,24.5,25.4,24.6L25.4,24.6z M36.8,30.2
	c-0.6,0.6-1.4,0.7-1.7,0.4c-0.3-0.4-0.1-1.1,0.5-1.7c0.6-0.6,1.4-0.7,1.7-0.4C37.7,28.9,37.5,29.7,36.8,30.2L36.8,30.2z"/>
<path class="st4" d="M25.4,24.6c-0.8,0-1.7-0.2-2.3-0.7c-0.7-0.5-1.2-1.1-1.6-1.9c-0.3-0.8-0.4-1.6-0.2-2.4c0.2-0.8,0.6-1.6,1.2-2.2
	c0.6-0.6,1.3-1,2.2-1.2c0.8-0.2,1.7-0.1,2.4,0.2c0.8,0.3,1.4,0.9,1.9,1.6c0.5,0.7,0.7,1.5,0.7,2.3c0,1.1-0.4,2.2-1.2,3
	S26.5,24.5,25.4,24.6L25.4,24.6z"/>
<path class="st5" d="M28,18.7c0,0.1,0,0.2,0.1,0.3c0,0.2-0.1,0.4-0.2,0.6c-0.1,0.2-0.3,0.3-0.5,0.4C27.3,20,27.1,20,26.9,20
	c-0.2,0-0.4-0.1-0.5-0.3s-0.2-0.3-0.3-0.5c0-0.2,0-0.4,0.1-0.6c0.1-0.2,0.2-0.4,0.4-0.5c0.2-0.1,0.4-0.2,0.6-0.2
	c0.1,0,0.2,0,0.4,0.1c-0.5-0.4-1.1-0.6-1.8-0.5c-0.6,0.1-1.2,0.3-1.7,0.8s-0.7,1.1-0.7,1.7c0,0.6,0.2,1.3,0.6,1.7
	c0.4,0.5,1,0.8,1.6,0.8c0.6,0.1,1.3-0.1,1.8-0.5c0.5-0.4,0.9-0.9,1-1.6C28.5,19.9,28.4,19.2,28,18.7z"/>
<path class="st4" d="M83.7,19c-0.9,0-1.6-0.3-2.1-0.8c-0.6-0.6-0.9-1.3-0.9-2.1c0-0.9,0.3-1.6,0.9-2.1c0.6-0.6,1.3-0.9,2.1-0.9
	c0.8,0,1.5,0.3,2.1,0.9c0.6,0.6,0.9,1.3,0.9,2.1c0,0.9-0.3,1.6-0.9,2.1C85.2,18.8,84.5,19,83.7,19z M86.2,20.8v17.5h-5V20.8H86.2z"
	/>
<path class="st4" d="M95,38.4h-5V20.8h4.9v2.4c0.5-0.9,1.2-1.5,2.2-2.1c1-0.6,2.1-0.8,3.4-0.8c1.9,0,3.5,0.6,4.8,1.9
	c1.3,1.3,2,3.1,2,5.4v10.7h-5v-9.4c0-1.3-0.3-2.2-0.9-2.9c-0.6-0.7-1.5-1.1-2.5-1.1c-1.1,0-2,0.4-2.8,1.2c-0.7,0.7-1,1.7-1,3V38.4z"
	/>
<path class="st4" d="M119.4,38.7c-2.8,0-5-0.9-6.8-2.7c-1.7-1.8-2.6-4-2.6-6.6c0-2.6,0.9-4.8,2.6-6.6c1.8-1.8,4-2.7,6.8-2.7
	c2.8,0,5.1,0.9,6.8,2.7c1.8,1.8,2.7,4,2.7,6.6c0,2.6-0.9,4.8-2.7,6.6C124.5,37.8,122.2,38.7,119.4,38.7z M123.9,29.4
	c0-1.3-0.4-2.3-1.3-3.2c-0.9-0.9-1.9-1.3-3.2-1.3s-2.3,0.4-3.2,1.3c-0.9,0.9-1.3,1.9-1.3,3.2c0,1.3,0.4,2.4,1.3,3.3
	c0.9,0.9,1.9,1.3,3.2,1.3s2.3-0.4,3.2-1.3C123.4,31.8,123.9,30.7,123.9,29.4z"/>
<g>
	<path class="st4" d="M77,25.6c-0.7-0.5-1.3-0.7-1.3-0.7c-0.7-0.2-1.4-0.3-2-0.3c-2.3,0-4.2,1.5-4.2,5.3v8.5h-4.4V20.6h4.2v2.3
		c1.2-1.7,2.9-2.8,4.9-2.8c0.6,0,1.3,0,1.9,0.1c0.7,0.2,1.2,0.3,2.7,1.5L77,25.6z"/>
</g>
</svg>
