<svg width="129" height="48" viewBox="0 0 129 48" fill="none" xmlns="http://www.w3.org/2000/svg">
<g clip-path="url(#clip0_1158:3093)">
<path d="M1.22223 22.8196C0.936818 24.057 0.791516 25.3226 0.789062 26.5925C0.793394 31.4439 1.91096 36.278 3.12816 40.1072L12.1293 32.4359L1.22223 22.8196Z" fill="#FF9D00"/>
<path d="M20.6973 29.6681V46.6525C20.6973 46.9972 20.8342 47.3277 21.0779 47.5714C21.3216 47.8151 21.6521 47.952 21.9968 47.952H28.0611C28.3971 47.9535 28.7262 47.8572 29.0085 47.6749C29.2907 47.4926 29.5139 47.2322 29.6508 46.9254C31.4048 43.0844 32.7465 39.0681 33.6532 34.9441L20.6973 29.6681Z" fill="#F94421"/>
<path d="M12.6184 30.1444V10.4744C10.1713 11.2467 7.93192 12.5651 6.06937 14.3301C4.20681 16.0951 2.76988 18.2605 1.86719 20.6624L12.6184 30.1444Z" fill="#FFBC00"/>
<path d="M3.83398 42.1996C4.58336 44.2918 5.29808 45.9378 5.74858 46.9254C5.88677 47.2306 6.11049 47.4892 6.39264 47.6699C6.67479 47.8506 7.00327 47.9456 7.3383 47.9434H13.4026C13.7473 47.9434 14.0778 47.8065 14.3215 47.5628C14.5652 47.3191 14.7021 46.9885 14.7021 46.6439V43.2089C15.694 43.3899 16.7001 43.4812 17.7083 43.4818C18.0332 43.4818 18.3537 43.4818 18.6699 43.4514V29.5511L3.83398 42.1996Z" fill="#FF7900"/>
<path d="M45.4137 8.96265C44.1608 12.8066 41.6568 16.1203 38.3011 18.3753C40.298 14.6588 39.0722 10.1452 39.0722 10.1452C37.794 12.037 36.2237 13.7139 34.42 15.1136C31.8513 12.9478 30.0234 11.2151 27.2728 8.61612C27.831 8.12664 28.2746 7.52031 28.5722 6.84014C29.1225 5.59862 29.1579 4.18954 28.6707 2.92196C28.1835 1.65438 27.2134 0.631768 25.9733 0.078421L23.214 6.29002C21.143 5.75709 18.9506 5.96867 17.0197 6.88779L13.9876 0.0567627C13.0239 0.482675 12.2148 1.19504 11.6702 2.09701C11.1257 2.99897 10.8722 4.04675 10.9441 5.09789C11.016 6.14902 11.41 7.15249 12.0723 7.97186C12.7346 8.79123 13.6333 9.38672 14.646 9.67737V30.2701L18.8217 26.7095L36.5122 33.9087C36.8767 34.0579 37.275 34.1049 37.6643 34.0446C38.0536 33.9843 38.419 33.819 38.7213 33.5665C42.7064 30.2398 48.6581 18.9255 45.4137 8.96265ZM25.4015 24.5566C24.5664 24.5558 23.7502 24.3073 23.0563 23.8428C22.3623 23.3782 21.8217 22.7183 21.5027 21.9465C21.1837 21.1747 21.1007 20.3256 21.2641 19.5067C21.4276 18.6877 21.8301 17.9356 22.421 17.3454C23.0118 16.7551 23.7643 16.3533 24.5835 16.1907C25.4026 16.0281 26.2515 16.112 27.023 16.4318C27.7945 16.7516 28.4538 17.2929 28.9177 17.9873C29.3816 18.6818 29.6292 19.4981 29.6292 20.3333C29.6269 21.4526 29.1803 22.5253 28.3876 23.3156C27.5949 24.1058 26.5208 24.5491 25.4015 24.548V24.5566ZM36.8284 30.2311C36.209 30.7985 35.4293 30.9588 35.0957 30.5863C34.7622 30.2138 34.9874 29.4557 35.6069 28.8883C36.2263 28.3208 37.006 28.1606 37.3395 28.5331C37.6731 28.9056 37.4521 29.655 36.8284 30.2224V30.2311Z" fill="#FF9D00"/>
<path d="M28.0477 18.6873C28.0763 18.7742 28.0937 18.8645 28.0997 18.9558C28.0997 19.1608 28.0389 19.3611 27.9249 19.5314C27.811 19.7018 27.649 19.8345 27.4596 19.9127C27.2702 19.9909 27.0618 20.0112 26.8609 19.9709C26.6599 19.9306 26.4755 19.8315 26.3309 19.6863C26.1863 19.5411 26.088 19.3562 26.0486 19.1551C26.0091 18.954 26.0302 18.7457 26.1092 18.5566C26.1883 18.3675 26.3216 18.2062 26.4924 18.0929C26.6633 17.9797 26.8638 17.9197 27.0688 17.9206C27.1921 17.9228 27.314 17.9478 27.4283 17.9942C26.9242 17.6041 26.2925 17.4165 25.6572 17.4681C25.0219 17.5198 24.4288 17.807 23.9943 18.2733C23.5598 18.7397 23.3153 19.3516 23.3087 19.989C23.3021 20.6264 23.534 21.2432 23.9587 21.7185C24.3835 22.1937 24.9705 22.4931 25.6046 22.5578C26.2388 22.6226 26.8742 22.4481 27.3862 22.0685C27.8983 21.6889 28.25 21.1316 28.3724 20.5061C28.4948 19.8805 28.379 19.2318 28.0477 18.6873Z" fill="#413F54"/>
<path d="M65.181 28.07H60V9.986H64.95V12.329C66.116 10.437 67.755 9.491 69.867 9.491C70.571 9.491 71.319 9.634 72.111 9.92L71.682 14.87C70.934 14.606 70.175 14.474 69.405 14.474C68.085 14.474 67.051 14.925 66.303 15.827C65.555 16.707 65.181 18.038 65.181 19.82V28.07Z" fill="#413F54"/>
<path d="M76.9831 8.138C76.1031 8.138 75.3661 7.852 74.7721 7.28C74.1781 6.686 73.8811 5.949 73.8811 5.069C73.8811 4.189 74.1781 3.463 74.7721 2.891C75.3661 2.297 76.1031 2 76.9831 2C77.8411 2 78.5671 2.297 79.1611 2.891C79.7551 3.463 80.0521 4.189 80.0521 5.069C80.0521 5.949 79.7551 6.686 79.1611 7.28C78.5671 7.852 77.8411 8.138 76.9831 8.138ZM79.5241 9.986V28.07H74.3431V9.986H79.5241Z" fill="#413F54"/>
<path d="M88.6097 28.07H83.4287V9.986H88.4777V12.494C88.9617 11.614 89.7097 10.899 90.7217 10.349C91.7557 9.777 92.9107 9.491 94.1867 9.491C96.1447 9.491 97.8057 10.14 99.1697 11.438C100.534 12.736 101.216 14.595 101.216 17.015V28.07H96.0347V18.368C96.0347 17.07 95.7157 16.058 95.0777 15.332C94.4397 14.606 93.5817 14.243 92.5037 14.243C91.3377 14.243 90.3917 14.639 89.6657 15.431C88.9617 16.201 88.6097 17.224 88.6097 18.5V28.07Z" fill="#413F54"/>
<path d="M113.8 28.565C110.94 28.565 108.597 27.652 106.771 25.826C104.967 24 104.065 21.734 104.065 19.028C104.065 16.322 104.967 14.067 106.771 12.263C108.597 10.415 110.94 9.491 113.8 9.491C116.682 9.491 119.036 10.415 120.862 12.263C122.688 14.089 123.601 16.344 123.601 19.028C123.601 21.69 122.688 23.956 120.862 25.826C119.036 27.652 116.682 28.565 113.8 28.565ZM118.42 18.995C118.42 17.697 117.969 16.597 117.067 15.695C116.165 14.771 115.076 14.309 113.8 14.309C112.524 14.309 111.435 14.771 110.533 15.695C109.653 16.575 109.213 17.675 109.213 18.995C109.213 20.359 109.653 21.492 110.533 22.394C111.435 23.296 112.524 23.747 113.8 23.747C115.076 23.747 116.165 23.296 117.067 22.394C117.969 21.448 118.42 20.315 118.42 18.995Z" fill="#413F54"/>
<path d="M62.444 44.796C61.1187 44.796 60.0687 44.306 59.294 43.326L60.344 42.08C60.6147 42.4066 60.9367 42.668 61.31 42.864C61.6927 43.0506 62.0753 43.144 62.458 43.144C62.7567 43.144 63.004 43.074 63.2 42.934C63.4053 42.794 63.508 42.6166 63.508 42.402C63.508 42.1313 63.326 41.912 62.962 41.744C62.85 41.6973 62.5467 41.5806 62.052 41.394C61.6133 41.2353 61.2867 41.1 61.072 40.988C60.1947 40.568 59.756 39.91 59.756 39.014C59.756 38.3513 60.0173 37.8006 60.54 37.362C61.0533 36.9326 61.744 36.718 62.612 36.718C63.6947 36.718 64.586 37.082 65.286 37.81L64.306 39.084C63.774 38.58 63.1907 38.328 62.556 38.328C62.304 38.328 62.094 38.3933 61.926 38.524C61.7673 38.6453 61.688 38.7946 61.688 38.972C61.688 39.2893 61.912 39.5226 62.36 39.672C63.3587 40.0453 63.97 40.2926 64.194 40.414C65.0527 40.862 65.482 41.506 65.482 42.346C65.482 43.0646 65.202 43.6526 64.642 44.11C64.1007 44.5673 63.368 44.796 62.444 44.796ZM71.6463 42.598L72.2343 44.152C71.5996 44.572 70.8483 44.782 69.9803 44.782C69.1029 44.782 68.4403 44.53 67.9923 44.026C67.5443 43.5126 67.3203 42.7613 67.3203 41.772V38.622H66.0743V36.97H67.3343V34.268H69.2943V36.97H71.8143V38.622H69.2943V41.646C69.2943 42.542 69.6536 42.99 70.3723 42.99C70.7643 42.99 71.1889 42.8593 71.6463 42.598ZM78.872 37.88V36.97H80.748V44.6H78.872V43.718C78.2187 44.4273 77.4067 44.782 76.436 44.782C75.3347 44.782 74.4293 44.3993 73.72 43.634C73.0107 42.8686 72.656 41.9073 72.656 40.75C72.656 39.602 73.0153 38.6546 73.734 37.908C74.4527 37.152 75.3533 36.774 76.436 36.774C77.388 36.774 78.2 37.1426 78.872 37.88ZM78.9 40.778C78.9 40.1806 78.6947 39.6626 78.284 39.224C77.8827 38.7946 77.374 38.58 76.758 38.58C76.1327 38.58 75.6193 38.7946 75.218 39.224C74.826 39.6533 74.63 40.1713 74.63 40.778C74.63 41.394 74.8307 41.9166 75.232 42.346C75.6333 42.7753 76.142 42.99 76.758 42.99C77.374 42.99 77.8827 42.7753 78.284 42.346C78.6947 41.9073 78.9 41.3846 78.9 40.778ZM88.361 37.81V36.97H90.181V43.844C90.181 45.076 89.789 46.0466 89.005 46.756C88.2116 47.4746 87.1943 47.834 85.953 47.834C84.637 47.834 83.4703 47.4653 82.453 46.728L83.223 45.244C84.1003 45.8413 84.9916 46.14 85.897 46.14C86.6343 46.14 87.213 45.944 87.633 45.552C88.0623 45.16 88.277 44.6513 88.277 44.026V43.634C87.689 44.2873 86.905 44.614 85.925 44.614C84.805 44.614 83.8903 44.2453 83.181 43.508C82.4716 42.7706 82.117 41.8373 82.117 40.708C82.117 39.5786 82.4903 38.6406 83.237 37.894C83.9836 37.1473 84.9076 36.774 86.009 36.774C86.9423 36.774 87.7263 37.1193 88.361 37.81ZM84.105 40.722C84.105 41.3566 84.3056 41.8746 84.707 42.276C85.1176 42.6866 85.6216 42.892 86.219 42.892C86.8163 42.892 87.3203 42.6866 87.731 42.276C88.1323 41.8653 88.333 41.3473 88.333 40.722C88.333 40.106 88.1323 39.5973 87.731 39.196C87.3203 38.7853 86.8163 38.58 86.219 38.58C85.6216 38.58 85.1176 38.7853 84.707 39.196C84.3056 39.5973 84.105 40.106 84.105 40.722ZM99.3762 40.61C99.3762 40.8433 99.3529 41.1326 99.3062 41.478H93.5802C93.8602 42.5606 94.6022 43.102 95.8062 43.102C96.6929 43.102 97.5142 42.8453 98.2702 42.332L99.0542 43.718C98.0836 44.418 96.9729 44.768 95.7222 44.768C94.3876 44.768 93.3609 44.3806 92.6422 43.606C91.9329 42.8406 91.5782 41.898 91.5782 40.778C91.5782 39.6113 91.9469 38.6546 92.6842 37.908C93.4216 37.152 94.3782 36.774 95.5542 36.774C96.6649 36.774 97.5796 37.1193 98.2982 37.81C99.0169 38.5006 99.3762 39.434 99.3762 40.61ZM95.5542 38.412C95.0596 38.412 94.6349 38.5566 94.2802 38.846C93.9349 39.126 93.7016 39.5133 93.5802 40.008H97.4582C97.3649 39.5133 97.1502 39.126 96.8142 38.846C96.4782 38.5566 96.0582 38.412 95.5542 38.412ZM102.708 44.6H100.734V36.97H102.666V38.034C102.871 37.6513 103.189 37.3433 103.618 37.11C104.047 36.8766 104.528 36.76 105.06 36.76C105.891 36.76 106.595 37.0353 107.174 37.586C107.753 38.1366 108.042 38.9206 108.042 39.938V44.6H106.068V40.47C106.068 39.8726 105.923 39.4106 105.634 39.084C105.345 38.748 104.953 38.58 104.458 38.58C103.935 38.58 103.511 38.762 103.184 39.126C102.867 39.4806 102.708 39.9426 102.708 40.512V44.6ZM117.136 40.61C117.136 40.8433 117.113 41.1326 117.066 41.478H111.34C111.62 42.5606 112.362 43.102 113.566 43.102C114.453 43.102 115.274 42.8453 116.03 42.332L116.814 43.718C115.843 44.418 114.733 44.768 113.482 44.768C112.147 44.768 111.121 44.3806 110.402 43.606C109.693 42.8406 109.338 41.898 109.338 40.778C109.338 39.6113 109.707 38.6546 110.444 37.908C111.181 37.152 112.138 36.774 113.314 36.774C114.425 36.774 115.339 37.1193 116.058 37.81C116.777 38.5006 117.136 39.434 117.136 40.61ZM113.314 38.412C112.819 38.412 112.395 38.5566 112.04 38.846C111.695 39.126 111.461 39.5133 111.34 40.008H115.218C115.125 39.5133 114.91 39.126 114.574 38.846C114.238 38.5566 113.818 38.412 113.314 38.412ZM123.312 42.598L123.9 44.152C123.266 44.572 122.514 44.782 121.646 44.782C120.769 44.782 120.106 44.53 119.658 44.026C119.21 43.5126 118.986 42.7613 118.986 41.772V38.622H117.74V36.97H119V34.268H120.96V36.97H123.48V38.622H120.96V41.646C120.96 42.542 121.32 42.99 122.038 42.99C122.43 42.99 122.855 42.8593 123.312 42.598Z" fill="#F94421"/>
</g>
<defs>
<clipPath id="clip0_1158:3093">
<rect width="129" height="48" fill="white"/>
</clipPath>
</defs>
</svg>
