<svg width="122" height="49" viewBox="0 0 122 49" fill="none" xmlns="http://www.w3.org/2000/svg">
<path d="M62.8207 28.368H57.6033V10.1569H62.5881V12.5164C63.7623 10.6111 65.4128 9.65841 67.5396 9.65841C68.2486 9.65841 69.0019 9.80242 69.7994 10.0904L69.3674 15.0752C68.6141 14.8094 67.8498 14.6764 67.0744 14.6764C65.7451 14.6764 64.7038 15.1306 63.9506 16.039C63.1973 16.9251 62.8207 18.2655 62.8207 20.06V28.368Z" fill="white"/>
<path d="M74.7058 8.2959C73.8196 8.2959 73.0774 8.00789 72.4793 7.43187C71.8811 6.83369 71.582 6.09151 71.582 5.20532C71.582 4.31914 71.8811 3.58803 72.4793 3.01201C73.0774 2.41383 73.8196 2.11475 74.7058 2.11475C75.5699 2.11475 76.301 2.41383 76.8991 3.01201C77.4973 3.58803 77.7964 4.31914 77.7964 5.20532C77.7964 6.09151 77.4973 6.83369 76.8991 7.43187C76.301 8.00789 75.5699 8.2959 74.7058 8.2959ZM77.2647 10.1569V28.368H72.0473V10.1569H77.2647Z" fill="white"/>
<path d="M86.4141 28.368H81.1967V10.1569H86.2812V12.6825C86.7686 11.7963 87.5219 11.0763 88.541 10.5224C89.5823 9.94642 90.7454 9.65841 92.0303 9.65841C94.0021 9.65841 95.6748 10.312 97.0484 11.6191C98.422 12.9262 99.1088 14.7983 99.1088 17.2353V28.368H93.8913V18.5978C93.8913 17.2907 93.5701 16.2716 92.9276 15.5405C92.2851 14.8094 91.4211 14.4438 90.3355 14.4438C89.1613 14.4438 88.2087 14.8426 87.4776 15.6402C86.7686 16.4156 86.4141 17.4458 86.4141 18.7308V28.368Z" fill="white"/>
<path d="M111.782 28.8665C108.901 28.8665 106.542 27.9471 104.703 26.1083C102.886 24.2694 101.978 21.9875 101.978 19.2625C101.978 16.5374 102.886 14.2666 104.703 12.4499C106.542 10.5889 108.901 9.65841 111.782 9.65841C114.684 9.65841 117.054 10.5889 118.893 12.4499C120.732 14.2887 121.651 16.5596 121.651 19.2625C121.651 21.9432 120.732 24.2251 118.893 26.1083C117.054 27.9471 114.684 28.8665 111.782 28.8665ZM116.434 19.2292C116.434 17.9221 115.98 16.8144 115.072 15.906C114.163 14.9755 113.067 14.5103 111.782 14.5103C110.497 14.5103 109.4 14.9755 108.492 15.906C107.605 16.7922 107.162 17.9 107.162 19.2292C107.162 20.6028 107.605 21.7438 108.492 22.6521C109.4 23.5605 110.497 24.0146 111.782 24.0146C113.067 24.0146 114.163 23.5605 115.072 22.6521C115.98 21.6995 116.434 20.5585 116.434 19.2292Z" fill="white"/>
<path d="M57.6233 37.5396C57.6233 35.8827 58.9664 34.5396 60.6233 34.5396H118.958C120.615 34.5396 121.958 35.8827 121.958 37.5396V44.5302C121.958 46.1871 120.615 47.5302 118.958 47.5302H60.6233C58.9664 47.5302 57.6233 46.1871 57.6233 44.5302V37.5396Z" fill="#1271E1"/>
<path d="M66.7725 41.7871V41.2675C66.7725 40.6699 66.6686 40.12 66.4607 39.6177C66.2615 39.1154 65.9497 38.717 65.5254 38.4225C65.101 38.1194 64.5597 37.9679 63.9015 37.9679C63.252 37.9679 62.6891 38.1064 62.2128 38.3836C61.7364 38.652 61.3684 39.0374 61.1085 39.5397C60.8574 40.0334 60.7318 40.618 60.7318 41.2935C60.7318 41.9603 60.866 42.5449 61.1345 43.0472C61.403 43.5409 61.8057 43.9219 62.3427 44.1904C62.8883 44.4589 63.5681 44.5931 64.3822 44.5931C64.7459 44.5931 65.0664 44.5585 65.3435 44.4892C65.6293 44.4286 65.8848 44.342 66.11 44.2294C66.3438 44.1081 66.556 43.9696 66.7465 43.8137L66.2529 42.5926C65.9757 42.7571 65.6943 42.8913 65.4085 42.9953C65.1227 43.0992 64.7936 43.1512 64.4212 43.1512C64.0055 43.1512 63.6677 43.0949 63.4079 42.9823C63.1481 42.8697 62.9489 42.7138 62.8103 42.5146C62.6718 42.3068 62.5765 42.0643 62.5245 41.7871H66.7725ZM62.5375 40.6569C62.5895 40.3798 62.6761 40.1503 62.7973 39.9684C62.9186 39.7866 63.0701 39.648 63.252 39.5527C63.4339 39.4575 63.6374 39.4098 63.8626 39.4098C64.0877 39.4098 64.2869 39.4575 64.4601 39.5527C64.642 39.6393 64.7936 39.7736 64.9148 39.9554C65.0361 40.1373 65.1227 40.3712 65.1746 40.6569H62.5375Z" fill="white"/>
<path d="M69.496 44.4372V40.0854C69.6432 39.9814 69.8034 39.8688 69.9766 39.7476C70.1585 39.6263 70.3534 39.5268 70.5612 39.4488C70.7691 39.3709 70.9769 39.3319 71.1848 39.3319C71.4619 39.3319 71.6827 39.4358 71.8473 39.6437C72.0118 39.8515 72.0941 40.159 72.0941 40.566V44.4372H73.7829V40.4881C73.7829 40.0031 73.7179 39.5701 73.588 39.189C73.4668 38.7993 73.2503 38.4918 72.9385 38.2667C72.6354 38.0415 72.198 37.9289 71.6264 37.9289C71.4013 37.9289 71.1501 37.9635 70.873 38.0328C70.6045 38.0934 70.323 38.193 70.0286 38.3316C69.7428 38.4615 69.4657 38.6174 69.1972 38.7993L68.9114 38.1367H67.8072V44.4372H69.496Z" fill="white"/>
<path d="M78.2567 38.1627H77.1135V36.357L75.4377 36.6558V38.1627H74.5933L74.5803 39.4358H75.4377V42.4237C75.4377 42.9087 75.5416 43.32 75.7495 43.6578C75.9573 43.9956 76.2431 44.2554 76.6069 44.4372C76.9793 44.6104 77.4253 44.6971 77.9449 44.6971C78.0835 44.6971 78.235 44.6754 78.3996 44.6321C78.5641 44.5975 78.72 44.5498 78.8672 44.4892C79.0145 44.4372 79.1314 44.3766 79.218 44.3073L78.7243 43.0862C78.6031 43.1382 78.4862 43.1771 78.3736 43.2031C78.261 43.2291 78.1484 43.2421 78.0358 43.2421C77.7327 43.2421 77.5032 43.1382 77.3473 42.9303C77.1914 42.7225 77.1135 42.454 77.1135 42.1249V39.4358H78.7763L78.2567 38.1627Z" fill="white"/>
<path d="M85.7765 41.7871V41.2675C85.7765 40.6699 85.6725 40.12 85.4647 39.6177C85.2655 39.1154 84.9537 38.717 84.5293 38.4225C84.105 38.1194 83.5637 37.9679 82.9055 37.9679C82.256 37.9679 81.693 38.1064 81.2167 38.3836C80.7404 38.652 80.3723 39.0374 80.1125 39.5397C79.8614 40.0334 79.7358 40.618 79.7358 41.2935C79.7358 41.9603 79.87 42.5449 80.1385 43.0472C80.407 43.5409 80.8097 43.9219 81.3466 44.1904C81.8922 44.4589 82.5721 44.5931 83.3862 44.5931C83.7499 44.5931 84.0703 44.5585 84.3475 44.4892C84.6333 44.4286 84.8888 44.342 85.1139 44.2294C85.3478 44.1081 85.5599 43.9696 85.7505 43.8137L85.2568 42.5926C84.9797 42.7571 84.6982 42.8913 84.4124 42.9953C84.1266 43.0992 83.7975 43.1512 83.4251 43.1512C83.0094 43.1512 82.6717 43.0949 82.4119 42.9823C82.1521 42.8697 81.9529 42.7138 81.8143 42.5146C81.6757 42.3068 81.5805 42.0643 81.5285 41.7871H85.7765ZM81.5415 40.6569C81.5935 40.3798 81.6801 40.1503 81.8013 39.9684C81.9225 39.7866 82.0741 39.648 82.256 39.5527C82.4378 39.4575 82.6414 39.4098 82.8665 39.4098C83.0917 39.4098 83.2909 39.4575 83.4641 39.5527C83.646 39.6393 83.7975 39.7736 83.9188 39.9554C84.04 40.1373 84.1266 40.3712 84.1786 40.6569H81.5415Z" fill="white"/>
<path d="M88.4999 44.4372V40.592C88.7424 40.3755 88.9979 40.1849 89.2664 40.0204C89.5435 39.8559 89.8077 39.7259 90.0588 39.6307C90.31 39.5354 90.5351 39.4878 90.7343 39.4878L90.3966 38.1367C90.1714 38.1367 89.9246 38.193 89.6561 38.3056C89.3963 38.4182 89.1408 38.5568 88.8897 38.7213C88.6385 38.8772 88.4263 39.0331 88.2531 39.189L87.6945 38.1367H86.8111V44.4372H88.4999Z" fill="white"/>
<path d="M93.3349 47.1523V39.163L92.5165 38.1367H91.6591V47.2822L93.3349 47.1523ZM92.7633 40.2412C93.0664 39.9641 93.3479 39.7563 93.6077 39.6177C93.8675 39.4791 94.149 39.4098 94.4521 39.4098C94.7812 39.4098 95.054 39.4921 95.2705 39.6567C95.487 39.8125 95.6516 40.0291 95.7642 40.3062C95.8768 40.5747 95.933 40.8908 95.933 41.2545C95.933 41.6096 95.8768 41.9344 95.7642 42.2288C95.6602 42.5146 95.4957 42.7398 95.2705 42.9043C95.0454 43.0689 94.7725 43.1512 94.4521 43.1512C94.1577 43.1512 93.8762 43.0905 93.6077 42.9693C93.3392 42.8394 93.0578 42.6055 92.7633 42.2678L92.2827 43.411C92.4126 43.6102 92.5988 43.8007 92.8413 43.9826C93.0838 44.1644 93.3479 44.3117 93.6337 44.4242C93.9282 44.5368 94.201 44.5931 94.4521 44.5931C95.1449 44.5931 95.7295 44.4546 96.2059 44.1774C96.6822 43.8916 97.0459 43.5019 97.2971 43.0083C97.5569 42.506 97.6868 41.9214 97.6868 41.2545C97.6868 40.5877 97.5569 40.0074 97.2971 39.5138C97.0459 39.0201 96.6822 38.6391 96.2059 38.3706C95.7382 38.1021 95.1753 37.9679 94.5171 37.9679C94.2226 37.9679 93.9411 38.0155 93.6727 38.1108C93.4042 38.206 93.153 38.3403 92.9192 38.5135C92.694 38.6867 92.4819 38.8945 92.2827 39.137L92.7633 40.2412Z" fill="white"/>
<path d="M100.412 44.4372V40.592C100.655 40.3755 100.91 40.1849 101.179 40.0204C101.456 39.8559 101.72 39.7259 101.971 39.6307C102.222 39.5354 102.448 39.4878 102.647 39.4878L102.309 38.1367C102.084 38.1367 101.837 38.193 101.568 38.3056C101.309 38.4182 101.053 38.5568 100.802 38.7213C100.551 38.8772 100.339 39.0331 100.165 39.189L99.6069 38.1367H98.7235V44.4372H100.412Z" fill="white"/>
<path d="M105.195 44.4372V38.1367H103.494V44.4372H105.195ZM104.338 37.2534C104.598 37.2534 104.819 37.1624 105 36.9806C105.182 36.79 105.273 36.5605 105.273 36.2921C105.273 36.0236 105.178 35.7984 104.987 35.6166C104.806 35.4347 104.585 35.3438 104.325 35.3438C104.065 35.3438 103.844 35.4347 103.662 35.6166C103.481 35.7984 103.39 36.0236 103.39 36.2921C103.39 36.5605 103.481 36.79 103.662 36.9806C103.844 37.1624 104.069 37.2534 104.338 37.2534Z" fill="white"/>
<path d="M106.251 43.9436C106.45 44.0908 106.684 44.2164 106.952 44.3203C107.229 44.4156 107.502 44.4849 107.771 44.5282C108.039 44.5715 108.26 44.5931 108.433 44.5931C109.29 44.5931 109.94 44.4199 110.382 44.0735C110.832 43.7271 111.057 43.2464 111.057 42.6315C111.057 42.2591 110.949 41.9387 110.732 41.6702C110.525 41.3931 110.256 41.1549 109.927 40.9557C109.607 40.7565 109.269 40.6007 108.914 40.4881C108.697 40.4101 108.476 40.3235 108.251 40.2283C108.035 40.1243 107.931 40.0074 107.939 39.8775C107.939 39.7303 108.009 39.6047 108.147 39.5008C108.294 39.3882 108.476 39.3319 108.693 39.3319C108.979 39.3319 109.251 39.3709 109.511 39.4488C109.771 39.5268 110.053 39.6307 110.356 39.7606L110.862 38.6304C110.654 38.4832 110.416 38.3619 110.148 38.2667C109.879 38.1714 109.615 38.0978 109.355 38.0458C109.104 37.9939 108.888 37.9679 108.706 37.9679C107.944 37.9679 107.342 38.1411 106.9 38.4875C106.467 38.8253 106.251 39.2929 106.251 39.8905C106.251 40.2369 106.355 40.5357 106.562 40.7869C106.779 41.038 107.047 41.2502 107.368 41.4234C107.697 41.5879 108.022 41.7265 108.342 41.8391C108.585 41.9084 108.784 41.9863 108.94 42.0729C109.104 42.1595 109.23 42.2548 109.316 42.3587C109.403 42.454 109.446 42.5622 109.446 42.6835C109.446 42.8047 109.386 42.9087 109.264 42.9953C109.152 43.0732 109.018 43.1338 108.862 43.1771C108.706 43.2118 108.554 43.2291 108.407 43.2291C108.251 43.2291 108.082 43.2118 107.9 43.1771C107.727 43.1425 107.545 43.0949 107.355 43.0342C107.164 42.965 106.965 42.8913 106.757 42.8134L106.251 43.9436Z" fill="white"/>
<path d="M117.746 41.7871V41.2675C117.746 40.6699 117.642 40.12 117.434 39.6177C117.235 39.1154 116.923 38.717 116.499 38.4225C116.074 38.1194 115.533 37.9679 114.875 37.9679C114.225 37.9679 113.662 38.1064 113.186 38.3836C112.71 38.652 112.342 39.0374 112.082 39.5397C111.831 40.0334 111.705 40.618 111.705 41.2935C111.705 41.9603 111.839 42.5449 112.108 43.0472C112.376 43.5409 112.779 43.9219 113.316 44.1904C113.862 44.4589 114.541 44.5931 115.355 44.5931C115.719 44.5931 116.04 44.5585 116.317 44.4892C116.603 44.4286 116.858 44.342 117.083 44.2294C117.317 44.1081 117.529 43.9696 117.72 43.8137L117.226 42.5926C116.949 42.7571 116.668 42.8913 116.382 42.9953C116.096 43.0992 115.767 43.1512 115.394 43.1512C114.979 43.1512 114.641 43.0949 114.381 42.9823C114.121 42.8697 113.922 42.7138 113.784 42.5146C113.645 42.3068 113.55 42.0643 113.498 41.7871H117.746ZM113.511 40.6569C113.563 40.3798 113.649 40.1503 113.771 39.9684C113.892 39.7866 114.043 39.648 114.225 39.5527C114.407 39.4575 114.611 39.4098 114.836 39.4098C115.061 39.4098 115.26 39.4575 115.433 39.5527C115.615 39.6393 115.767 39.7736 115.888 39.9554C116.009 40.1373 116.096 40.3712 116.148 40.6569H113.511Z" fill="white"/>
<path d="M1.32366 23.5684C1.03625 24.8145 0.889922 26.0889 0.887451 27.3678C0.891813 32.2533 2.01724 37.1214 3.24299 40.9776L12.3075 33.2523L1.32366 23.5684Z" fill="#FF9D00"/>
<path d="M20.9357 30.4648V47.5687C20.9357 47.9158 21.0735 48.2486 21.319 48.494C21.5644 48.7395 21.8972 48.8773 22.2443 48.8773H28.3513C28.6896 48.8788 29.0211 48.7818 29.3053 48.5983C29.5895 48.4147 29.8143 48.1525 29.9522 47.8435C31.7185 43.9754 33.0696 39.931 33.9827 35.7779L20.9357 30.4648Z" fill="#F94421"/>
<path d="M12.8004 30.9446V11.1362C10.3362 11.9139 8.08101 13.2417 6.20536 15.0191C4.32971 16.7965 2.88267 18.9771 1.97363 21.3959L12.8004 30.9446Z" fill="#FFBC00"/>
<path d="M3.95398 43.0845C4.70863 45.1914 5.42837 46.849 5.88203 47.8436C6.0212 48.151 6.24649 48.4114 6.53062 48.5933C6.81476 48.7753 7.14555 48.8709 7.48293 48.8687H13.5899C13.937 48.8687 14.2698 48.7308 14.5152 48.4854C14.7606 48.24 14.8985 47.9071 14.8985 47.5601V44.1009C15.8973 44.2832 16.9105 44.3752 17.9258 44.3757C18.253 44.3757 18.5758 44.3757 18.8942 44.3452V30.3472L3.95398 43.0845Z" fill="#FF7900"/>
<path d="M45.826 9.61401C44.5642 13.485 42.0427 16.822 38.6634 19.0929C40.6743 15.3502 39.4398 10.8049 39.4398 10.8049C38.1526 12.7099 36.5713 14.3987 34.7549 15.8082C32.1682 13.6272 30.3274 11.8823 27.5574 9.26504C28.1196 8.77213 28.5664 8.16153 28.8661 7.47658C29.4202 6.22633 29.4558 4.80735 28.9652 3.53085C28.4746 2.25435 27.4977 1.22456 26.2488 0.667318L23.4701 6.92259C21.3846 6.38592 19.1768 6.59898 17.2323 7.52456L14.1788 0.645508C13.2084 1.07441 12.3936 1.79179 11.8452 2.7001C11.2969 3.6084 11.0415 4.66355 11.114 5.72207C11.1864 6.7806 11.5831 7.79113 12.2501 8.61625C12.9171 9.44138 13.8221 10.0411 14.8419 10.3338V10.3338V31.0712L19.047 27.4856L36.8618 34.7354C37.2289 34.8857 37.6301 34.9331 38.0221 34.8723C38.4141 34.8116 38.7821 34.6451 39.0865 34.3908C43.0996 31.0407 49.0932 19.6469 45.826 9.61401ZM25.673 25.3176C24.832 25.3168 24.0102 25.0666 23.3113 24.5987C22.6125 24.1309 22.068 23.4663 21.7468 22.6891C21.4256 21.9119 21.342 21.0569 21.5066 20.2322C21.6712 19.4074 22.0766 18.65 22.6715 18.0557C23.2665 17.4613 24.0243 17.0567 24.8492 16.8929C25.6741 16.7292 26.5291 16.8136 27.306 17.1357C28.0828 17.4577 28.7468 18.0028 29.214 18.7021C29.6811 19.4015 29.9304 20.2236 29.9304 21.0646C29.9281 22.1918 29.4784 23.272 28.6801 24.0678C27.8818 24.8637 26.8002 25.3101 25.673 25.3089V25.3176ZM37.1803 31.032C36.5565 31.6034 35.7713 31.7648 35.4354 31.3897C35.0995 31.0145 35.3264 30.2512 35.9501 29.6797C36.5739 29.1083 37.3591 28.9469 37.695 29.322C38.0309 29.6972 37.8084 30.4518 37.1803 31.0233V31.032Z" fill="#FF9D00"/>
<path d="M25.6731 25.3176C24.8321 25.3168 24.0103 25.0666 23.3115 24.5988C22.6126 24.1309 22.0682 23.4664 21.7469 22.6891C21.4257 21.9119 21.3421 21.0569 21.5067 20.2322C21.6713 19.4075 22.0767 18.65 22.6717 18.0557C23.2666 17.4613 24.0245 17.0567 24.8494 16.8929C25.6743 16.7292 26.5292 16.8137 27.3061 17.1357C28.083 17.4577 28.747 18.0028 29.2141 18.7022C29.6812 19.4015 29.9306 20.2236 29.9306 21.0646C29.9282 22.1918 29.4785 23.272 28.6802 24.0679C27.8819 24.8637 26.8004 25.3101 25.6731 25.3089V25.3176Z" fill="white"/>
<path d="M28.3381 19.4071C28.3669 19.4947 28.3844 19.5855 28.3905 19.6775C28.3905 19.8839 28.3292 20.0856 28.2145 20.2572C28.0997 20.4287 27.9366 20.5623 27.7459 20.6411C27.5551 20.7199 27.3453 20.7403 27.1429 20.6997C26.9406 20.6591 26.7548 20.5594 26.6092 20.4132C26.4636 20.2669 26.3646 20.0807 26.3249 19.8782C26.2852 19.6757 26.3064 19.4659 26.386 19.2755C26.4656 19.0851 26.5999 18.9226 26.7719 18.8086C26.9439 18.6945 27.1459 18.6341 27.3523 18.635C27.4765 18.6373 27.5992 18.6624 27.7144 18.7091C27.2067 18.3163 26.5706 18.1274 25.9308 18.1794C25.291 18.2314 24.6938 18.5206 24.2562 18.9902C23.8187 19.4599 23.5724 20.0761 23.5658 20.718C23.5592 21.3598 23.7926 21.981 24.2204 22.4596C24.6481 22.9382 25.2393 23.2397 25.8779 23.3049C26.5164 23.3701 27.1563 23.1943 27.672 22.8121C28.1876 22.4298 28.5418 21.8686 28.6651 21.2387C28.7883 20.6087 28.6717 19.9555 28.3381 19.4071V19.4071Z" fill="#413F54"/>
</svg>
