<svg width="24" height="24" viewBox="0 0 24 24" fill="none" xmlns="http://www.w3.org/2000/svg">
<path d="M22 6.31006H12C11.59 6.31006 11.25 5.97006 11.25 5.56006C11.25 5.15006 11.59 4.81006 12 4.81006H22C22.41 4.81006 22.75 5.15006 22.75 5.56006C22.75 5.98006 22.41 6.31006 22 6.31006Z" fill="#FF9D00"/>
<path d="M19.7778 11.25H14.2278C12.0378 11.25 11.2578 10.48 11.2578 8.3V4.2C11.2578 2.02 12.0378 1.25 14.2278 1.25H19.7778C21.9678 1.25 22.7478 2.02 22.7478 4.2V8.31C22.7478 10.48 21.9678 11.25 19.7778 11.25ZM14.2178 2.75C12.8578 2.75 12.7478 2.86 12.7478 4.2V8.31C12.7478 9.65 12.8578 9.76 14.2178 9.76H19.7678C21.1278 9.76 21.2378 9.65 21.2378 8.31V4.2C21.2378 2.86 21.1278 2.75 19.7678 2.75H14.2178Z" fill="#FF9D00"/>
<path d="M12 17.8101H2C1.59 17.8101 1.25 17.4701 1.25 17.0601C1.25 16.6501 1.59 16.3101 2 16.3101H12C12.41 16.3101 12.75 16.6501 12.75 17.0601C12.75 17.4801 12.41 17.8101 12 17.8101Z" fill="#FF9D00"/>
<path d="M9.7778 22.75H4.22781C2.03781 22.75 1.25781 21.98 1.25781 19.8V15.7C1.25781 13.52 2.03781 12.75 4.22781 12.75H9.7778C11.9678 12.75 12.7478 13.52 12.7478 15.7V19.81C12.7478 21.98 11.9678 22.75 9.7778 22.75ZM4.2178 14.25C2.8578 14.25 2.7478 14.36 2.7478 15.7V19.81C2.7478 21.15 2.8578 21.26 4.2178 21.26H9.76779C11.1278 21.26 11.2378 21.15 11.2378 19.81V15.7C11.2378 14.36 11.1278 14.25 9.76779 14.25H4.2178Z" fill="#FF9D00"/>
<path d="M15.0002 22.75C14.7302 22.75 14.4802 22.6 14.3502 22.37C14.2202 22.13 14.2202 21.85 14.3602 21.61L15.4102 19.86C15.6202 19.51 16.0802 19.39 16.4402 19.6C16.8002 19.81 16.9102 20.27 16.7002 20.63L16.4302 21.08C19.1902 20.43 21.2602 17.95 21.2602 14.99C21.2602 14.58 21.6002 14.24 22.0102 14.24C22.4202 14.24 22.7602 14.58 22.7602 14.99C22.7502 19.27 19.2702 22.75 15.0002 22.75Z" fill="#FF9D00"/>
<path d="M2 9.75C1.59 9.75 1.25 9.41 1.25 9C1.25 4.73 4.73 1.25 9 1.25C9.27 1.25 9.51999 1.4 9.64999 1.63C9.77999 1.87 9.78001 2.15 9.64001 2.39L8.59 4.14C8.38 4.49 7.92 4.61 7.56 4.4C7.2 4.19 7.08999 3.73 7.29999 3.37L7.57001 2.92C4.81001 3.57 2.73999 6.05 2.73999 9.01C2.74999 9.41 2.41 9.75 2 9.75Z" fill="#FF9D00"/>
</svg>
