<svg width="24" height="24" viewBox="0 0 24 24" fill="none" xmlns="http://www.w3.org/2000/svg">
<path d="M12 14.75C11.59 14.75 11.25 14.41 11.25 14V9C11.25 8.59 11.59 8.25 12 8.25C12.41 8.25 12.75 8.59 12.75 9V14C12.75 14.41 12.41 14.75 12 14.75Z" fill="#FF9D00"/>
<path d="M12 18.0001C11.94 18.0001 11.87 17.9901 11.8 17.9801C11.74 17.9701 11.68 17.9501 11.62 17.9201C11.56 17.9001 11.5 17.8701 11.44 17.8301C11.39 17.7901 11.34 17.7501 11.29 17.7101C11.11 17.5201 11 17.2601 11 17.0001C11 16.7401 11.11 16.4801 11.29 16.2901C11.34 16.2501 11.39 16.2101 11.44 16.1701C11.5 16.1301 11.56 16.1001 11.62 16.0801C11.68 16.0501 11.74 16.0301 11.8 16.0201C11.93 15.9901 12.07 15.9901 12.19 16.0201C12.26 16.0301 12.32 16.0501 12.38 16.0801C12.44 16.1001 12.5 16.1301 12.56 16.1701C12.61 16.2101 12.66 16.2501 12.71 16.2901C12.89 16.4801 13 16.7401 13 17.0001C13 17.2601 12.89 17.5201 12.71 17.7101C12.66 17.7501 12.61 17.7901 12.56 17.8301C12.5 17.8701 12.44 17.9001 12.38 17.9201C12.32 17.9501 12.26 17.9701 12.19 17.9801C12.13 17.9901 12.06 18.0001 12 18.0001Z" fill="#FF9D00"/>
<path d="M18.0585 22.1601H5.93851C3.98851 22.1601 2.49851 21.4501 1.73851 20.1701C0.988511 18.8901 1.08851 17.2401 2.03851 15.5301L8.09851 4.63009C9.09851 2.83009 10.4785 1.84009 11.9985 1.84009C13.5185 1.84009 14.8985 2.83009 15.8985 4.63009L21.9585 15.5401C22.9085 17.2501 23.0185 18.8901 22.2585 20.1801C21.4985 21.4501 20.0085 22.1601 18.0585 22.1601ZM11.9985 3.34009C11.0585 3.34009 10.1385 4.06009 9.40851 5.36009L3.35851 16.2701C2.67851 17.4901 2.56851 18.6101 3.03851 19.4201C3.50851 20.2301 4.54851 20.6701 5.94851 20.6701H18.0685C19.4685 20.6701 20.4985 20.2301 20.9785 19.4201C21.4585 18.6101 21.3385 17.5001 20.6585 16.2701L14.5885 5.36009C13.8585 4.06009 12.9385 3.34009 11.9985 3.34009Z" fill="#FF9D00"/>
</svg>
