<svg width="430" height="188" viewBox="0 0 430 188" fill="none" xmlns="http://www.w3.org/2000/svg">
<path d="M212.804 124.047H195.936V65.1685H212.052V72.7968C215.848 66.6368 221.184 63.5568 228.061 63.5568C230.353 63.5568 232.788 64.0224 235.367 64.9536L233.97 81.0699C231.535 80.2103 229.063 79.7806 226.556 79.7806C222.259 79.7806 218.892 81.2489 216.457 84.1857C214.022 87.0508 212.804 91.3843 212.804 97.1861V124.047Z" fill="white"/>
<path d="M251.229 59.1517C248.364 59.1517 245.965 58.2206 244.031 56.3582C242.097 54.4243 241.13 52.0247 241.13 49.1596C241.13 46.2945 242.097 43.9308 244.031 42.0685C245.965 40.1345 248.364 39.1675 251.229 39.1675C254.023 39.1675 256.387 40.1345 258.321 42.0685C260.255 43.9308 261.222 46.2945 261.222 49.1596C261.222 52.0247 260.255 54.4243 258.321 56.3582C256.387 58.2206 254.023 59.1517 251.229 59.1517ZM259.503 65.1685V124.047H242.634V65.1685H259.503Z" fill="white"/>
<path d="M289.083 124.047H272.215V65.1685H288.654V73.3341C290.229 70.4689 292.665 68.141 295.96 66.3503C299.326 64.488 303.087 63.5568 307.241 63.5568C313.616 63.5568 319.024 65.6699 323.465 69.8959C327.906 74.122 330.126 80.1745 330.126 88.0536V124.047H313.258V92.4587C313.258 88.2327 312.219 84.9378 310.142 82.5741C308.065 80.2103 305.271 79.0285 301.762 79.0285C297.965 79.0285 294.885 80.3178 292.522 82.8964C290.229 85.4034 289.083 88.7341 289.083 92.8885V124.047Z" fill="white"/>
<path d="M371.099 125.658C361.787 125.658 354.159 122.686 348.213 116.741C342.34 110.795 339.403 103.418 339.403 94.6075C339.403 85.7973 342.34 78.4554 348.213 72.582C354.159 66.5652 361.787 63.5568 371.099 63.5568C380.482 63.5568 388.146 66.5652 394.091 72.582C400.036 78.5271 403.009 85.8689 403.009 94.6075C403.009 103.275 400.036 110.652 394.091 116.741C388.146 122.686 380.482 125.658 371.099 125.658ZM386.14 94.5001C386.14 90.274 384.672 86.6927 381.735 83.7559C378.799 80.7475 375.253 79.2434 371.099 79.2434C366.944 79.2434 363.399 80.7475 360.462 83.7559C357.597 86.621 356.164 90.2024 356.164 94.5001C356.164 98.941 357.597 102.63 360.462 105.567C363.399 108.503 366.944 109.972 371.099 109.972C375.253 109.972 378.799 108.503 381.735 105.567C384.672 102.487 386.14 98.7978 386.14 94.5001Z" fill="white"/>
<g clip-path="url(#clip0_1338:902)">
<path d="M13.9792 105.296C13.0499 109.325 12.5768 113.446 12.5688 117.58C12.583 133.376 16.2215 149.115 20.1845 161.582L49.4907 136.605L13.9792 105.296Z" fill="#FF9D00"/>
<path d="M77.3862 127.594V182.892C77.3862 184.014 77.832 185.09 78.6254 185.884C79.4189 186.677 80.495 187.123 81.6171 187.123H101.361C102.455 187.128 103.527 186.814 104.446 186.221C105.365 185.627 106.092 184.779 106.537 183.78C112.248 171.275 116.616 158.198 119.568 144.771L77.3862 127.594Z" fill="#F94421"/>
<path d="M51.0834 129.145V65.1026C43.1164 67.617 35.8252 71.9097 29.7611 77.6562C23.697 83.4027 19.0186 90.4526 16.0796 98.273L51.0834 129.145Z" fill="#FFBC00"/>
<path d="M22.4829 168.394C24.9227 175.206 27.2497 180.565 28.7165 183.78C29.1664 184.774 29.8948 185.616 30.8134 186.204C31.732 186.792 32.8015 187.102 33.8923 187.095H53.6366C54.7587 187.095 55.8349 186.649 56.6283 185.855C57.4218 185.062 57.8675 183.986 57.8675 182.864V171.68C61.0968 172.269 64.3725 172.567 67.6551 172.568C68.7128 172.568 69.7564 172.568 70.7859 172.47V127.213L22.4829 168.394Z" fill="#FF7900"/>
<path d="M157.858 60.1807C153.779 72.6959 145.627 83.4848 134.701 90.8267C141.203 78.7262 137.212 64.0308 137.212 64.0308C133.05 70.1901 127.938 75.65 122.065 80.2071C113.702 73.1555 107.75 67.5143 98.7948 59.0525C100.612 57.4588 102.057 55.4847 103.026 53.2702C104.817 49.228 104.932 44.6404 103.346 40.5133C101.76 36.3863 98.6016 33.0569 94.5639 31.2553L85.5802 51.4791C78.8374 49.744 71.6994 50.4328 65.4128 53.4253L55.5407 31.1848C52.4032 32.5715 49.7688 34.8908 47.9959 37.8274C46.223 40.7641 45.3975 44.1754 45.6318 47.5977C45.866 51.02 47.1485 54.2872 49.305 56.9549C51.4614 59.6226 54.3872 61.5614 57.6843 62.5077V129.554L71.2797 117.961L128.877 141.4C130.064 141.886 131.36 142.039 132.628 141.843C133.895 141.647 135.085 141.108 136.069 140.286C149.044 129.455 168.422 92.6178 157.858 60.1807ZM92.7023 110.952C89.9833 110.949 87.3261 110.14 85.0667 108.628C82.8073 107.115 81.0471 104.966 80.0085 102.454C78.9699 99.9408 78.6997 97.1765 79.2318 94.51C79.764 91.8436 81.0747 89.3949 82.9983 87.4732C84.9219 85.5516 87.372 84.2434 90.039 83.714C92.7059 83.1845 95.47 83.4577 97.9817 84.4988C100.493 85.54 102.64 87.3024 104.15 89.5634C105.661 91.8243 106.467 94.4823 106.467 97.2013C106.459 100.846 105.005 104.338 102.424 106.911C99.8435 109.484 96.3467 110.927 92.7023 110.924V110.952ZM129.906 129.427C127.889 131.274 125.351 131.796 124.265 130.583C123.179 129.37 123.912 126.902 125.929 125.055C127.946 123.207 130.484 122.686 131.57 123.898C132.656 125.111 131.937 127.551 129.906 129.399V129.427Z" fill="#FF9D00"/>
<path d="M92.7027 110.952C89.9837 110.949 87.3266 110.14 85.0672 108.628C82.8078 107.115 81.0475 104.966 80.009 102.454C78.9704 99.9407 78.7001 97.1764 79.2322 94.51C79.7644 91.8436 81.0751 89.3948 82.9987 87.4732C84.9223 85.5516 87.3725 84.2434 90.0394 83.7139C92.7063 83.1845 95.4704 83.4576 97.9822 84.4988C100.494 85.54 102.641 87.3024 104.151 89.5633C105.661 91.8243 106.467 94.4822 106.467 97.2012C106.46 100.846 105.006 104.338 102.425 106.911C99.844 109.484 96.3471 110.927 92.7027 110.924V110.952Z" fill="white"/>
<path d="M101.318 91.8422C101.411 92.1254 101.468 92.4192 101.488 92.7166C101.488 93.3838 101.29 94.0361 100.919 94.5907C100.548 95.1453 100.02 95.5773 99.4037 95.832C98.7869 96.0867 98.1085 96.1526 97.4543 96.0214C96.8 95.8902 96.1995 95.5678 95.7287 95.095C95.2578 94.6222 94.9379 94.0202 94.8095 93.3655C94.681 92.7107 94.7498 92.0326 95.0071 91.4169C95.2643 90.8013 95.6986 90.2758 96.2547 89.9071C96.8109 89.5385 97.4639 89.3432 98.1312 89.346C98.5328 89.3533 98.9296 89.4346 99.3017 89.5857C97.6604 88.3157 95.6038 87.7048 93.5353 87.8729C91.4669 88.0411 89.5359 88.9761 88.1213 90.4945C86.7067 92.013 85.9106 94.0052 85.8891 96.0804C85.8677 98.1556 86.6225 100.164 88.0054 101.711C89.3884 103.259 91.2996 104.233 93.3642 104.444C95.4287 104.655 97.4975 104.087 99.1647 102.851C100.832 101.615 101.977 99.8007 102.375 97.764C102.774 95.7273 102.397 93.6152 101.318 91.8422Z" fill="#413F54"/>
</g>
<path d="M198.748 168H194.184V147.308H197.432L205.244 158.564L213 147.308H216.304V168H211.684V157.052L206.056 165.088H204.376L198.748 157.052V168Z" fill="white"/>
<path d="M226.985 168.392C224.745 168.392 222.981 167.776 221.693 166.544C220.423 165.312 219.789 163.604 219.789 161.42V152.656H224.185V161.448C224.185 162.344 224.427 163.053 224.913 163.576C225.417 164.099 226.107 164.36 226.985 164.36C227.862 164.36 228.543 164.099 229.029 163.576C229.533 163.053 229.785 162.344 229.785 161.448V152.656H234.181V161.42C234.181 163.641 233.546 165.359 232.277 166.572C231.007 167.785 229.243 168.392 226.985 168.392Z" fill="white"/>
<path d="M241.744 146.692V168H237.348V146.692H241.744Z" fill="white"/>
<path d="M255.362 163.632L256.594 167.132C255.287 167.972 253.719 168.392 251.89 168.392C248.231 168.392 246.402 166.329 246.402 162.204V156.296H243.966V152.656H246.43V147.224H250.798V152.656H255.726V156.296H250.798V161.784C250.798 163.52 251.479 164.388 252.842 164.388C253.551 164.388 254.391 164.136 255.362 163.632Z" fill="white"/>
<path d="M260.672 151.088C259.925 151.088 259.3 150.845 258.796 150.36C258.292 149.856 258.04 149.231 258.04 148.484C258.04 147.737 258.292 147.121 258.796 146.636C259.3 146.132 259.925 145.88 260.672 145.88C261.4 145.88 262.016 146.132 262.52 146.636C263.024 147.121 263.276 147.737 263.276 148.484C263.276 149.231 263.024 149.856 262.52 150.36C262.016 150.845 261.4 151.088 260.672 151.088ZM262.828 152.656V168H258.432V152.656H262.828Z" fill="white"/>
<path d="M273.029 168.364C271.386 168.364 269.856 168.047 268.437 167.412C267.037 166.759 265.861 165.825 264.909 164.612L267.429 161.308C268.978 163.137 270.854 164.052 273.057 164.052C273.86 164.052 274.513 163.884 275.017 163.548C275.521 163.193 275.773 162.736 275.773 162.176C275.773 161.411 275.176 160.767 273.981 160.244L272.133 159.572C270.994 159.143 270.108 158.76 269.473 158.424C267.252 157.211 266.141 155.465 266.141 153.188C266.141 151.396 266.822 149.912 268.185 148.736C269.548 147.56 271.321 146.972 273.505 146.972C276.249 146.972 278.592 147.887 280.533 149.716L278.237 153.16C277.64 152.6 276.902 152.152 276.025 151.816C275.166 151.48 274.345 151.312 273.561 151.312C272.796 151.312 272.189 151.471 271.741 151.788C271.312 152.087 271.097 152.497 271.097 153.02C271.097 153.729 271.657 154.336 272.777 154.84L274.793 155.652C276.044 156.137 276.837 156.464 277.173 156.632C279.656 157.752 280.897 159.507 280.897 161.896C280.897 163.8 280.169 165.349 278.713 166.544C277.276 167.757 275.381 168.364 273.029 168.364Z" fill="white"/>
<path d="M285.746 151.088C285 151.088 284.374 150.845 283.87 150.36C283.366 149.856 283.114 149.231 283.114 148.484C283.114 147.737 283.366 147.121 283.87 146.636C284.374 146.132 285 145.88 285.746 145.88C286.474 145.88 287.09 146.132 287.594 146.636C288.098 147.121 288.35 147.737 288.35 148.484C288.35 149.231 288.098 149.856 287.594 150.36C287.09 150.845 286.474 151.088 285.746 151.088ZM287.902 152.656V168H283.506V152.656H287.902Z" fill="white"/>
<path d="M302.835 154.168V152.656H306.839V166.488C306.839 168.971 306.027 170.921 304.403 172.34C302.817 173.796 300.763 174.524 298.243 174.524C295.555 174.524 293.166 173.759 291.075 172.228L292.755 168.98C294.51 170.175 296.283 170.772 298.075 170.772C299.494 170.772 300.605 170.399 301.407 169.652C302.229 168.924 302.639 167.981 302.639 166.824V166.236C301.501 167.431 299.989 168.028 298.103 168.028C295.845 168.028 294.006 167.291 292.587 165.816C291.169 164.341 290.459 162.465 290.459 160.188C290.459 157.873 291.206 155.969 292.699 154.476C294.174 153.001 296.031 152.264 298.271 152.264C300.101 152.264 301.622 152.899 302.835 154.168ZM302.695 160.216C302.695 159.077 302.322 158.144 301.575 157.416C300.847 156.669 299.923 156.296 298.803 156.296C297.683 156.296 296.75 156.669 296.003 157.416C295.257 158.144 294.883 159.077 294.883 160.216C294.883 161.373 295.257 162.325 296.003 163.072C296.769 163.837 297.702 164.22 298.803 164.22C299.923 164.22 300.847 163.847 301.575 163.1C302.322 162.353 302.695 161.392 302.695 160.216Z" fill="white"/>
<path d="M322.178 168H317.614V147.308H320.862L328.674 158.564L336.43 147.308H339.734V168H335.114V157.052L329.486 165.088H327.806L322.178 157.052V168Z" fill="white"/>
<path d="M354.896 154.28V152.656H359.04V168H354.896V166.432C353.589 167.739 352.012 168.392 350.164 168.392C347.98 168.392 346.169 167.617 344.732 166.068C343.313 164.519 342.604 162.577 342.604 160.244C342.604 157.967 343.322 156.063 344.76 154.532C346.197 153.02 347.998 152.264 350.164 152.264C352.012 152.264 353.589 152.936 354.896 154.28ZM347 160.3C347 161.439 347.364 162.409 348.092 163.212C348.857 163.996 349.8 164.388 350.92 164.388C352.058 164.388 353.001 163.987 353.748 163.184C354.513 162.363 354.896 161.401 354.896 160.3C354.896 159.199 354.513 158.247 353.748 157.444C352.982 156.66 352.04 156.268 350.92 156.268C349.8 156.268 348.857 156.66 348.092 157.444C347.364 158.228 347 159.18 347 160.3Z" fill="white"/>
<path d="M374.038 154.168V152.656H378.042V166.488C378.042 168.971 377.23 170.921 375.606 172.34C374.02 173.796 371.966 174.524 369.446 174.524C366.758 174.524 364.369 173.759 362.278 172.228L363.958 168.98C365.713 170.175 367.486 170.772 369.278 170.772C370.697 170.772 371.808 170.399 372.61 169.652C373.432 168.924 373.842 167.981 373.842 166.824V166.236C372.704 167.431 371.192 168.028 369.306 168.028C367.048 168.028 365.209 167.291 363.79 165.816C362.372 164.341 361.662 162.465 361.662 160.188C361.662 157.873 362.409 155.969 363.902 154.476C365.377 153.001 367.234 152.264 369.474 152.264C371.304 152.264 372.825 152.899 374.038 154.168ZM373.898 160.216C373.898 159.077 373.525 158.144 372.778 157.416C372.05 156.669 371.126 156.296 370.006 156.296C368.886 156.296 367.953 156.669 367.206 157.416C366.46 158.144 366.086 159.077 366.086 160.216C366.086 161.373 366.46 162.325 367.206 163.072C367.972 163.837 368.905 164.22 370.006 164.22C371.126 164.22 372.05 163.847 372.778 163.1C373.525 162.353 373.898 161.392 373.898 160.216Z" fill="white"/>
<path d="M383.719 151.088C382.972 151.088 382.347 150.845 381.843 150.36C381.339 149.856 381.087 149.231 381.087 148.484C381.087 147.737 381.339 147.121 381.843 146.636C382.347 146.132 382.972 145.88 383.719 145.88C384.447 145.88 385.063 146.132 385.567 146.636C386.071 147.121 386.323 147.737 386.323 148.484C386.323 149.231 386.071 149.856 385.567 150.36C385.063 150.845 384.447 151.088 383.719 151.088ZM385.875 152.656V168H381.479V152.656H385.875Z" fill="white"/>
<path d="M396.58 168.336C394.191 168.336 392.231 167.589 390.7 166.096C389.188 164.584 388.432 162.652 388.432 160.3C388.432 157.929 389.197 156.007 390.728 154.532C392.259 153.02 394.237 152.264 396.664 152.264C398.269 152.264 399.716 152.647 401.004 153.412C402.311 154.177 403.272 155.251 403.888 156.632L400.388 158.508C399.492 157.052 398.279 156.324 396.748 156.324C395.628 156.324 394.685 156.707 393.92 157.472C393.173 158.219 392.8 159.161 392.8 160.3C392.8 161.476 393.164 162.437 393.892 163.184C394.639 163.931 395.572 164.304 396.692 164.304C397.457 164.304 398.167 164.108 398.82 163.716C399.492 163.305 399.987 162.783 400.304 162.148L403.86 164.248C403.188 165.499 402.199 166.497 400.892 167.244C399.604 167.972 398.167 168.336 396.58 168.336Z" fill="white"/>
<path d="M17.0603 95.8328L121.4 138.353C121.4 138.353 118.56 149.5 117.03 155C115.5 160.5 114.626 163.078 114.626 163.078L12.6502 121.5C12.6502 121.5 12.1276 116.028 13.2703 108.852C14.413 101.676 17.0603 95.8328 17.0603 95.8328Z" fill="#46B954"/>
<path d="M23.9683 106.74L27.5019 108.197C28.6237 108.659 29.3387 109.312 29.6471 110.156C29.9677 110.995 29.9448 111.859 29.5784 112.747C29.2157 113.628 28.6164 114.249 27.7806 114.611C26.952 114.956 25.9509 114.886 24.7774 114.403L23.3018 113.795L21.9414 117.095L20.0257 116.306L23.9683 106.74ZM24.0167 112.06L25.557 112.695C26.0316 112.891 26.4517 112.912 26.8172 112.76C27.195 112.603 27.4674 112.322 27.6346 111.916C27.7947 111.528 27.7986 111.151 27.6464 110.785C27.5029 110.423 27.2197 110.155 26.7969 109.981L25.153 109.303L24.0167 112.06Z" fill="white"/>
<path d="M35.6056 122.727L33.3664 121.804L32.7823 117.49L31.6432 117.021L30.2081 120.503L28.2924 119.713L32.235 110.148L35.8981 111.657C36.9594 112.095 37.6496 112.723 37.9687 113.541C38.2877 114.359 38.273 115.19 37.9244 116.036C37.6612 116.675 37.2564 117.179 36.7101 117.549C36.1759 117.915 35.5476 118.08 34.8252 118.044L35.6056 122.727ZM35.1542 113.425L33.4198 112.71L32.3528 115.299L33.919 115.945C34.4022 116.144 34.8187 116.174 35.1685 116.036C35.527 115.901 35.7863 115.639 35.9463 115.251C36.0992 114.88 36.1047 114.524 35.9627 114.183C35.8293 113.845 35.5598 113.593 35.1542 113.425Z" fill="white"/>
<path d="M37.0269 123.313L40.9694 113.748L42.898 114.543L38.9555 124.108L37.0269 123.313Z" fill="white"/>
<path d="M46.0286 123.571L51.2658 117.992L53.4403 118.888L45.5759 126.837L44.0485 126.207L44.0174 115.004L46.2307 115.916L46.0286 123.571Z" fill="white"/>
<path d="M57.6121 131.798L55.5929 130.965L55.7346 128.601L52.3952 127.225L50.8038 128.991L48.7975 128.165L56.3902 120.104L57.9564 120.749L57.6121 131.798ZM55.8952 126.668L56.0945 123.025L53.643 125.74L55.8952 126.668Z" fill="white"/>
<path d="M59.7469 132.678L62.9266 124.963L60.1955 123.837L60.9584 121.987L68.3621 125.038L67.5992 126.889L64.8681 125.763L61.6885 133.478L59.7469 132.678Z" fill="white"/>
<path d="M72.1419 137.786L65.6571 135.114L69.5997 125.548L76.0844 128.221L75.3482 130.007L70.792 128.129L69.9438 130.187L74.1634 131.927L73.4272 133.713L69.2075 131.974L68.3219 134.122L72.8781 136L72.1419 137.786Z" fill="white"/>
<path d="M84.8359 136.886C85.3536 137.271 85.6753 137.752 85.801 138.328C85.9389 138.9 85.8834 139.488 85.6344 140.092C85.3072 140.886 84.759 141.432 83.9898 141.731C83.217 142.038 82.3732 142.003 81.4586 141.626L77.0966 139.829L81.0391 130.263L85.207 131.981C86.0612 132.333 86.6279 132.844 86.9069 133.515C87.1909 134.197 87.2031 134.853 86.9435 135.483C86.7692 135.906 86.4848 136.253 86.0903 136.524C85.6993 136.787 85.2811 136.908 84.8359 136.886ZM84.1952 133.517L82.2407 132.712L81.3817 134.796L83.2586 135.569C83.6382 135.726 83.9786 135.745 84.2797 135.627C84.5808 135.509 84.7936 135.299 84.9181 134.997C85.0354 134.712 85.0297 134.432 84.9008 134.157C84.7756 133.873 84.5403 133.66 84.1952 133.517ZM79.6799 138.925L81.7767 139.789C82.2168 139.97 82.6118 139.992 82.9616 139.853C83.3201 139.719 83.5722 139.474 83.718 139.12C83.8674 138.758 83.8668 138.404 83.7161 138.06C83.5655 137.715 83.2658 137.45 82.8171 137.265L80.7202 136.401L79.6799 138.925Z" fill="white"/>
<path d="M92.5433 146.195L86.0585 143.522L90.0011 133.957L96.4858 136.63L95.7496 138.416L91.1934 136.538L90.3452 138.596L94.5648 140.335L93.8286 142.122L89.6089 140.382L88.7233 142.531L93.2795 144.409L92.5433 146.195Z" fill="white"/>
<path d="M96.1509 147.682L99.3306 139.968L96.5995 138.842L97.3624 136.991L104.766 140.043L104.003 141.894L101.272 140.768L98.0925 148.482L96.1509 147.682Z" fill="white"/>
<path d="M109.007 152.981L106.988 152.149L107.13 149.785L103.791 148.408L102.199 150.175L100.193 149.348L107.786 141.287L109.352 141.933L109.007 152.981ZM107.291 147.852L107.49 144.209L105.038 146.924L107.291 147.852Z" fill="white"/>
<defs>
<clipPath id="clip0_1338:902">
<rect width="420" height="156.279" fill="white" transform="translate(10 31)"/>
</clipPath>
</defs>
</svg>
