<svg width="430" height="188" viewBox="0 0 430 188" fill="none" xmlns="http://www.w3.org/2000/svg">
<path d="M212.804 124.047H195.936V65.1684H212.052V72.7968C215.848 66.6368 221.184 63.5568 228.061 63.5568C230.353 63.5568 232.788 64.0224 235.367 64.9535L233.97 81.0698C231.535 80.2103 229.063 79.7805 226.556 79.7805C222.259 79.7805 218.892 81.2489 216.457 84.1856C214.022 87.0507 212.804 91.3842 212.804 97.1861V124.047Z" fill="white"/>
<path d="M251.229 59.1517C248.364 59.1517 245.965 58.2205 244.031 56.3582C242.097 54.4242 241.13 52.0247 241.13 49.1596C241.13 46.2945 242.097 43.9307 244.031 42.0684C245.965 40.1345 248.364 39.1675 251.229 39.1675C254.023 39.1675 256.387 40.1345 258.321 42.0684C260.255 43.9307 261.222 46.2945 261.222 49.1596C261.222 52.0247 260.255 54.4242 258.321 56.3582C256.387 58.2205 254.023 59.1517 251.229 59.1517ZM259.503 65.1684V124.047H242.634V65.1684H259.503Z" fill="white"/>
<path d="M289.083 124.047H272.215V65.1684H288.654V73.334C290.229 70.4689 292.665 68.141 295.96 66.3503C299.326 64.4879 303.087 63.5568 307.241 63.5568C313.616 63.5568 319.024 65.6698 323.465 69.8959C327.906 74.1219 330.126 80.1745 330.126 88.0535V124.047H313.258V92.4586C313.258 88.2326 312.219 84.9377 310.142 82.574C308.065 80.2103 305.271 79.0284 301.762 79.0284C297.965 79.0284 294.885 80.3177 292.522 82.8963C290.229 85.4033 289.083 88.734 289.083 92.8884V124.047Z" fill="white"/>
<path d="M371.099 125.658C361.787 125.658 354.159 122.686 348.213 116.741C342.34 110.795 339.403 103.418 339.403 94.6075C339.403 85.7972 342.34 78.4554 348.213 72.5819C354.159 66.5652 361.787 63.5568 371.099 63.5568C380.482 63.5568 388.146 66.5652 394.091 72.5819C400.036 78.527 403.009 85.8689 403.009 94.6075C403.009 103.274 400.036 110.652 394.091 116.741C388.146 122.686 380.482 125.658 371.099 125.658ZM386.14 94.5C386.14 90.274 384.672 86.6926 381.735 83.7558C378.799 80.7475 375.253 79.2433 371.099 79.2433C366.944 79.2433 363.399 80.7475 360.462 83.7558C357.597 86.621 356.164 90.2024 356.164 94.5C356.164 98.941 357.597 102.63 360.462 105.567C363.399 108.503 366.944 109.972 371.099 109.972C375.253 109.972 378.799 108.503 381.735 105.567C384.672 102.487 386.14 98.7977 386.14 94.5Z" fill="white"/>
<g clip-path="url(#clip0_1708_1833)">
<path d="M13.9787 105.296C13.0494 109.325 12.5763 113.446 12.5684 117.58C12.5825 133.376 16.2211 149.115 20.184 161.582L49.4902 136.605L13.9787 105.296Z" fill="#FF9D00"/>
<path d="M77.3857 127.594V182.892C77.3857 184.014 77.8315 185.09 78.625 185.884C79.4184 186.677 80.4946 187.123 81.6167 187.123H101.361C102.455 187.128 103.527 186.814 104.445 186.221C105.364 185.627 106.091 184.779 106.537 183.78C112.247 171.275 116.616 158.198 119.568 144.771L77.3857 127.594Z" fill="#F94421"/>
<path d="M51.0839 129.145V65.1025C43.1169 67.617 35.8257 71.9097 29.7616 77.6562C23.6975 83.4027 19.0191 90.4526 16.0801 98.273L51.0839 129.145Z" fill="#FFBC00"/>
<path d="M22.4824 168.394C24.9223 175.206 27.2493 180.565 28.716 183.78C29.1659 184.774 29.8943 185.616 30.8129 186.204C31.7316 186.792 32.801 187.102 33.8918 187.095H53.6361C54.7582 187.095 55.8344 186.649 56.6278 185.855C57.4213 185.062 57.867 183.986 57.867 182.864V171.68C61.0963 172.269 64.372 172.567 67.6546 172.568C68.7123 172.568 69.7559 172.568 70.7855 172.47V127.213L22.4824 168.394Z" fill="#FF7900"/>
<path d="M157.858 60.1807C153.779 72.6959 145.626 83.4848 134.701 90.8267C141.202 78.7263 137.211 64.0309 137.211 64.0309C133.049 70.1901 127.937 75.65 122.064 80.2071C113.701 73.1556 107.75 67.5143 98.7943 59.0525C100.612 57.4588 102.056 55.4847 103.025 53.2702C104.817 49.2281 104.932 44.6404 103.346 40.5134C101.759 36.3863 98.6011 33.0569 94.5634 31.2553L85.5797 51.4791C78.8369 49.744 71.6989 50.4329 65.4123 53.4254L55.5402 31.1848C52.4027 32.5715 49.7683 34.8908 47.9954 37.8275C46.2225 40.7641 45.397 44.1755 45.6313 47.5978C45.8655 51.0201 47.148 54.2872 49.3045 56.9549C51.4609 59.6226 54.3867 61.5614 57.6839 62.5077V62.5077V129.554L71.2792 117.961L128.876 141.4C130.063 141.886 131.36 142.039 132.627 141.843C133.895 141.647 135.084 141.108 136.069 140.286C149.044 129.455 168.421 92.6178 157.858 60.1807ZM92.7018 110.952C89.9828 110.949 87.3257 110.14 85.0663 108.628C82.8069 107.115 81.0466 104.966 80.008 102.454C78.9695 99.9408 78.6992 97.1765 79.2313 94.5101C79.7635 91.8437 81.0742 89.3949 82.9978 87.4733C84.9214 85.5516 87.3715 84.2434 90.0385 83.714C92.7054 83.1846 95.4695 83.4577 97.9812 84.4989C100.493 85.54 102.64 87.3024 104.15 89.5634C105.66 91.8243 106.466 94.4823 106.466 97.2013C106.459 100.846 105.005 104.338 102.424 106.911C99.843 109.484 96.3462 110.927 92.7018 110.924V110.952ZM129.906 129.427C127.889 131.274 125.35 131.796 124.264 130.583C123.179 129.37 123.912 126.902 125.929 125.055C127.945 123.207 130.484 122.686 131.57 123.898C132.656 125.111 131.937 127.551 129.906 129.399V129.427Z" fill="#FF9D00"/>
<path d="M92.7027 110.952C89.9837 110.949 87.3266 110.14 85.0672 108.627C82.8078 107.115 81.0475 104.966 80.009 102.454C78.9704 99.9407 78.7001 97.1764 79.2322 94.51C79.7644 91.8436 81.0751 89.3948 82.9987 87.4731C84.9223 85.5515 87.3725 84.2433 90.0394 83.7139C92.7063 83.1844 95.4704 83.4576 97.9822 84.4987C100.494 85.5399 102.641 87.3023 104.151 89.5633C105.661 91.8242 106.467 94.4822 106.467 97.2012C106.46 100.846 105.006 104.338 102.425 106.911C99.844 109.484 96.3471 110.927 92.7027 110.923V110.952Z" fill="white"/>
<path d="M101.319 91.8421C101.412 92.1253 101.469 92.4191 101.488 92.7165C101.488 93.3837 101.29 94.036 100.919 94.5906C100.548 95.1452 100.021 95.5772 99.4042 95.8319C98.7874 96.0866 98.109 96.1525 97.4548 96.0213C96.8005 95.8901 96.2 95.5677 95.7292 95.0949C95.2583 94.6221 94.9384 94.0202 94.81 93.3654C94.6815 92.7106 94.7503 92.0325 95.0075 91.4168C95.2648 90.8012 95.699 90.2757 96.2552 89.9071C96.8113 89.5384 97.4644 89.3431 98.1316 89.3459C98.5332 89.3533 98.93 89.4345 99.3022 89.5856C97.6609 88.3156 95.6043 87.7047 93.5358 87.8728C91.4674 88.041 89.5364 88.976 88.1218 90.4944C86.7072 92.0129 85.911 94.0052 85.8896 96.0803C85.8682 98.1555 86.623 100.164 88.0059 101.711C89.3889 103.258 91.3001 104.233 93.3647 104.444C95.4292 104.655 97.498 104.087 99.1652 102.851C100.832 101.615 101.978 99.8006 102.376 97.7639C102.774 95.7272 102.397 93.6152 101.319 91.8421V91.8421Z" fill="#413F54"/>
</g>
<path d="M198.748 166H194.184V145.308H197.432L205.244 156.564L213 145.308H216.304V166H211.684V155.052L206.056 163.088H204.376L198.748 155.052V166Z" fill="white"/>
<path d="M226.985 166.392C224.745 166.392 222.981 165.776 221.693 164.544C220.423 163.312 219.789 161.604 219.789 159.42V150.656H224.185V159.448C224.185 160.344 224.427 161.053 224.913 161.576C225.417 162.099 226.107 162.36 226.985 162.36C227.862 162.36 228.543 162.099 229.029 161.576C229.533 161.053 229.785 160.344 229.785 159.448V150.656H234.181V159.42C234.181 161.641 233.546 163.359 232.277 164.572C231.007 165.785 229.243 166.392 226.985 166.392Z" fill="white"/>
<path d="M241.744 144.692V166H237.348V144.692H241.744Z" fill="white"/>
<path d="M255.362 161.632L256.594 165.132C255.287 165.972 253.719 166.392 251.89 166.392C248.231 166.392 246.402 164.329 246.402 160.204V154.296H243.966V150.656H246.43V145.224H250.798V150.656H255.726V154.296H250.798V159.784C250.798 161.52 251.479 162.388 252.842 162.388C253.551 162.388 254.391 162.136 255.362 161.632Z" fill="white"/>
<path d="M260.672 149.088C259.925 149.088 259.3 148.845 258.796 148.36C258.292 147.856 258.04 147.231 258.04 146.484C258.04 145.737 258.292 145.121 258.796 144.636C259.3 144.132 259.925 143.88 260.672 143.88C261.4 143.88 262.016 144.132 262.52 144.636C263.024 145.121 263.276 145.737 263.276 146.484C263.276 147.231 263.024 147.856 262.52 148.36C262.016 148.845 261.4 149.088 260.672 149.088ZM262.828 150.656V166H258.432V150.656H262.828Z" fill="white"/>
<path d="M273.029 166.364C271.386 166.364 269.856 166.047 268.437 165.412C267.037 164.759 265.861 163.825 264.909 162.612L267.429 159.308C268.978 161.137 270.854 162.052 273.057 162.052C273.86 162.052 274.513 161.884 275.017 161.548C275.521 161.193 275.773 160.736 275.773 160.176C275.773 159.411 275.176 158.767 273.981 158.244L272.133 157.572C270.994 157.143 270.108 156.76 269.473 156.424C267.252 155.211 266.141 153.465 266.141 151.188C266.141 149.396 266.822 147.912 268.185 146.736C269.548 145.56 271.321 144.972 273.505 144.972C276.249 144.972 278.592 145.887 280.533 147.716L278.237 151.16C277.64 150.6 276.902 150.152 276.025 149.816C275.166 149.48 274.345 149.312 273.561 149.312C272.796 149.312 272.189 149.471 271.741 149.788C271.312 150.087 271.097 150.497 271.097 151.02C271.097 151.729 271.657 152.336 272.777 152.84L274.793 153.652C276.044 154.137 276.837 154.464 277.173 154.632C279.656 155.752 280.897 157.507 280.897 159.896C280.897 161.8 280.169 163.349 278.713 164.544C277.276 165.757 275.381 166.364 273.029 166.364Z" fill="white"/>
<path d="M285.746 149.088C285 149.088 284.374 148.845 283.87 148.36C283.366 147.856 283.114 147.231 283.114 146.484C283.114 145.737 283.366 145.121 283.87 144.636C284.374 144.132 285 143.88 285.746 143.88C286.474 143.88 287.09 144.132 287.594 144.636C288.098 145.121 288.35 145.737 288.35 146.484C288.35 147.231 288.098 147.856 287.594 148.36C287.09 148.845 286.474 149.088 285.746 149.088ZM287.902 150.656V166H283.506V150.656H287.902Z" fill="white"/>
<path d="M302.835 152.168V150.656H306.839V164.488C306.839 166.971 306.027 168.921 304.403 170.34C302.817 171.796 300.763 172.524 298.243 172.524C295.555 172.524 293.166 171.759 291.075 170.228L292.755 166.98C294.51 168.175 296.283 168.772 298.075 168.772C299.494 168.772 300.605 168.399 301.407 167.652C302.229 166.924 302.639 165.981 302.639 164.824V164.236C301.501 165.431 299.989 166.028 298.103 166.028C295.845 166.028 294.006 165.291 292.587 163.816C291.169 162.341 290.459 160.465 290.459 158.188C290.459 155.873 291.206 153.969 292.699 152.476C294.174 151.001 296.031 150.264 298.271 150.264C300.101 150.264 301.622 150.899 302.835 152.168ZM302.695 158.216C302.695 157.077 302.322 156.144 301.575 155.416C300.847 154.669 299.923 154.296 298.803 154.296C297.683 154.296 296.75 154.669 296.003 155.416C295.257 156.144 294.883 157.077 294.883 158.216C294.883 159.373 295.257 160.325 296.003 161.072C296.769 161.837 297.702 162.22 298.803 162.22C299.923 162.22 300.847 161.847 301.575 161.1C302.322 160.353 302.695 159.392 302.695 158.216Z" fill="white"/>
<path d="M322.178 166H317.614V145.308H320.862L328.674 156.564L336.43 145.308H339.734V166H335.114V155.052L329.486 163.088H327.806L322.178 155.052V166Z" fill="white"/>
<path d="M354.896 152.28V150.656H359.04V166H354.896V164.432C353.589 165.739 352.012 166.392 350.164 166.392C347.98 166.392 346.169 165.617 344.732 164.068C343.313 162.519 342.604 160.577 342.604 158.244C342.604 155.967 343.322 154.063 344.76 152.532C346.197 151.02 347.998 150.264 350.164 150.264C352.012 150.264 353.589 150.936 354.896 152.28ZM347 158.3C347 159.439 347.364 160.409 348.092 161.212C348.857 161.996 349.8 162.388 350.92 162.388C352.058 162.388 353.001 161.987 353.748 161.184C354.513 160.363 354.896 159.401 354.896 158.3C354.896 157.199 354.513 156.247 353.748 155.444C352.982 154.66 352.04 154.268 350.92 154.268C349.8 154.268 348.857 154.66 348.092 155.444C347.364 156.228 347 157.18 347 158.3Z" fill="white"/>
<path d="M374.038 152.168V150.656H378.042V164.488C378.042 166.971 377.23 168.921 375.606 170.34C374.02 171.796 371.966 172.524 369.446 172.524C366.758 172.524 364.369 171.759 362.278 170.228L363.958 166.98C365.713 168.175 367.486 168.772 369.278 168.772C370.697 168.772 371.808 168.399 372.61 167.652C373.432 166.924 373.842 165.981 373.842 164.824V164.236C372.704 165.431 371.192 166.028 369.306 166.028C367.048 166.028 365.209 165.291 363.79 163.816C362.372 162.341 361.662 160.465 361.662 158.188C361.662 155.873 362.409 153.969 363.902 152.476C365.377 151.001 367.234 150.264 369.474 150.264C371.304 150.264 372.825 150.899 374.038 152.168ZM373.898 158.216C373.898 157.077 373.525 156.144 372.778 155.416C372.05 154.669 371.126 154.296 370.006 154.296C368.886 154.296 367.953 154.669 367.206 155.416C366.46 156.144 366.086 157.077 366.086 158.216C366.086 159.373 366.46 160.325 367.206 161.072C367.972 161.837 368.905 162.22 370.006 162.22C371.126 162.22 372.05 161.847 372.778 161.1C373.525 160.353 373.898 159.392 373.898 158.216Z" fill="white"/>
<path d="M383.719 149.088C382.972 149.088 382.347 148.845 381.843 148.36C381.339 147.856 381.087 147.231 381.087 146.484C381.087 145.737 381.339 145.121 381.843 144.636C382.347 144.132 382.972 143.88 383.719 143.88C384.447 143.88 385.063 144.132 385.567 144.636C386.071 145.121 386.323 145.737 386.323 146.484C386.323 147.231 386.071 147.856 385.567 148.36C385.063 148.845 384.447 149.088 383.719 149.088ZM385.875 150.656V166H381.479V150.656H385.875Z" fill="white"/>
<path d="M396.58 166.336C394.191 166.336 392.231 165.589 390.7 164.096C389.188 162.584 388.432 160.652 388.432 158.3C388.432 155.929 389.197 154.007 390.728 152.532C392.259 151.02 394.237 150.264 396.664 150.264C398.269 150.264 399.716 150.647 401.004 151.412C402.311 152.177 403.272 153.251 403.888 154.632L400.388 156.508C399.492 155.052 398.279 154.324 396.748 154.324C395.628 154.324 394.685 154.707 393.92 155.472C393.173 156.219 392.8 157.161 392.8 158.3C392.8 159.476 393.164 160.437 393.892 161.184C394.639 161.931 395.572 162.304 396.692 162.304C397.457 162.304 398.167 162.108 398.82 161.716C399.492 161.305 399.987 160.783 400.304 160.148L403.86 162.248C403.188 163.499 402.199 164.497 400.892 165.244C399.604 165.972 398.167 166.336 396.58 166.336Z" fill="white"/>
<path d="M17.0603 95.8329L121.4 138.353C121.4 138.353 118.56 149.5 117.03 155C115.5 160.5 114.626 163.078 114.626 163.078L12.6502 121.5C12.6502 121.5 12.1276 116.028 13.2703 108.852C14.413 101.676 17.0603 95.8329 17.0603 95.8329Z" fill="#46B954"/>
<path d="M27.0525 107.74L30.5861 109.197C31.7079 109.659 32.423 110.312 32.7314 111.156C33.0519 111.995 33.029 112.859 32.6627 113.747C32.2999 114.628 31.7007 115.249 30.8649 115.611C30.0363 115.956 29.0352 115.886 27.8616 115.403L26.3861 114.795L25.0256 118.095L23.11 117.306L27.0525 107.74ZM27.1009 113.06L28.6412 113.695C29.1158 113.891 29.5359 113.912 29.9015 113.76C30.2793 113.603 30.5517 113.322 30.7189 112.916C30.8789 112.528 30.8829 112.151 30.7307 111.785C30.5871 111.423 30.304 111.155 29.8811 110.981L28.2373 110.303L27.1009 113.06ZM32.7136 117.175L35.2157 111.105L37.1443 111.9L34.6956 117.841C34.4359 118.471 34.3982 119.016 34.5823 119.475C34.7664 119.935 35.1432 120.282 35.7128 120.516C36.265 120.744 36.7701 120.755 37.2281 120.551C37.6861 120.346 38.0414 119.937 38.2939 119.324L40.7427 113.383L42.6842 114.183L40.1821 120.254C39.6877 121.453 38.9587 122.218 37.995 122.547C37.04 122.881 36.0232 122.825 34.9445 122.38C33.8659 121.936 33.1008 121.257 32.6493 120.344C32.1978 119.431 32.2192 118.375 32.7136 117.175ZM48.4952 121.636C49.0129 122.021 49.3346 122.502 49.4603 123.079C49.5981 123.65 49.5426 124.238 49.2936 124.842C48.9664 125.636 48.4182 126.182 47.649 126.481C46.8762 126.788 46.0325 126.754 45.1178 126.377L40.7558 124.579L44.6984 115.013L48.8662 116.731C49.7205 117.083 50.2871 117.595 50.5661 118.265C50.8502 118.947 50.8624 119.603 50.6027 120.233C50.4285 120.656 50.144 121.003 49.7495 121.275C49.3585 121.538 48.9404 121.658 48.4952 121.636ZM47.8544 118.268L45.8999 117.462L45.041 119.546L46.9178 120.32C47.2975 120.476 47.6379 120.495 47.939 120.377C48.24 120.259 48.4528 120.049 48.5773 119.747C48.6947 119.462 48.6889 119.182 48.5601 118.907C48.4348 118.623 48.1996 118.41 47.8544 118.268ZM43.3391 123.675L45.436 124.539C45.8761 124.721 46.271 124.742 46.6209 124.604C46.9793 124.469 47.2315 124.224 47.3773 123.871C47.5267 123.508 47.526 123.155 47.3754 122.81C47.2247 122.465 46.925 122.2 46.4763 122.015L44.3794 121.151L43.3391 123.675ZM56.5002 131.068L49.7178 128.273L53.6603 118.707L55.5889 119.502L52.4039 127.23L57.2578 129.23L56.5002 131.068ZM57.7443 131.581L61.6869 122.016L63.6155 122.81L59.6729 132.376L57.7443 131.581ZM66.1181 135.199C64.7202 134.623 63.7377 133.688 63.1706 132.394C62.607 131.092 62.6222 129.72 63.2162 128.279C63.8137 126.829 64.7834 125.836 66.1254 125.299C67.4795 124.756 68.8426 124.768 70.2146 125.334C71.0689 125.686 71.7881 126.194 72.3722 126.859C72.9598 127.515 73.3406 128.232 73.5144 129.01L71.7155 129.738C71.3453 128.505 70.6253 127.668 69.5553 127.227C68.6923 126.872 67.8448 126.87 67.0126 127.224C66.184 127.569 65.5829 128.194 65.2095 129.101C64.8467 129.981 64.8352 130.829 65.1751 131.645C65.515 132.462 66.1206 133.05 66.9922 133.409C68.1053 133.868 69.225 133.784 70.3512 133.158L71.1753 134.906C70.4741 135.334 69.6717 135.578 68.768 135.64C67.873 135.705 66.9897 135.558 66.1181 135.199ZM82.6366 135.708C83.1543 136.093 83.4759 136.574 83.6016 137.151C83.7395 137.722 83.684 138.31 83.435 138.914C83.1078 139.708 82.5596 140.254 81.7904 140.553C81.0176 140.861 80.1739 140.826 79.2592 140.449L74.8972 138.651L78.8397 129.085L83.0076 130.803C83.8619 131.155 84.4285 131.667 84.7075 132.337C84.9915 133.019 85.0038 133.675 84.7441 134.305C84.5698 134.728 84.2854 135.075 83.8909 135.347C83.4999 135.61 83.0818 135.73 82.6366 135.708ZM81.9958 132.34L80.0413 131.534L79.1824 133.618L81.0592 134.392C81.4389 134.548 81.7793 134.567 82.0803 134.449C82.3814 134.331 82.5942 134.121 82.7187 133.819C82.8361 133.534 82.8303 133.254 82.7015 132.979C82.5762 132.695 82.341 132.482 81.9958 132.34ZM77.4805 137.747L79.5774 138.611C80.0175 138.793 80.4124 138.814 80.7622 138.676C81.1207 138.541 81.3728 138.296 81.5187 137.943C81.668 137.58 81.6674 137.227 81.5168 136.882C81.3661 136.537 81.0664 136.272 80.6177 136.087L78.5208 135.223L77.4805 137.747ZM90.3439 145.017L83.8591 142.345L87.8017 132.779L94.2865 135.452L93.5502 137.238L88.9941 135.36L88.1458 137.418L92.3654 139.158L91.6292 140.944L87.4096 139.205L86.524 141.353L91.0801 143.231L90.3439 145.017ZM93.9515 146.504L97.1312 138.79L94.4001 137.664L95.163 135.813L102.567 138.865L101.804 140.716L99.0727 139.59L95.8931 147.305L93.9515 146.504ZM106.808 151.804L104.789 150.971L104.931 148.607L101.591 147.23L99.9998 148.997L97.9935 148.17L105.586 140.11L107.152 140.755L106.808 151.804ZM105.091 146.674L105.29 143.031L102.839 145.746L105.091 146.674Z" fill="white"/>
<path d="M27.0527 107.74L30.5863 109.197C31.7081 109.659 32.4232 110.312 32.7316 111.156C33.0521 111.995 33.0292 112.859 32.6629 113.747C32.3001 114.628 31.7008 115.249 30.8651 115.611C30.0365 115.956 29.0354 115.886 27.8618 115.403L26.3862 114.795L25.0258 118.095L23.1102 117.306L27.0527 107.74ZM27.1011 113.06L28.6414 113.695C29.116 113.891 29.5361 113.912 29.9017 113.76C30.2794 113.603 30.5519 113.322 30.7191 112.916C30.8791 112.528 30.8831 112.151 30.7309 111.785C30.5873 111.423 30.3042 111.155 29.8813 110.981L28.2375 110.303L27.1011 113.06Z" fill="white"/>
<path d="M32.7138 117.175L35.2159 111.105L37.1445 111.9L34.6958 117.841C34.4361 118.471 34.3984 119.016 34.5825 119.475C34.7666 119.935 35.1434 120.282 35.7129 120.516C36.2652 120.744 36.7703 120.755 37.2283 120.55C37.6863 120.346 38.0416 119.937 38.2941 119.324L40.7428 113.383L42.6844 114.183L40.1823 120.254C39.6879 121.453 38.9589 122.218 37.9952 122.547C37.0402 122.881 36.0233 122.825 34.9447 122.38C33.8661 121.936 33.101 121.257 32.6495 120.344C32.198 119.431 32.2194 118.375 32.7138 117.175Z" fill="white"/>
<path d="M48.4954 121.636C49.0131 122.021 49.3347 122.502 49.4604 123.079C49.5983 123.65 49.5428 124.238 49.2938 124.842C48.9666 125.636 48.4184 126.182 47.6492 126.481C46.8764 126.788 46.0327 126.754 45.118 126.377L40.756 124.579L44.6985 115.013L48.8664 116.731C49.7207 117.083 50.2873 117.595 50.5663 118.265C50.8503 118.947 50.8626 119.603 50.6029 120.233C50.4286 120.656 50.1442 121.003 49.7497 121.275C49.3587 121.537 48.9406 121.658 48.4954 121.636ZM47.8546 118.268L45.9001 117.462L45.0412 119.546L46.918 120.32C47.2977 120.476 47.6381 120.495 47.9391 120.377C48.2402 120.259 48.453 120.049 48.5775 119.747C48.6949 119.462 48.6891 119.182 48.5603 118.907C48.435 118.623 48.1998 118.41 47.8546 118.268ZM43.3393 123.675L45.4362 124.539C45.8763 124.721 46.2712 124.742 46.621 124.604C46.9795 124.469 47.2316 124.224 47.3775 123.871C47.5269 123.508 47.5262 123.155 47.3756 122.81C47.2249 122.465 46.9252 122.2 46.4765 122.015L44.3796 121.151L43.3393 123.675Z" fill="white"/>
<path d="M56.5004 131.068L49.7179 128.273L53.6605 118.707L55.5891 119.502L52.4041 127.229L57.258 129.23L56.5004 131.068Z" fill="white"/>
<path d="M57.7445 131.581L61.6871 122.016L63.6157 122.81L59.6731 132.376L57.7445 131.581Z" fill="white"/>
<path d="M66.1183 135.199C64.7204 134.623 63.7379 133.688 63.1708 132.394C62.6072 131.092 62.6224 129.72 63.2164 128.279C63.8139 126.829 64.7836 125.836 66.1256 125.299C67.4797 124.756 68.8428 124.768 70.2148 125.334C71.0691 125.686 71.7883 126.194 72.3724 126.859C72.96 127.515 73.3408 128.232 73.5146 129.01L71.7157 129.738C71.3455 128.505 70.6255 127.668 69.5554 127.227C68.6925 126.872 67.845 126.87 67.0128 127.224C66.1842 127.569 65.5831 128.194 65.2097 129.1C64.8469 129.981 64.8354 130.829 65.1753 131.645C65.5151 132.462 66.1208 133.05 66.9924 133.409C68.1055 133.868 69.2252 133.784 70.3514 133.158L71.1755 134.906C70.4743 135.334 69.6719 135.578 68.7682 135.64C67.8731 135.705 66.9899 135.558 66.1183 135.199Z" fill="white"/>
<path d="M82.6368 135.708C83.1544 136.093 83.4761 136.574 83.6018 137.151C83.7397 137.722 83.6842 138.31 83.4352 138.914C83.108 139.708 82.5598 140.254 81.7906 140.553C81.0178 140.861 80.1741 140.826 79.2594 140.449L74.8974 138.651L78.8399 129.085L83.0078 130.803C83.8621 131.155 84.4287 131.667 84.7077 132.337C84.9917 133.019 85.0039 133.675 84.7443 134.305C84.57 134.728 84.2856 135.075 83.8911 135.347C83.5001 135.61 83.082 135.73 82.6368 135.708ZM81.996 132.34L80.0415 131.534L79.1826 133.618L81.0594 134.392C81.4391 134.548 81.7794 134.567 82.0805 134.449C82.3816 134.331 82.5944 134.121 82.7189 133.819C82.8363 133.534 82.8305 133.254 82.7017 132.979C82.5764 132.695 82.3411 132.482 81.996 132.34ZM77.4807 137.747L79.5776 138.611C80.0177 138.793 80.4126 138.814 80.7624 138.676C81.1209 138.541 81.373 138.296 81.5189 137.943C81.6682 137.58 81.6676 137.227 81.5169 136.882C81.3663 136.537 81.0666 136.272 80.6179 136.087L78.521 135.223L77.4807 137.747Z" fill="white"/>
<path d="M90.3441 145.017L83.8593 142.345L87.8019 132.779L94.2866 135.452L93.5504 137.238L88.9943 135.36L88.146 137.418L92.3656 139.158L91.6294 140.944L87.4098 139.205L86.5242 141.353L91.0803 143.231L90.3441 145.017Z" fill="white"/>
<path d="M93.9517 146.504L97.1314 138.79L94.4003 137.664L95.1632 135.813L102.567 138.865L101.804 140.716L99.0729 139.59L95.8933 147.305L93.9517 146.504Z" fill="white"/>
<path d="M106.808 151.804L104.789 150.971L104.931 148.607L101.591 147.23L99.9999 148.997L97.9937 148.17L105.586 140.11L107.153 140.755L106.808 151.804ZM105.091 146.674L105.291 143.031L102.839 145.746L105.091 146.674Z" fill="white"/>
<defs>
<clipPath id="clip0_1708_1833">
<rect width="420" height="156.279" fill="white" transform="translate(10 31)"/>
</clipPath>
</defs>
</svg>
