
<svg width="32" height="33" viewBox="0 0 32 33" fill="none" xmlns="http://www.w3.org/2000/svg">
<path d="M26.6654 16.5001V24.5001C26.6654 27.4467 24.2787 29.8334 21.332 29.8334H10.6654C7.7187 29.8334 5.33203 27.4467 5.33203 24.5001V16.5001C5.33203 15.7667 5.93203 15.1667 6.66536 15.1667H9.29203C10.0254 15.1667 10.6254 15.7667 10.6254 16.5001V20.6867C10.6254 21.6734 11.172 22.5801 12.0387 23.0467C12.4254 23.2601 12.852 23.3667 13.292 23.3667C13.7987 23.3667 14.3054 23.2201 14.7454 22.9267L16.012 22.1001L17.1854 22.8867C17.9987 23.4334 19.0387 23.5001 19.9054 23.0334C20.7854 22.5667 21.332 21.6734 21.332 20.6734V16.5001C21.332 15.7667 21.932 15.1667 22.6654 15.1667H25.332C26.0654 15.1667 26.6654 15.7667 26.6654 16.5001Z" fill="#FF9D00"/>
<path d="M28.6654 9.83341V11.1667C28.6654 12.6334 27.9587 13.8334 25.9987 13.8334H5.9987C3.9587 13.8334 3.33203 12.6334 3.33203 11.1667V9.83341C3.33203 8.36675 3.9587 7.16675 5.9987 7.16675H25.9987C27.9587 7.16675 28.6654 8.36675 28.6654 9.83341Z" fill="#FF9D00"/>
<path d="M15.5184 7.16659H8.15841C7.70508 6.67325 7.71841 5.91326 8.19841 5.43326L10.0917 3.53992C10.5851 3.04659 11.3984 3.04659 11.8917 3.53992L15.5184 7.16659Z" fill="#FF9D00"/>
<path d="M23.8248 7.16659H16.4648L20.0915 3.53992C20.5848 3.04659 21.3982 3.04659 21.8915 3.53992L23.7848 5.43326C24.2648 5.91326 24.2782 6.67325 23.8248 7.16659Z" fill="#FF9D00"/>
<path d="M18.6285 15.1667C19.3619 15.1667 19.9619 15.7667 19.9619 16.5001V20.6734C19.9619 21.7401 18.7752 22.3801 17.8952 21.7801L16.6952 20.9801C16.2552 20.6867 15.6819 20.6867 15.2285 20.9801L13.9752 21.8067C13.0952 22.3934 11.9219 21.7534 11.9219 20.7001V16.5001C11.9219 15.7667 12.5219 15.1667 13.2552 15.1667H18.6285Z" fill="#FF9D00"/>
</svg>
