<svg width="440" height="170" viewBox="0 0 440 170" fill="none" xmlns="http://www.w3.org/2000/svg">
<path d="M217.753 126.931H200.492V66.684H216.983V74.4897C220.868 68.1865 226.328 65.0349 233.364 65.0349C235.71 65.0349 238.202 65.5113 240.84 66.4641L239.411 82.9551C236.919 82.0756 234.39 81.6359 231.825 81.6359C227.427 81.6359 223.983 83.1384 221.491 86.1434C218.999 89.0752 217.753 93.5094 217.753 99.4462V126.931Z" fill="white"/>
<path d="M257.072 60.5273C254.14 60.5273 251.685 59.5745 249.706 57.6688C247.727 55.6899 246.737 53.2346 246.737 50.3028C246.737 47.3711 247.727 44.9524 249.706 43.0468C251.685 41.0678 254.14 40.0784 257.072 40.0784C259.93 40.0784 262.349 41.0678 264.328 43.0468C266.307 44.9524 267.296 47.3711 267.296 50.3028C267.296 53.2346 266.307 55.6899 264.328 57.6688C262.349 59.5745 259.93 60.5273 257.072 60.5273ZM265.537 66.684V126.931H248.277V66.684H265.537Z" fill="white"/>
<path d="M295.806 126.931H278.545V66.684H295.366V75.0394C296.979 72.1077 299.471 69.7256 302.842 67.8933C306.287 65.9877 310.135 65.0349 314.386 65.0349C320.909 65.0349 326.443 67.197 330.987 71.5213C335.531 75.8457 337.803 82.039 337.803 90.1013V126.931H320.543V94.6088C320.543 90.2845 319.48 86.913 317.354 84.4943C315.229 82.0756 312.37 80.8663 308.779 80.8663C304.894 80.8663 301.743 82.1856 299.324 84.8241C296.979 87.3894 295.806 90.7976 295.806 95.0486V126.931Z" fill="white"/>
<path d="M379.728 128.58C370.2 128.58 362.394 125.539 356.311 119.455C350.301 113.372 347.296 105.823 347.296 96.8076C347.296 87.7925 350.301 80.2799 356.311 74.2698C362.394 68.1132 370.2 65.0349 379.728 65.0349C389.33 65.0349 397.172 68.1132 403.256 74.2698C409.339 80.3532 412.381 87.8658 412.381 96.8076C412.381 105.676 409.339 113.225 403.256 119.455C397.172 125.539 389.33 128.58 379.728 128.58ZM395.12 96.6977C395.12 92.3734 393.618 88.7087 390.613 85.7037C387.607 82.6253 383.979 81.0862 379.728 81.0862C375.477 81.0862 371.849 82.6253 368.844 85.7037C365.913 88.6354 364.447 92.3001 364.447 96.6977C364.447 101.242 365.913 105.017 368.844 108.022C371.849 111.027 375.477 112.529 379.728 112.529C383.979 112.529 387.607 111.027 390.613 108.022C393.618 104.87 395.12 101.095 395.12 96.6977Z" fill="white"/>
<g clip-path="url(#clip0_1429_1015)">
<path d="M14.3039 85.3799C13.3531 89.5023 12.869 93.7187 12.8608 97.9493C12.8753 114.112 16.5985 130.217 20.6536 142.974L50.6413 117.417L14.3039 85.3799Z" fill="#FF9D00"/>
<path d="M79.186 108.196V164.78C79.186 165.928 79.6422 167.029 80.4541 167.841C81.266 168.653 82.3671 169.109 83.5153 169.109H103.719C104.838 169.114 105.935 168.793 106.875 168.186C107.815 167.579 108.559 166.711 109.015 165.689C114.859 152.893 119.328 139.512 122.349 125.773L79.186 108.196Z" fill="#F94421"/>
<path d="M52.271 109.783V44.2515C44.1187 46.8244 36.658 51.2169 30.4528 57.0971C24.2477 62.9772 19.4605 70.191 16.4531 78.1933L52.271 109.783Z" fill="#FFBC00"/>
<path d="M23.0054 149.945C25.5019 156.915 27.8831 162.399 29.3839 165.689C29.8443 166.706 30.5896 167.567 31.5296 168.169C32.4696 168.771 33.5639 169.088 34.6801 169.08H54.8836C56.0318 169.08 57.1329 168.624 57.9448 167.812C58.7567 167 59.2129 165.899 59.2129 164.751V153.307C62.5172 153.91 65.8691 154.215 69.228 154.216C70.3103 154.216 71.3782 154.216 72.4317 154.115V107.806L23.0054 149.945Z" fill="#FF7900"/>
<path d="M161.529 39.2149C157.355 52.0212 149.013 63.0609 137.834 70.5736C144.486 58.1917 140.402 43.1546 140.402 43.1546C136.144 49.457 130.913 55.0439 124.903 59.707C116.346 52.4915 110.256 46.7191 101.092 38.0604C102.952 36.4297 104.43 34.4097 105.421 32.1437C107.255 28.0075 107.373 23.3132 105.749 19.0902C104.126 14.8672 100.894 11.4603 96.7628 9.61683L87.5702 30.311C80.6706 28.5355 73.3666 29.2404 66.9338 32.3024L56.8321 9.54468C53.6216 10.9636 50.926 13.3369 49.1119 16.3418C47.2977 19.3467 46.4531 22.8374 46.6927 26.3393C46.9324 29.8412 48.2447 33.1843 50.4513 35.9141C52.658 38.6438 55.6517 40.6277 59.0256 41.596V110.201L72.9371 98.3389L131.874 122.323C133.088 122.821 134.415 122.977 135.712 122.776C137.009 122.575 138.226 122.025 139.233 121.183C152.51 110.1 172.338 72.4063 161.529 39.2149ZM94.8579 91.1667C92.0757 91.1638 89.3567 90.3362 87.0448 88.7884C84.7328 87.2406 82.9317 85.0421 81.8689 82.4709C80.8062 79.8996 80.5296 77.071 81.0742 74.3426C81.6187 71.6142 82.9599 69.1085 84.9282 67.1421C86.8966 65.1758 89.4037 63.8372 92.1326 63.2954C94.8616 62.7537 97.6899 63.0332 100.26 64.0986C102.83 65.1639 105.027 66.9674 106.572 69.2809C108.118 71.5944 108.943 74.3142 108.943 77.0964C108.935 80.8256 107.447 84.3992 104.806 87.032C102.165 89.6649 98.587 91.1417 94.8579 91.1378V91.1667ZM132.927 110.071C130.863 111.962 128.266 112.496 127.155 111.255C126.043 110.014 126.794 107.488 128.857 105.598C130.921 103.707 133.519 103.173 134.63 104.414C135.741 105.655 135.005 108.152 132.927 110.042V110.071Z" fill="#FF9D00"/>
<path d="M94.8586 91.1666C92.0764 91.1638 89.3574 90.3362 87.0455 88.7884C84.7335 87.2406 82.9324 85.0421 81.8696 82.4708C80.8069 79.8996 80.5303 77.071 81.0749 74.3426C81.6194 71.6142 82.9606 69.1084 84.9289 67.1421C86.8973 65.1758 89.4044 63.8372 92.1333 63.2954C94.8623 62.7537 97.6906 63.0332 100.261 64.0985C102.831 65.1639 105.028 66.9673 106.573 69.2809C108.118 71.5944 108.943 74.3142 108.943 77.0964C108.936 80.8256 107.448 84.3992 104.807 87.032C102.166 89.6649 98.5877 91.1416 94.8586 91.1378V91.1666Z" fill="white"/>
<path d="M103.674 71.6128C103.769 71.9026 103.828 72.2032 103.848 72.5075C103.848 73.1903 103.645 73.8577 103.265 74.4252C102.886 74.9927 102.346 75.4347 101.715 75.6953C101.084 75.956 100.39 76.0234 99.7203 75.8892C99.0509 75.7549 98.4363 75.425 97.9546 74.9412C97.4728 74.4574 97.1455 73.8415 97.014 73.1715C96.8826 72.5015 96.9529 71.8076 97.2162 71.1776C97.4794 70.5476 97.9238 70.01 98.4928 69.6327C99.0619 69.2555 99.7302 69.0556 100.413 69.0585C100.824 69.0661 101.23 69.1492 101.611 69.3038C99.9313 68.0042 97.8268 67.3792 95.7102 67.5512C93.5937 67.7232 91.6178 68.68 90.1703 70.2338C88.7228 71.7875 87.9081 73.8261 87.8862 75.9496C87.8643 78.073 88.6366 80.128 90.0517 81.7113C91.4668 83.2947 93.4225 84.292 95.5351 84.5078C97.6476 84.7235 99.7646 84.142 101.471 82.8774C103.176 81.6128 104.348 79.7563 104.756 77.6723C105.164 75.5882 104.778 73.4271 103.674 71.6128Z" fill="#413F54"/>
</g>
<defs>
<clipPath id="clip0_1429_1015">
<rect width="429.767" height="159.913" fill="white" transform="translate(10.2324 9.35571)"/>
</clipPath>
</defs>
</svg>
