<svg width="40" height="40" viewBox="0 0 40 40" fill="none" xmlns="http://www.w3.org/2000/svg">
<path opacity="0.4" d="M36.2661 26.534L25.5995 7.33398C24.1661 4.75065 22.1828 3.33398 19.9995 3.33398C17.8161 3.33398 15.8328 4.75065 14.3995 7.33398L3.73281 26.534C2.38281 28.984 2.23281 31.334 3.31614 33.184C4.39947 35.034 6.53281 36.0507 9.33281 36.0507H30.6661C33.4661 36.0507 35.5995 35.034 36.6828 33.184C37.7661 31.334 37.6161 28.9673 36.2661 26.534Z" fill="#FF9D00"/>
<path d="M20 24.5833C19.3167 24.5833 18.75 24.0167 18.75 23.3333V15C18.75 14.3167 19.3167 13.75 20 13.75C20.6833 13.75 21.25 14.3167 21.25 15V23.3333C21.25 24.0167 20.6833 24.5833 20 24.5833Z" fill="#FF9D00"/>
<path d="M20.0007 29.9996C19.9007 29.9996 19.784 29.9829 19.6673 29.9663C19.5673 29.9496 19.4673 29.9163 19.3673 29.8663C19.2673 29.8329 19.1673 29.7829 19.0673 29.7163C18.984 29.6496 18.9007 29.5829 18.8173 29.5163C18.5173 29.1996 18.334 28.7663 18.334 28.3329C18.334 27.8996 18.5173 27.4663 18.8173 27.1496C18.9007 27.0829 18.984 27.0163 19.0673 26.9496C19.1673 26.8829 19.2673 26.8329 19.3673 26.7996C19.4673 26.7496 19.5673 26.7163 19.6673 26.6996C19.884 26.6496 20.1173 26.6496 20.3173 26.6996C20.434 26.7163 20.534 26.7496 20.634 26.7996C20.734 26.8329 20.834 26.8829 20.934 26.9496C21.0173 27.0163 21.1007 27.0829 21.184 27.1496C21.484 27.4663 21.6673 27.8996 21.6673 28.3329C21.6673 28.7663 21.484 29.1996 21.184 29.5163C21.1007 29.5829 21.0173 29.6496 20.934 29.7163C20.834 29.7829 20.734 29.8329 20.634 29.8663C20.534 29.9163 20.434 29.9496 20.3173 29.9663C20.2173 29.9829 20.1007 29.9996 20.0007 29.9996Z" fill="#FF9D00"/>
</svg>
