<svg width="20" height="20" viewBox="0 0 20 20" fill="none" xmlns="http://www.w3.org/2000/svg">
<path d="M4.4371 15.3033L7.08876 12.6516H0.0176779L0.0176791 19.7227L2.66933 17.0711C4.54471 18.9465 7.08824 20 9.74042 20C12.3926 20 14.9361 18.9465 16.8115 17.0711C18.1992 15.6834 19.0831 13.9863 19.4809 12.2097H16.8999C16.564 13.3411 15.9276 14.4194 15.0437 15.3033C13.6372 16.7098 11.7295 17.5 9.74042 17.5C7.75129 17.5 5.84363 16.7098 4.4371 15.3033ZM0 7.79031H2.58095C2.9345 6.65893 3.55322 5.5806 4.4371 4.69671C5.84363 3.29019 7.75129 2.50001 9.74042 2.50001C11.7295 2.50001 13.6372 3.29019 15.0437 4.69671L12.392 7.34836L19.4631 7.34837V0.277283L16.8115 2.92894C14.9361 1.05357 12.3926 2.29167e-07 9.74042 0C7.08824 -1.14584e-07 4.5447 1.05357 2.66933 2.92894C1.28163 4.31664 0.397745 6.0137 0 7.79031Z" fill="#413F54"/>
</svg>
